NotoSansTelugu-Regular.ufo
<glyph name="exclam.telu" format="2">
  <advance width="298"/>
  <unicode hex="0021"/>
  <outline>
    <contour>
      <point x="178" y="201" type="line"/>
      <point x="203" y="657" type="line"/>
      <point x="96" y="657" type="line"/>
      <point x="121" y="201" type="line"/>
    </contour>
    <contour>
      <point x="86" y="57" type="curve" smooth="yes"/>
      <point x="86" y="8"/>
      <point x="114" y="-12"/>
      <point x="148" y="-12" type="curve" smooth="yes"/>
      <point x="182" y="-12"/>
      <point x="210" y="8"/>
      <point x="210" y="57" type="curve" smooth="yes"/>
      <point x="210" y="105"/>
      <point x="182" y="124"/>
      <point x="148" y="124" type="curve" smooth="yes"/>
      <point x="114" y="124"/>
      <point x="86" y="105"/>
    </contour>
  </outline>
</glyph>
<glyph name="quotedbl.telu" format="2">
  <advance width="456"/>
  <unicode hex="0022"/>
  <outline>
    <contour>
      <point x="109" y="515" type="line"/>
      <point x="170" y="515" type="line"/>
      <point x="195" y="773" type="line"/>
      <point x="84" y="773" type="line"/>
    </contour>
    <contour>
      <point x="286" y="515" type="line"/>
      <point x="346" y="515" type="line"/>
      <point x="371" y="773" type="line"/>
      <point x="261" y="773" type="line"/>
    </contour>
  </outline>
</glyph>
<glyph name="numbersign.telu" format="2">
  <advance width="646"/>
  <unicode hex="0023"/>
  <outline>
    <contour>
      <point x="113" y="0" type="line"/>
      <point x="183" y="0" type="line"/>
      <point x="221" y="182" type="line"/>
      <point x="363" y="182" type="line"/>
      <point x="324" y="0" type="line"/>
      <point x="395" y="0" type="line"/>
      <point x="433" y="182" type="line"/>
      <point x="586" y="182" type="line"/>
      <point x="586" y="248" type="line"/>
      <point x="447" y="248" type="line"/>
      <point x="481" y="408" type="line"/>
      <point x="620" y="408" type="line"/>
      <point x="620" y="474" type="line"/>
      <point x="495" y="474" type="line"/>
      <point x="533" y="651" type="line"/>
      <point x="464" y="651" type="line"/>
      <point x="426" y="474" type="line"/>
      <point x="282" y="474" type="line"/>
      <point x="320" y="651" type="line"/>
      <point x="248" y="651" type="line"/>
      <point x="211" y="474" type="line"/>
      <point x="62" y="474" type="line"/>
      <point x="62" y="408" type="line"/>
      <point x="197" y="408" type="line"/>
      <point x="164" y="248" type="line"/>
      <point x="25" y="248" type="line"/>
      <point x="25" y="182" type="line"/>
      <point x="151" y="182" type="line"/>
    </contour>
    <contour>
      <point x="234" y="248" type="line"/>
      <point x="269" y="408" type="line"/>
      <point x="412" y="408" type="line"/>
      <point x="377" y="248" type="line"/>
    </contour>
  </outline>
</glyph>
<glyph name="percent.telu" format="2">
  <advance width="831"/>
  <unicode hex="0025"/>
  <outline>
    <contour>
      <point x="179" y="0" type="line"/>
      <point x="256" y="0" type="line"/>
      <point x="652" y="651" type="line"/>
      <point x="575" y="651" type="line"/>
    </contour>
    <contour>
      <point x="195" y="276" type="curve" smooth="yes"/>
      <point x="298" y="276"/>
      <point x="345" y="348"/>
      <point x="345" y="469" type="curve" smooth="yes"/>
      <point x="345" y="591"/>
      <point x="293" y="661"/>
      <point x="195" y="661" type="curve" smooth="yes"/>
      <point x="94" y="661"/>
      <point x="49" y="591"/>
      <point x="49" y="469" type="curve" smooth="yes"/>
      <point x="49" y="348"/>
      <point x="100" y="276"/>
    </contour>
    <contour>
      <point x="195" y="339" type="curve" smooth="yes"/>
      <point x="144" y="339"/>
      <point x="122" y="383"/>
      <point x="122" y="469" type="curve" smooth="yes"/>
      <point x="122" y="556"/>
      <point x="144" y="599"/>
      <point x="195" y="599" type="curve" smooth="yes"/>
      <point x="247" y="599"/>
      <point x="272" y="556"/>
      <point x="272" y="469" type="curve" smooth="yes"/>
      <point x="272" y="382"/>
      <point x="247" y="339"/>
    </contour>
    <contour>
      <point x="632" y="-10" type="curve" smooth="yes"/>
      <point x="735" y="-10"/>
      <point x="782" y="63"/>
      <point x="782" y="183" type="curve" smooth="yes"/>
      <point x="782" y="305"/>
      <point x="729" y="375"/>
      <point x="632" y="375" type="curve" smooth="yes"/>
      <point x="531" y="375"/>
      <point x="486" y="305"/>
      <point x="486" y="183" type="curve" smooth="yes"/>
      <point x="486" y="63"/>
      <point x="537" y="-10"/>
    </contour>
    <contour>
      <point x="632" y="53" type="curve" smooth="yes"/>
      <point x="581" y="53"/>
      <point x="559" y="96"/>
      <point x="559" y="183" type="curve" smooth="yes"/>
      <point x="559" y="269"/>
      <point x="581" y="312"/>
      <point x="632" y="312" type="curve" smooth="yes"/>
      <point x="684" y="312"/>
      <point x="709" y="269"/>
      <point x="709" y="183" type="curve" smooth="yes"/>
      <point x="709" y="96"/>
      <point x="684" y="53"/>
    </contour>
  </outline>
</glyph>
<glyph name="quotesingle.telu" format="2">
  <advance width="280"/>
  <unicode hex="0027"/>
  <outline>
    <contour>
      <point x="109" y="515" type="line"/>
      <point x="170" y="515" type="line"/>
      <point x="195" y="773" type="line"/>
      <point x="84" y="773" type="line"/>
    </contour>
  </outline>
</glyph>
<glyph name="parenleft.telu" format="2">
  <advance width="362"/>
  <unicode hex="0028"/>
  <outline>
    <contour>
      <point x="50" y="211" type="curve"/>
      <point x="50" y="-1"/>
      <point x="109" y="-204"/>
      <point x="233" y="-361" type="curve"/>
      <point x="319" y="-361" type="line"/>
      <point x="193" y="-178"/>
      <point x="139" y="4"/>
      <point x="139" y="210" type="curve" smooth="yes"/>
      <point x="139" y="411"/>
      <point x="196" y="595"/>
      <point x="318" y="773" type="curve"/>
      <point x="233" y="773" type="line"/>
      <point x="110" y="616"/>
      <point x="50" y="420"/>
    </contour>
  </outline>
</glyph>
<glyph name="parenright.telu" format="2">
  <advance width="362"/>
  <unicode hex="0029"/>
  <outline>
    <contour>
      <point x="312" y="201" type="curve" smooth="yes"/>
      <point x="312" y="413"/>
      <point x="252" y="616"/>
      <point x="128" y="773" type="curve"/>
      <point x="43" y="773" type="line"/>
      <point x="170" y="588"/>
      <point x="223" y="408"/>
      <point x="223" y="202" type="curve" smooth="yes"/>
      <point x="223" y="1"/>
      <point x="167" y="-181"/>
      <point x="44" y="-361" type="curve"/>
      <point x="128" y="-361" type="line"/>
      <point x="251" y="-204"/>
      <point x="312" y="-8"/>
    </contour>
  </outline>
</glyph>
<glyph name="asterisk.telu" format="2">
  <advance width="551"/>
  <unicode hex="002A"/>
  <outline>
    <contour>
      <point x="336" y="773" type="line"/>
      <point x="239" y="773" type="line"/>
      <point x="260" y="581" type="line"/>
      <point x="70" y="635" type="line"/>
      <point x="56" y="543" type="line"/>
      <point x="238" y="528" type="line"/>
      <point x="121" y="370" type="line"/>
      <point x="209" y="323" type="line"/>
      <point x="287" y="498" type="line"/>
      <point x="372" y="323" type="line"/>
      <point x="458" y="370" type="line"/>
      <point x="339" y="528" type="line"/>
      <point x="522" y="543" type="line"/>
      <point x="509" y="635" type="line"/>
      <point x="316" y="581" type="line"/>
    </contour>
  </outline>
</glyph>
<glyph name="plus.telu" format="2">
  <advance width="572"/>
  <unicode hex="002B"/>
  <outline>
    <contour>
      <point x="249" y="291" type="line"/>
      <point x="249" y="84" type="line"/>
      <point x="321" y="84" type="line"/>
      <point x="321" y="291" type="line"/>
      <point x="520" y="291" type="line"/>
      <point x="520" y="362" type="line"/>
      <point x="321" y="362" type="line"/>
      <point x="321" y="569" type="line"/>
      <point x="249" y="569" type="line"/>
      <point x="249" y="362" type="line"/>
      <point x="50" y="362" type="line"/>
      <point x="50" y="291" type="line"/>
    </contour>
  </outline>
</glyph>
<glyph name="slash.telu" format="2">
  <advance width="436"/>
  <unicode hex="002F"/>
  <outline>
    <contour>
      <point x="406" y="773" type="line"/>
      <point x="320" y="773" type="line"/>
      <point x="29" y="-361" type="line"/>
      <point x="116" y="-361" type="line"/>
    </contour>
  </outline>
</glyph>
<glyph name="zero.telu" format="2">
  <advance width="572"/>
  <unicode hex="0030"/>
  <outline>
    <contour>
      <point x="523" y="326" type="curve" smooth="yes"/>
      <point x="523" y="538"/>
      <point x="445" y="661"/>
      <point x="285" y="661" type="curve" smooth="yes"/>
      <point x="118" y="661"/>
      <point x="49" y="537"/>
      <point x="49" y="326" type="curve" smooth="yes"/>
      <point x="49" y="115"/>
      <point x="124" y="-10"/>
      <point x="285" y="-10" type="curve" smooth="yes"/>
      <point x="453" y="-10"/>
      <point x="523" y="115"/>
    </contour>
    <contour>
      <point x="135" y="326" type="curve" smooth="yes"/>
      <point x="135" y="500"/>
      <point x="175" y="586"/>
      <point x="285" y="586" type="curve" smooth="yes"/>
      <point x="394" y="586"/>
      <point x="436" y="500"/>
      <point x="436" y="326" type="curve" smooth="yes"/>
      <point x="436" y="150"/>
      <point x="394" y="65"/>
      <point x="285" y="65" type="curve" smooth="yes"/>
      <point x="175" y="65"/>
      <point x="135" y="151"/>
    </contour>
  </outline>
</glyph>
<glyph name="one.telu" format="2">
  <advance width="572"/>
  <unicode hex="0031"/>
  <outline>
    <contour>
      <point x="356" y="0" type="line"/>
      <point x="356" y="655" type="line"/>
      <point x="281" y="655" type="line"/>
      <point x="88" y="505" type="line"/>
      <point x="134" y="446" type="line"/>
      <point x="210" y="508" type="line" smooth="yes"/>
      <point x="236" y="529"/>
      <point x="255" y="545"/>
      <point x="276" y="567" type="curve"/>
      <point x="273" y="529"/>
      <point x="272" y="497"/>
      <point x="272" y="440" type="curve" smooth="yes"/>
      <point x="272" y="0" type="line"/>
    </contour>
  </outline>
</glyph>
<glyph name="two.telu" format="2">
  <advance width="572"/>
  <unicode hex="0032"/>
  <outline>
    <contour>
      <point x="520" y="0" type="line"/>
      <point x="520" y="80" type="line"/>
      <point x="169" y="80" type="line"/>
      <point x="169" y="84" type="line"/>
      <point x="318" y="216" type="line" smooth="yes"/>
      <point x="427" y="313"/>
      <point x="491" y="386"/>
      <point x="491" y="490" type="curve" smooth="yes"/>
      <point x="491" y="596"/>
      <point x="408" y="661"/>
      <point x="275" y="661" type="curve" smooth="yes"/>
      <point x="184" y="661"/>
      <point x="112" y="624"/>
      <point x="56" y="577" type="curve"/>
      <point x="103" y="518" type="line"/>
      <point x="158" y="561"/>
      <point x="205" y="586"/>
      <point x="275" y="586" type="curve" smooth="yes"/>
      <point x="353" y="586"/>
      <point x="403" y="548"/>
      <point x="403" y="479" type="curve" smooth="yes"/>
      <point x="403" y="396"/>
      <point x="347" y="344"/>
      <point x="235" y="242" type="curve" smooth="yes"/>
      <point x="48" y="73" type="line"/>
      <point x="48" y="0" type="line"/>
    </contour>
  </outline>
</glyph>
<glyph name="three.telu" format="2">
  <advance width="572"/>
  <unicode hex="0033"/>
  <outline>
    <contour>
      <point x="493" y="500" type="curve" smooth="yes"/>
      <point x="493" y="593"/>
      <point x="421" y="661"/>
      <point x="272" y="661" type="curve" smooth="yes"/>
      <point x="176" y="661"/>
      <point x="100" y="627"/>
      <point x="49" y="587" type="curve"/>
      <point x="93" y="527" type="line"/>
      <point x="146" y="562"/>
      <point x="196" y="587"/>
      <point x="273" y="587" type="curve" smooth="yes"/>
      <point x="354" y="587"/>
      <point x="405" y="552"/>
      <point x="405" y="492" type="curve" smooth="yes"/>
      <point x="405" y="421"/>
      <point x="342" y="374"/>
      <point x="224" y="374" type="curve" smooth="yes"/>
      <point x="154" y="374" type="line"/>
      <point x="154" y="299" type="line"/>
      <point x="223" y="299" type="line" smooth="yes"/>
      <point x="351" y="299"/>
      <point x="425" y="267"/>
      <point x="425" y="188" type="curve" smooth="yes"/>
      <point x="425" y="111"/>
      <point x="372" y="64"/>
      <point x="242" y="64" type="curve" smooth="yes"/>
      <point x="178" y="64"/>
      <point x="105" y="81"/>
      <point x="45" y="111" type="curve"/>
      <point x="45" y="29" type="line"/>
      <point x="104" y="0"/>
      <point x="166" y="-10"/>
      <point x="241" y="-10" type="curve" smooth="yes"/>
      <point x="430" y="-10"/>
      <point x="515" y="71"/>
      <point x="515" y="186" type="curve" smooth="yes"/>
      <point x="515" y="269"/>
      <point x="463" y="324"/>
      <point x="356" y="340" type="curve"/>
      <point x="356" y="344" type="line"/>
      <point x="439" y="365"/>
      <point x="493" y="413"/>
    </contour>
  </outline>
</glyph>
<glyph name="four.telu" format="2">
  <advance width="572"/>
  <unicode hex="0034"/>
  <outline>
    <contour>
      <point x="552" y="146" type="line"/>
      <point x="552" y="220" type="line"/>
      <point x="446" y="220" type="line"/>
      <point x="446" y="655" type="line"/>
      <point x="357" y="655" type="line"/>
      <point x="21" y="220" type="line"/>
      <point x="21" y="146" type="line"/>
      <point x="363" y="146" type="line"/>
      <point x="363" y="0" type="line"/>
      <point x="446" y="0" type="line"/>
      <point x="446" y="146" type="line"/>
    </contour>
    <contour>
      <point x="363" y="225" type="line"/>
      <point x="110" y="225" type="line"/>
      <point x="310" y="479" type="line" smooth="yes"/>
      <point x="333" y="509"/>
      <point x="352" y="539"/>
      <point x="364" y="561" type="curve"/>
      <point x="368" y="561" type="line"/>
      <point x="365" y="522"/>
      <point x="363" y="483"/>
      <point x="363" y="422" type="curve" smooth="yes"/>
    </contour>
  </outline>
</glyph>
<glyph name="five.telu" format="2">
  <advance width="572"/>
  <unicode hex="0035"/>
  <outline>
    <contour>
      <point x="272" y="402" type="curve" smooth="yes"/>
      <point x="225" y="402"/>
      <point x="187" y="396"/>
      <point x="164" y="392" type="curve"/>
      <point x="179" y="571" type="line"/>
      <point x="465" y="571" type="line"/>
      <point x="465" y="651" type="line"/>
      <point x="107" y="651" type="line"/>
      <point x="80" y="341" type="line"/>
      <point x="124" y="313" type="line"/>
      <point x="153" y="320"/>
      <point x="209" y="328"/>
      <point x="248" y="328" type="curve" smooth="yes"/>
      <point x="373" y="328"/>
      <point x="427" y="283"/>
      <point x="427" y="201" type="curve" smooth="yes"/>
      <point x="427" y="108"/>
      <point x="356" y="65"/>
      <point x="251" y="65" type="curve" smooth="yes"/>
      <point x="188" y="65"/>
      <point x="111" y="83"/>
      <point x="63" y="112" type="curve"/>
      <point x="63" y="29" type="line"/>
      <point x="107" y="3"/>
      <point x="174" y="-10"/>
      <point x="248" y="-10" type="curve" smooth="yes"/>
      <point x="416" y="-10"/>
      <point x="515" y="73"/>
      <point x="515" y="209" type="curve" smooth="yes"/>
      <point x="515" y="332"/>
      <point x="420" y="402"/>
    </contour>
  </outline>
</glyph>
<glyph name="six.telu" format="2">
  <advance width="572"/>
  <unicode hex="0036"/>
  <outline>
    <contour>
      <point x="55" y="278" type="curve" smooth="yes"/>
      <point x="55" y="82"/>
      <point x="162" y="-10"/>
      <point x="298" y="-10" type="curve" smooth="yes"/>
      <point x="437" y="-10"/>
      <point x="525" y="74"/>
      <point x="525" y="212" type="curve" smooth="yes"/>
      <point x="525" y="340"/>
      <point x="441" y="413"/>
      <point x="317" y="413" type="curve" smooth="yes"/>
      <point x="225" y="413"/>
      <point x="174" y="372"/>
      <point x="146" y="328" type="curve"/>
      <point x="142" y="328" type="line"/>
      <point x="148" y="470"/>
      <point x="198" y="589"/>
      <point x="384" y="589" type="curve" smooth="yes"/>
      <point x="414" y="589"/>
      <point x="446" y="585"/>
      <point x="470" y="577" type="curve"/>
      <point x="470" y="652" type="line"/>
      <point x="448" y="658"/>
      <point x="410" y="661"/>
      <point x="382" y="661" type="curve" smooth="yes"/>
      <point x="113" y="661"/>
      <point x="55" y="465"/>
    </contour>
    <contour>
      <point x="297" y="64" type="curve" smooth="yes"/>
      <point x="194" y="64"/>
      <point x="142" y="150"/>
      <point x="142" y="227" type="curve" smooth="yes"/>
      <point x="142" y="283"/>
      <point x="205" y="344"/>
      <point x="300" y="344" type="curve" smooth="yes"/>
      <point x="394" y="344"/>
      <point x="440" y="293"/>
      <point x="440" y="212" type="curve" smooth="yes"/>
      <point x="440" y="111"/>
      <point x="382" y="64"/>
    </contour>
  </outline>
</glyph>
<glyph name="seven.telu" format="2">
  <advance width="572"/>
  <unicode hex="0037"/>
  <outline>
    <contour>
      <point x="136" y="0" type="line"/>
      <point x="233" y="0" type="line"/>
      <point x="523" y="583" type="line"/>
      <point x="523" y="651" type="line"/>
      <point x="44" y="651" type="line"/>
      <point x="44" y="571" type="line"/>
      <point x="429" y="571" type="line"/>
    </contour>
  </outline>
</glyph>
<glyph name="eight.telu" format="2">
  <advance width="572"/>
  <unicode hex="0038"/>
  <outline>
    <contour>
      <point x="285" y="661" type="curve" smooth="yes"/>
      <point x="163" y="661"/>
      <point x="72" y="605"/>
      <point x="72" y="506" type="curve" smooth="yes"/>
      <point x="72" y="426"/>
      <point x="123" y="379"/>
      <point x="197" y="342" type="curve"/>
      <point x="114" y="309"/>
      <point x="49" y="255"/>
      <point x="49" y="167" type="curve" smooth="yes"/>
      <point x="49" y="55"/>
      <point x="134" y="-10"/>
      <point x="288" y="-10" type="curve" smooth="yes"/>
      <point x="430" y="-10"/>
      <point x="522" y="59"/>
      <point x="522" y="169" type="curve" smooth="yes"/>
      <point x="522" y="259"/>
      <point x="453" y="310"/>
      <point x="363" y="347" type="curve"/>
      <point x="441" y="380"/>
      <point x="499" y="427"/>
      <point x="499" y="506" type="curve" smooth="yes"/>
      <point x="499" y="606"/>
      <point x="410" y="661"/>
    </contour>
    <contour>
      <point x="133" y="167" type="curve" smooth="yes"/>
      <point x="133" y="232"/>
      <point x="181" y="272"/>
      <point x="270" y="306" type="curve"/>
      <point x="287" y="300" type="line" smooth="yes"/>
      <point x="378" y="269"/>
      <point x="438" y="231"/>
      <point x="438" y="170" type="curve" smooth="yes"/>
      <point x="438" y="105"/>
      <point x="384" y="60"/>
      <point x="286" y="60" type="curve" smooth="yes"/>
      <point x="182" y="60"/>
      <point x="133" y="106"/>
    </contour>
    <contour>
      <point x="284" y="590" type="curve" smooth="yes"/>
      <point x="362" y="590"/>
      <point x="414" y="558"/>
      <point x="414" y="500" type="curve" smooth="yes"/>
      <point x="414" y="438"/>
      <point x="359" y="406"/>
      <point x="289" y="381" type="curve"/>
      <point x="215" y="408"/>
      <point x="156" y="437"/>
      <point x="156" y="500" type="curve" smooth="yes"/>
      <point x="156" y="558"/>
      <point x="208" y="590"/>
    </contour>
  </outline>
</glyph>
<glyph name="nine.telu" format="2">
  <advance width="572"/>
  <unicode hex="0039"/>
  <outline>
    <contour>
      <point x="520" y="373" type="curve" smooth="yes"/>
      <point x="520" y="568"/>
      <point x="414" y="661"/>
      <point x="278" y="661" type="curve" smooth="yes"/>
      <point x="140" y="661"/>
      <point x="50" y="576"/>
      <point x="50" y="438" type="curve" smooth="yes"/>
      <point x="50" y="311"/>
      <point x="132" y="238"/>
      <point x="256" y="238" type="curve" smooth="yes"/>
      <point x="343" y="238"/>
      <point x="392" y="271"/>
      <point x="428" y="321" type="curve"/>
      <point x="433" y="321" type="line"/>
      <point x="427" y="179"/>
      <point x="377" y="62"/>
      <point x="190" y="62" type="curve" smooth="yes"/>
      <point x="160" y="62"/>
      <point x="126" y="67"/>
      <point x="102" y="75" type="curve"/>
      <point x="102" y="0" type="line"/>
      <point x="124" y="-7"/>
      <point x="165" y="-10"/>
      <point x="192" y="-10" type="curve" smooth="yes"/>
      <point x="462" y="-10"/>
      <point x="520" y="186"/>
    </contour>
    <contour>
      <point x="278" y="587" type="curve" smooth="yes"/>
      <point x="381" y="587"/>
      <point x="433" y="501"/>
      <point x="433" y="424" type="curve" smooth="yes"/>
      <point x="433" y="367"/>
      <point x="371" y="308"/>
      <point x="274" y="308" type="curve" smooth="yes"/>
      <point x="180" y="308"/>
      <point x="135" y="358"/>
      <point x="135" y="439" type="curve" smooth="yes"/>
      <point x="135" y="539"/>
      <point x="194" y="587"/>
    </contour>
  </outline>
</glyph>
<glyph name="colon.telu" format="2">
  <advance width="268"/>
  <unicode hex="003A"/>
  <outline>
    <contour>
      <point x="72" y="57" type="curve" smooth="yes"/>
      <point x="72" y="8"/>
      <point x="99" y="-12"/>
      <point x="133" y="-12" type="curve" smooth="yes"/>
      <point x="167" y="-12"/>
      <point x="196" y="8"/>
      <point x="196" y="57" type="curve" smooth="yes"/>
      <point x="196" y="105"/>
      <point x="167" y="124"/>
      <point x="133" y="124" type="curve" smooth="yes"/>
      <point x="99" y="124"/>
      <point x="72" y="105"/>
    </contour>
    <contour>
      <point x="72" y="387" type="curve" smooth="yes"/>
      <point x="72" y="339"/>
      <point x="99" y="319"/>
      <point x="133" y="319" type="curve" smooth="yes"/>
      <point x="167" y="319"/>
      <point x="196" y="339"/>
      <point x="196" y="387" type="curve" smooth="yes"/>
      <point x="196" y="437"/>
      <point x="167" y="455"/>
      <point x="133" y="455" type="curve" smooth="yes"/>
      <point x="99" y="455"/>
      <point x="72" y="437"/>
    </contour>
  </outline>
</glyph>
<glyph name="semicolon.telu" format="2">
  <advance width="268"/>
  <unicode hex="003B"/>
  <outline>
    <contour>
      <point x="176" y="116" type="line"/>
      <point x="82" y="116" type="line"/>
      <point x="72" y="46"/>
      <point x="50" y="-54"/>
      <point x="31" y="-129" type="curve"/>
      <point x="97" y="-129" type="line"/>
      <point x="129" y="-58"/>
      <point x="165" y="35"/>
      <point x="183" y="105" type="curve"/>
    </contour>
    <contour>
      <point x="72" y="387" type="curve" smooth="yes"/>
      <point x="72" y="339"/>
      <point x="99" y="319"/>
      <point x="133" y="319" type="curve" smooth="yes"/>
      <point x="167" y="319"/>
      <point x="196" y="339"/>
      <point x="196" y="387" type="curve" smooth="yes"/>
      <point x="196" y="437"/>
      <point x="167" y="455"/>
      <point x="133" y="455" type="curve" smooth="yes"/>
      <point x="99" y="455"/>
      <point x="72" y="437"/>
    </contour>
  </outline>
</glyph>
<glyph name="less.telu" format="2">
  <advance width="572"/>
  <unicode hex="003C"/>
  <outline>
    <contour>
      <point x="521" y="90" type="line"/>
      <point x="521" y="167" type="line"/>
      <point x="144" y="326" type="line"/>
      <point x="521" y="503" type="line"/>
      <point x="521" y="582" type="line"/>
      <point x="50" y="347" type="line"/>
      <point x="50" y="297" type="line"/>
    </contour>
  </outline>
</glyph>
<glyph name="equal.telu" format="2">
  <advance width="572"/>
  <unicode hex="003D"/>
  <outline>
    <contour>
      <point x="56" y="390" type="line"/>
      <point x="514" y="390" type="line"/>
      <point x="514" y="460" type="line"/>
      <point x="56" y="460" type="line"/>
    </contour>
    <contour>
      <point x="56" y="190" type="line"/>
      <point x="514" y="190" type="line"/>
      <point x="514" y="262" type="line"/>
      <point x="56" y="262" type="line"/>
    </contour>
  </outline>
</glyph>
<glyph name="greater.telu" format="2">
  <advance width="572"/>
  <unicode hex="003E"/>
  <outline>
    <contour>
      <point x="50" y="167" type="line"/>
      <point x="50" y="90" type="line"/>
      <point x="521" y="297" type="line"/>
      <point x="521" y="347" type="line"/>
      <point x="50" y="582" type="line"/>
      <point x="50" y="503" type="line"/>
      <point x="427" y="325" type="line"/>
    </contour>
  </outline>
</glyph>
<glyph name="question.telu" format="2">
  <advance width="471"/>
  <unicode hex="003F"/>
  <outline>
    <contour>
      <point x="239" y="661" type="curve" smooth="yes"/>
      <point x="176" y="661"/>
      <point x="113" y="639"/>
      <point x="61" y="612" type="curve"/>
      <point x="91" y="542" type="line"/>
      <point x="140" y="567"/>
      <point x="185" y="584"/>
      <point x="240" y="584" type="curve" smooth="yes"/>
      <point x="316" y="584"/>
      <point x="353" y="545"/>
      <point x="353" y="494" type="curve" smooth="yes"/>
      <point x="353" y="438"/>
      <point x="325" y="403"/>
      <point x="263" y="354" type="curve" smooth="yes"/>
      <point x="196" y="302"/>
      <point x="180" y="260"/>
      <point x="180" y="202" type="curve" smooth="yes"/>
      <point x="180" y="186" type="line"/>
      <point x="248" y="186" type="line"/>
      <point x="248" y="194" type="line" smooth="yes"/>
      <point x="248" y="231"/>
      <point x="263" y="260"/>
      <point x="327" y="311" type="curve" smooth="yes"/>
      <point x="400" y="370"/>
      <point x="436" y="415"/>
      <point x="436" y="492" type="curve" smooth="yes"/>
      <point x="436" y="595"/>
      <point x="360" y="661"/>
    </contour>
    <contour>
      <point x="218" y="-12" type="curve" smooth="yes"/>
      <point x="252" y="-12"/>
      <point x="280" y="8"/>
      <point x="280" y="56" type="curve" smooth="yes"/>
      <point x="280" y="106"/>
      <point x="252" y="124"/>
      <point x="218" y="124" type="curve" smooth="yes"/>
      <point x="184" y="124"/>
      <point x="156" y="106"/>
      <point x="156" y="56" type="curve" smooth="yes"/>
      <point x="156" y="8"/>
      <point x="184" y="-12"/>
    </contour>
  </outline>
</glyph>
<glyph name="bracketleft.telu" format="2">
  <advance width="344"/>
  <unicode hex="005B"/>
  <outline>
    <contour>
      <point x="304" y="-361" type="line"/>
      <point x="304" y="-289" type="line"/>
      <point x="166" y="-289" type="line"/>
      <point x="166" y="701" type="line"/>
      <point x="304" y="701" type="line"/>
      <point x="304" y="773" type="line"/>
      <point x="80" y="773" type="line"/>
      <point x="80" y="-361" type="line"/>
    </contour>
  </outline>
</glyph>
<glyph name="backslash.telu" format="2">
  <advance width="436"/>
  <unicode hex="005C"/>
  <outline>
    <contour>
      <point x="116" y="773" type="line"/>
      <point x="29" y="773" type="line"/>
      <point x="319" y="-361" type="line"/>
      <point x="406" y="-361" type="line"/>
    </contour>
  </outline>
</glyph>
<glyph name="bracketright.telu" format="2">
  <advance width="344"/>
  <unicode hex="005D"/>
  <outline>
    <contour>
      <point x="40" y="-289" type="line"/>
      <point x="40" y="-361" type="line"/>
      <point x="264" y="-361" type="line"/>
      <point x="264" y="773" type="line"/>
      <point x="40" y="773" type="line"/>
      <point x="40" y="701" type="line"/>
      <point x="178" y="701" type="line"/>
      <point x="178" y="-289" type="line"/>
    </contour>
  </outline>
</glyph>
<glyph name="braceleft.telu" format="2">
  <advance width="388"/>
  <unicode hex="007B"/>
  <outline>
    <contour>
      <point x="348" y="-361" type="curve"/>
      <point x="348" y="-289" type="line"/>
      <point x="277" y="-288"/>
      <point x="237" y="-261"/>
      <point x="237" y="-196" type="curve" smooth="yes"/>
      <point x="237" y="81" type="line" smooth="yes"/>
      <point x="237" y="149"/>
      <point x="202" y="190"/>
      <point x="128" y="203" type="curve"/>
      <point x="128" y="209" type="line"/>
      <point x="201" y="222"/>
      <point x="237" y="263"/>
      <point x="237" y="331" type="curve" smooth="yes"/>
      <point x="237" y="607" type="line" smooth="yes"/>
      <point x="237" y="672"/>
      <point x="279" y="699"/>
      <point x="348" y="701" type="curve"/>
      <point x="348" y="773" type="line"/>
      <point x="231" y="773"/>
      <point x="150" y="721"/>
      <point x="150" y="615" type="curve" smooth="yes"/>
      <point x="150" y="335" type="line" smooth="yes"/>
      <point x="150" y="268"/>
      <point x="107" y="244"/>
      <point x="28" y="242" type="curve"/>
      <point x="28" y="169" type="line"/>
      <point x="107" y="169"/>
      <point x="150" y="143"/>
      <point x="150" y="75" type="curve" smooth="yes"/>
      <point x="150" y="-202" type="line" smooth="yes"/>
      <point x="150" y="-309"/>
      <point x="225" y="-360"/>
    </contour>
  </outline>
</glyph>
<glyph name="bar.telu" format="2">
  <advance width="551"/>
  <unicode hex="007C"/>
  <outline>
    <contour>
      <point x="235" y="773" type="line"/>
      <point x="235" y="-361" type="line"/>
      <point x="316" y="-361" type="line"/>
      <point x="316" y="773" type="line"/>
    </contour>
  </outline>
</glyph>
<glyph name="braceright.telu" format="2">
  <advance width="388"/>
  <unicode hex="007D"/>
  <outline>
    <contour>
      <point x="40" y="773" type="curve"/>
      <point x="40" y="701" type="line"/>
      <point x="111" y="700"/>
      <point x="151" y="673"/>
      <point x="151" y="608" type="curve" smooth="yes"/>
      <point x="151" y="332" type="line" smooth="yes"/>
      <point x="151" y="263"/>
      <point x="186" y="222"/>
      <point x="260" y="209" type="curve"/>
      <point x="260" y="203" type="line"/>
      <point x="187" y="190"/>
      <point x="151" y="149"/>
      <point x="151" y="82" type="curve" smooth="yes"/>
      <point x="151" y="-195" type="line" smooth="yes"/>
      <point x="151" y="-260"/>
      <point x="109" y="-287"/>
      <point x="40" y="-289" type="curve"/>
      <point x="40" y="-361" type="line"/>
      <point x="157" y="-361"/>
      <point x="238" y="-309"/>
      <point x="238" y="-203" type="curve" smooth="yes"/>
      <point x="238" y="77" type="line" smooth="yes"/>
      <point x="238" y="145"/>
      <point x="281" y="169"/>
      <point x="360" y="170" type="curve"/>
      <point x="360" y="243" type="line"/>
      <point x="281" y="243"/>
      <point x="238" y="270"/>
      <point x="238" y="337" type="curve" smooth="yes"/>
      <point x="238" y="614" type="line" smooth="yes"/>
      <point x="238" y="721"/>
      <point x="163" y="772"/>
    </contour>
  </outline>
</glyph>
<glyph name="asciitilde.telu" format="2">
  <advance width="572"/>
  <unicode hex="007E"/>
  <outline>
    <contour>
      <point x="269" y="292" type="curve" smooth="yes"/>
      <point x="329" y="267"/>
      <point x="363" y="261"/>
      <point x="401" y="261" type="curve" smooth="yes"/>
      <point x="449" y="261"/>
      <point x="489" y="280"/>
      <point x="521" y="314" type="curve"/>
      <point x="521" y="392" type="line"/>
      <point x="489" y="358"/>
      <point x="445" y="333"/>
      <point x="406" y="333" type="curve" smooth="yes"/>
      <point x="378" y="333"/>
      <point x="350" y="339"/>
      <point x="302" y="360" type="curve" smooth="yes"/>
      <point x="241" y="386"/>
      <point x="208" y="392"/>
      <point x="170" y="392" type="curve" smooth="yes"/>
      <point x="122" y="392"/>
      <point x="82" y="374"/>
      <point x="50" y="339" type="curve"/>
      <point x="50" y="261" type="line"/>
      <point x="82" y="293"/>
      <point x="127" y="320"/>
      <point x="164" y="320" type="curve" smooth="yes"/>
      <point x="193" y="320"/>
      <point x="221" y="313"/>
    </contour>
  </outline>
</glyph>
<glyph name="multiply.telu" format="2">
  <advance width="572"/>
  <unicode hex="00D7"/>
  <outline>
    <contour>
      <point x="65" y="157" type="line"/>
      <point x="117" y="105" type="line"/>
      <point x="284" y="274" type="line"/>
      <point x="455" y="105" type="line"/>
      <point x="505" y="157" type="line"/>
      <point x="336" y="327" type="line"/>
      <point x="506" y="497" type="line"/>
      <point x="456" y="548" type="line"/>
      <point x="285" y="376" type="line"/>
      <point x="116" y="548" type="line"/>
      <point x="64" y="496" type="line"/>
      <point x="234" y="327" type="line"/>
    </contour>
  </outline>
</glyph>
<glyph name="divide.telu" format="2">
  <advance width="572"/>
  <unicode hex="00F7"/>
  <outline>
    <contour>
      <point x="50" y="291" type="line"/>
      <point x="521" y="291" type="line"/>
      <point x="521" y="362" type="line"/>
      <point x="50" y="362" type="line"/>
    </contour>
    <contour>
      <point x="285" y="95" type="curve" smooth="yes"/>
      <point x="315" y="95"/>
      <point x="340" y="113"/>
      <point x="340" y="156" type="curve" smooth="yes"/>
      <point x="340" y="201"/>
      <point x="315" y="216"/>
      <point x="285" y="216" type="curve" smooth="yes"/>
      <point x="254" y="216"/>
      <point x="229" y="201"/>
      <point x="229" y="156" type="curve" smooth="yes"/>
      <point x="229" y="113"/>
      <point x="254" y="95"/>
    </contour>
    <contour>
      <point x="285" y="436" type="curve" smooth="yes"/>
      <point x="315" y="436"/>
      <point x="340" y="454"/>
      <point x="340" y="497" type="curve" smooth="yes"/>
      <point x="340" y="542"/>
      <point x="315" y="557"/>
      <point x="285" y="557" type="curve" smooth="yes"/>
      <point x="254" y="557"/>
      <point x="229" y="542"/>
      <point x="229" y="497" type="curve" smooth="yes"/>
      <point x="229" y="454"/>
      <point x="254" y="436"/>
    </contour>
  </outline>
</glyph>
<glyph name="uni0952" format="2">
  <unicode hex="0952"/>
  <outline>
    <contour>
      <point x="-499" y="-111" type="line"/>
      <point x="-499" y="-182" type="line"/>
      <point x="-73" y="-182" type="line"/>
      <point x="-73" y="-111" type="line"/>
    </contour>
  </outline>
</glyph>
<glyph name="dandatelu" format="2">
  <advance width="379"/>
  <unicode hex="0964"/>
  <outline>
    <contour>
      <point x="194" y="-139" type="line"/>
      <point x="275" y="-139" type="line"/>
      <point x="275" y="651" type="line"/>
      <point x="194" y="651" type="line"/>
    </contour>
  </outline>
</glyph>
<glyph name="dbldandatelu" format="2">
  <advance width="599"/>
  <unicode hex="0965"/>
  <outline>
    <contour>
      <point x="414" y="-139" type="line"/>
      <point x="495" y="-139" type="line"/>
      <point x="495" y="651" type="line"/>
      <point x="414" y="651" type="line"/>
    </contour>
    <contour>
      <point x="194" y="-139" type="line"/>
      <point x="275" y="-139" type="line"/>
      <point x="275" y="651" type="line"/>
      <point x="194" y="651" type="line"/>
    </contour>
  </outline>
</glyph>
<glyph name="uni0C00" format="2">
  <unicode hex="0C00"/>
  <outline>
    <contour>
      <point x="-286" y="598" type="curve" smooth="yes"/>
      <point x="-178" y="598"/>
      <point x="-112" y="656"/>
      <point x="-112" y="753" type="curve" smooth="yes"/>
      <point x="-112" y="770"/>
      <point x="-115" y="792"/>
      <point x="-119" y="808" type="curve"/>
      <point x="-188" y="794" type="line"/>
      <point x="-184" y="780"/>
      <point x="-183" y="767"/>
      <point x="-183" y="757" type="curve" smooth="yes"/>
      <point x="-183" y="687"/>
      <point x="-231" y="663"/>
      <point x="-286" y="663" type="curve" smooth="yes"/>
      <point x="-339" y="663"/>
      <point x="-389" y="683"/>
      <point x="-389" y="755" type="curve" smooth="yes"/>
      <point x="-389" y="766"/>
      <point x="-388" y="780"/>
      <point x="-384" y="794" type="curve"/>
      <point x="-452" y="808" type="line"/>
      <point x="-457" y="792"/>
      <point x="-460" y="772"/>
      <point x="-460" y="753" type="curve" smooth="yes"/>
      <point x="-460" y="654"/>
      <point x="-398" y="598"/>
    </contour>
    <contour>
      <point x="-287" y="705" type="curve" smooth="yes"/>
      <point x="-258" y="705"/>
      <point x="-236" y="725"/>
      <point x="-236" y="756" type="curve" smooth="yes"/>
      <point x="-236" y="784"/>
      <point x="-258" y="806"/>
      <point x="-287" y="806" type="curve" smooth="yes"/>
      <point x="-316" y="806"/>
      <point x="-337" y="784"/>
      <point x="-337" y="756" type="curve" smooth="yes"/>
      <point x="-337" y="725"/>
      <point x="-316" y="705"/>
    </contour>
  </outline>
</glyph>
<glyph name="candrabindutelu" format="2">
  <advance width="298"/>
  <unicode hex="0C01"/>
  <outline>
    <contour>
      <point x="33" y="208" type="curve" smooth="yes"/>
      <point x="33" y="70"/>
      <point x="131" y="-12"/>
      <point x="279" y="-12" type="curve" smooth="yes"/>
      <point x="282" y="-12" type="line"/>
      <point x="282" y="64" type="line"/>
      <point x="167" y="64"/>
      <point x="115" y="123"/>
      <point x="115" y="207" type="curve" smooth="yes"/>
      <point x="115" y="304"/>
      <point x="179" y="352"/>
      <point x="282" y="352" type="curve"/>
      <point x="282" y="428" type="line"/>
      <point x="278" y="428" type="line" smooth="yes"/>
      <point x="133" y="428"/>
      <point x="33" y="347"/>
    </contour>
  </outline>
</glyph>
<glyph name="anusvaratelu" format="2">
  <advance width="507"/>
  <unicode hex="0C02"/>
  <outline>
    <contour>
      <point x="33" y="208" type="curve" smooth="yes"/>
      <point x="33" y="84"/>
      <point x="119" y="-12"/>
      <point x="253" y="-12" type="curve" smooth="yes"/>
      <point x="388" y="-12"/>
      <point x="474" y="82"/>
      <point x="474" y="208" type="curve" smooth="yes"/>
      <point x="474" y="334"/>
      <point x="385" y="428"/>
      <point x="253" y="428" type="curve" smooth="yes"/>
      <point x="122" y="428"/>
      <point x="33" y="333"/>
    </contour>
    <contour>
      <point x="115" y="209" type="curve" smooth="yes"/>
      <point x="115" y="288"/>
      <point x="165" y="350"/>
      <point x="253" y="350" type="curve" smooth="yes"/>
      <point x="341" y="350"/>
      <point x="392" y="288"/>
      <point x="392" y="209" type="curve" smooth="yes"/>
      <point x="392" y="129"/>
      <point x="345" y="66"/>
      <point x="253" y="66" type="curve" smooth="yes"/>
      <point x="162" y="66"/>
      <point x="115" y="129"/>
    </contour>
  </outline>
</glyph>
<glyph name="visargatelu" format="2">
  <advance width="296"/>
  <unicode hex="0C03"/>
  <outline>
    <contour>
      <point x="28" y="104" type="curve" smooth="yes"/>
      <point x="28" y="38"/>
      <point x="74" y="-12"/>
      <point x="148" y="-12" type="curve" smooth="yes"/>
      <point x="222" y="-12"/>
      <point x="268" y="37"/>
      <point x="268" y="104" type="curve" smooth="yes"/>
      <point x="268" y="170"/>
      <point x="220" y="220"/>
      <point x="148" y="220" type="curve" smooth="yes"/>
      <point x="76" y="220"/>
      <point x="28" y="170"/>
    </contour>
    <contour>
      <point x="94" y="104" type="curve" smooth="yes"/>
      <point x="94" y="134"/>
      <point x="114" y="157"/>
      <point x="148" y="157" type="curve" smooth="yes"/>
      <point x="183" y="157"/>
      <point x="202" y="134"/>
      <point x="202" y="104" type="curve" smooth="yes"/>
      <point x="202" y="74"/>
      <point x="184" y="51"/>
      <point x="148" y="51" type="curve" smooth="yes"/>
      <point x="112" y="51"/>
      <point x="94" y="74"/>
    </contour>
    <contour>
      <point x="28" y="383" type="curve" smooth="yes"/>
      <point x="28" y="317"/>
      <point x="74" y="268"/>
      <point x="148" y="268" type="curve" smooth="yes"/>
      <point x="222" y="268"/>
      <point x="268" y="317"/>
      <point x="268" y="383" type="curve" smooth="yes"/>
      <point x="268" y="450"/>
      <point x="220" y="500"/>
      <point x="148" y="500" type="curve" smooth="yes"/>
      <point x="76" y="500"/>
      <point x="28" y="450"/>
    </contour>
    <contour>
      <point x="94" y="384" type="curve" smooth="yes"/>
      <point x="94" y="414"/>
      <point x="114" y="437"/>
      <point x="148" y="437" type="curve" smooth="yes"/>
      <point x="183" y="437"/>
      <point x="202" y="414"/>
      <point x="202" y="384" type="curve" smooth="yes"/>
      <point x="202" y="354"/>
      <point x="184" y="331"/>
      <point x="148" y="331" type="curve" smooth="yes"/>
      <point x="112" y="331"/>
      <point x="94" y="354"/>
    </contour>
  </outline>
</glyph>
<glyph name="uni0C04" format="2">
  <unicode hex="0C04"/>
  <outline>
    <contour>
      <point x="-406" y="713" type="curve" smooth="yes"/>
      <point x="-406" y="647"/>
      <point x="-360" y="598"/>
      <point x="-286" y="598" type="curve" smooth="yes"/>
      <point x="-212" y="598"/>
      <point x="-166" y="647"/>
      <point x="-166" y="713" type="curve" smooth="yes"/>
      <point x="-166" y="780"/>
      <point x="-214" y="830"/>
      <point x="-286" y="830" type="curve" smooth="yes"/>
      <point x="-358" y="830"/>
      <point x="-406" y="780"/>
    </contour>
    <contour>
      <point x="-340" y="714" type="curve" smooth="yes"/>
      <point x="-340" y="744"/>
      <point x="-320" y="767"/>
      <point x="-286" y="767" type="curve" smooth="yes"/>
      <point x="-251" y="767"/>
      <point x="-232" y="744"/>
      <point x="-232" y="714" type="curve" smooth="yes"/>
      <point x="-232" y="684"/>
      <point x="-250" y="661"/>
      <point x="-286" y="661" type="curve" smooth="yes"/>
      <point x="-322" y="661"/>
      <point x="-340" y="684"/>
    </contour>
  </outline>
</glyph>
<glyph name="atelu" format="2">
  <advance width="800"/>
  <unicode hex="0C05"/>
  <outline>
    <contour>
      <point x="390" y="-12" type="curve" smooth="yes"/>
      <point x="625" y="-12"/>
      <point x="765" y="83"/>
      <point x="765" y="284" type="curve" smooth="yes"/>
      <point x="765" y="409"/>
      <point x="687" y="500"/>
      <point x="584" y="500" type="curve" smooth="yes"/>
      <point x="483" y="500"/>
      <point x="439" y="434"/>
      <point x="439" y="374" type="curve" smooth="yes"/>
      <point x="439" y="318"/>
      <point x="466" y="274"/>
      <point x="513" y="251" type="curve"/>
      <point x="522" y="258" type="line"/>
      <point x="303" y="258" type="line"/>
      <point x="303" y="184" type="line"/>
      <point x="612" y="184" type="line"/>
      <point x="612" y="256" type="line"/>
      <point x="556" y="275"/>
      <point x="518" y="308"/>
      <point x="518" y="360" type="curve" smooth="yes"/>
      <point x="518" y="405"/>
      <point x="549" y="425"/>
      <point x="580" y="425" type="curve" smooth="yes"/>
      <point x="650" y="425"/>
      <point x="682" y="358"/>
      <point x="682" y="285" type="curve" smooth="yes"/>
      <point x="682" y="134"/>
      <point x="587" y="67"/>
      <point x="390" y="67" type="curve" smooth="yes"/>
      <point x="192" y="67"/>
      <point x="115" y="168"/>
      <point x="115" y="271" type="curve"/>
      <point x="115" y="280" type="line"/>
      <point x="115" y="375"/>
      <point x="157" y="429"/>
      <point x="220" y="429" type="curve" smooth="yes"/>
      <point x="254" y="429"/>
      <point x="278" y="407"/>
      <point x="278" y="369" type="curve" smooth="yes"/>
      <point x="278" y="329"/>
      <point x="250" y="305"/>
      <point x="197" y="305" type="curve" smooth="yes"/>
      <point x="132" y="305"/>
      <point x="98" y="344"/>
      <point x="82" y="366" type="curve"/>
      <point x="58" y="304" type="line"/>
      <point x="84" y="273"/>
      <point x="135" y="235"/>
      <point x="202" y="235" type="curve" smooth="yes"/>
      <point x="307" y="235"/>
      <point x="357" y="292"/>
      <point x="357" y="373" type="curve" smooth="yes"/>
      <point x="357" y="451"/>
      <point x="305" y="500"/>
      <point x="225" y="500" type="curve" smooth="yes"/>
      <point x="117" y="500"/>
      <point x="36" y="417"/>
      <point x="36" y="273" type="curve" smooth="yes"/>
      <point x="36" y="112"/>
      <point x="150" y="-12"/>
    </contour>
  </outline>
</glyph>
<glyph name="aatelu" format="2">
  <advance width="798"/>
  <unicode hex="0C06"/>
  <outline>
    <contour>
      <point x="423" y="-12" type="curve" smooth="yes"/>
      <point x="697" y="-12"/>
      <point x="750" y="88"/>
      <point x="750" y="169" type="curve" smooth="yes"/>
      <point x="750" y="233"/>
      <point x="697" y="269"/>
      <point x="645" y="285" type="curve"/>
      <point x="588" y="304"/>
      <point x="540" y="328"/>
      <point x="540" y="373" type="curve" smooth="yes"/>
      <point x="540" y="406"/>
      <point x="566" y="428"/>
      <point x="610" y="428" type="curve" smooth="yes"/>
      <point x="660" y="428"/>
      <point x="683" y="395"/>
      <point x="683" y="357" type="curve" smooth="yes"/>
      <point x="683" y="308"/>
      <point x="651" y="280"/>
      <point x="611" y="258" type="curve"/>
      <point x="303" y="258" type="line"/>
      <point x="303" y="184" type="line"/>
      <point x="550" y="184" type="line" smooth="yes"/>
      <point x="603" y="184"/>
      <point x="645" y="193"/>
      <point x="691" y="225" type="curve" smooth="yes"/>
      <point x="736" y="255"/>
      <point x="766" y="301"/>
      <point x="766" y="360" type="curve" smooth="yes"/>
      <point x="766" y="431"/>
      <point x="718" y="500"/>
      <point x="607" y="500" type="curve" smooth="yes"/>
      <point x="525" y="500"/>
      <point x="460" y="455"/>
      <point x="460" y="378" type="curve" smooth="yes"/>
      <point x="460" y="309"/>
      <point x="514" y="264"/>
      <point x="586" y="248" type="curve"/>
      <point x="622" y="236"/>
      <point x="667" y="211"/>
      <point x="667" y="171" type="curve" smooth="yes"/>
      <point x="667" y="107"/>
      <point x="581" y="67"/>
      <point x="423" y="67" type="curve" smooth="yes"/>
      <point x="185" y="67"/>
      <point x="115" y="168"/>
      <point x="115" y="271" type="curve" smooth="yes"/>
      <point x="115" y="280" type="line" smooth="yes"/>
      <point x="115" y="375"/>
      <point x="157" y="429"/>
      <point x="220" y="429" type="curve" smooth="yes"/>
      <point x="254" y="429"/>
      <point x="278" y="407"/>
      <point x="278" y="369" type="curve" smooth="yes"/>
      <point x="278" y="329"/>
      <point x="250" y="305"/>
      <point x="197" y="305" type="curve" smooth="yes"/>
      <point x="132" y="305"/>
      <point x="98" y="344"/>
      <point x="82" y="366" type="curve"/>
      <point x="58" y="304" type="line"/>
      <point x="84" y="273"/>
      <point x="135" y="235"/>
      <point x="202" y="235" type="curve" smooth="yes"/>
      <point x="307" y="235"/>
      <point x="357" y="292"/>
      <point x="357" y="373" type="curve" smooth="yes"/>
      <point x="357" y="451"/>
      <point x="305" y="500"/>
      <point x="225" y="500" type="curve" smooth="yes"/>
      <point x="117" y="500"/>
      <point x="36" y="417"/>
      <point x="36" y="273" type="curve" smooth="yes"/>
      <point x="36" y="112"/>
      <point x="147" y="-12"/>
    </contour>
  </outline>
</glyph>
<glyph name="iitelu" format="2">
  <advance width="994"/>
  <unicode hex="0C08"/>
  <outline>
    <contour>
      <point x="826" y="27" type="curve" smooth="yes"/>
      <point x="912" y="27"/>
      <point x="964" y="76"/>
      <point x="964" y="157" type="curve" smooth="yes"/>
      <point x="964" y="208"/>
      <point x="946" y="243"/>
      <point x="918" y="266" type="curve" smooth="yes"/>
      <point x="884" y="294"/>
      <point x="833" y="305"/>
      <point x="752" y="305" type="curve" smooth="yes"/>
      <point x="30" y="305" type="line"/>
      <point x="30" y="233" type="line"/>
      <point x="797" y="233" type="line" smooth="yes"/>
      <point x="855" y="233"/>
      <point x="891" y="210"/>
      <point x="891" y="157" type="curve" smooth="yes"/>
      <point x="891" y="119"/>
      <point x="870" y="93"/>
      <point x="826" y="93" type="curve" smooth="yes"/>
      <point x="786" y="93"/>
      <point x="759" y="113"/>
      <point x="759" y="154" type="curve" smooth="yes"/>
      <point x="759" y="193"/>
      <point x="784" y="223"/>
      <point x="851" y="249" type="curve"/>
      <point x="737" y="247" type="line"/>
      <point x="706" y="226"/>
      <point x="686" y="191"/>
      <point x="686" y="148" type="curve" smooth="yes"/>
      <point x="686" y="94"/>
      <point x="727" y="27"/>
    </contour>
    <contour>
      <point x="828" y="483" type="curve" smooth="yes"/>
      <point x="756" y="483"/>
      <point x="712" y="443"/>
      <point x="681" y="390" type="curve"/>
      <point x="753" y="362" type="line"/>
      <point x="774" y="394"/>
      <point x="794" y="417"/>
      <point x="830" y="417" type="curve" smooth="yes"/>
      <point x="862" y="417"/>
      <point x="879" y="397"/>
      <point x="879" y="369" type="curve" smooth="yes"/>
      <point x="879" y="336"/>
      <point x="846" y="303"/>
      <point x="768" y="279" type="curve"/>
      <point x="864" y="255" type="line"/>
      <point x="916" y="282"/>
      <point x="954" y="318"/>
      <point x="954" y="375" type="curve" smooth="yes"/>
      <point x="954" y="442"/>
      <point x="903" y="483"/>
    </contour>
    <contour>
      <point x="93" y="236" type="curve" smooth="yes"/>
      <point x="93" y="86"/>
      <point x="196" y="-12"/>
      <point x="354" y="-12" type="curve" smooth="yes"/>
      <point x="514" y="-12"/>
      <point x="616" y="88"/>
      <point x="616" y="237" type="curve" smooth="yes"/>
      <point x="616" y="396"/>
      <point x="511" y="500"/>
      <point x="354" y="500" type="curve" smooth="yes"/>
      <point x="198" y="500"/>
      <point x="93" y="392"/>
    </contour>
    <contour>
      <point x="174" y="248" type="curve" smooth="yes"/>
      <point x="174" y="343"/>
      <point x="229" y="425"/>
      <point x="354" y="425" type="curve" smooth="yes"/>
      <point x="478" y="425"/>
      <point x="535" y="343"/>
      <point x="535" y="242" type="curve" smooth="yes"/>
      <point x="535" y="141"/>
      <point x="478" y="67"/>
      <point x="354" y="67" type="curve" smooth="yes"/>
      <point x="231" y="67"/>
      <point x="174" y="140"/>
    </contour>
    <component base="hattelu" xOffset="201"/>
  </outline>
</glyph>
<glyph name="utelu" format="2">
  <advance width="798"/>
  <unicode hex="0C09"/>
  <outline>
    <contour>
      <point x="552" y="-12" type="curve" smooth="yes"/>
      <point x="645" y="-12"/>
      <point x="717" y="37"/>
      <point x="717" y="126" type="curve" smooth="yes"/>
      <point x="717" y="205"/>
      <point x="661" y="253"/>
      <point x="575" y="253" type="curve" smooth="yes"/>
      <point x="489" y="253"/>
      <point x="435" y="214"/>
      <point x="435" y="135" type="curve" smooth="yes"/>
      <point x="435" y="98"/>
      <point x="454" y="64"/>
      <point x="473" y="35" type="curve"/>
      <point x="539" y="46" type="line"/>
      <point x="520" y="63"/>
      <point x="505" y="91"/>
      <point x="505" y="124" type="curve" smooth="yes"/>
      <point x="505" y="171"/>
      <point x="535" y="188"/>
      <point x="571" y="188" type="curve" smooth="yes"/>
      <point x="610" y="188"/>
      <point x="637" y="170"/>
      <point x="637" y="129" type="curve" smooth="yes"/>
      <point x="637" y="87"/>
      <point x="611" y="63"/>
      <point x="556" y="63" type="curve" smooth="yes"/>
      <point x="520" y="63"/>
      <point x="491" y="66"/>
      <point x="469" y="76" type="curve"/>
      <point x="421" y="89"/>
      <point x="401" y="133"/>
      <point x="398" y="185" type="curve"/>
      <point x="320" y="185" type="line"/>
      <point x="314" y="114"/>
      <point x="278" y="67"/>
      <point x="213" y="67" type="curve" smooth="yes"/>
      <point x="152" y="67"/>
      <point x="116" y="104"/>
      <point x="116" y="197" type="curve" smooth="yes"/>
      <point x="116" y="229"/>
      <point x="120" y="260"/>
      <point x="130" y="287" type="curve" smooth="yes"/>
      <point x="165" y="377"/>
      <point x="254" y="425"/>
      <point x="383" y="425" type="curve" smooth="yes"/>
      <point x="471" y="425"/>
      <point x="531" y="402"/>
      <point x="599" y="358" type="curve"/>
      <point x="648" y="424" type="line"/>
      <point x="574" y="470"/>
      <point x="495" y="500"/>
      <point x="389" y="500" type="curve" smooth="yes"/>
      <point x="172" y="500"/>
      <point x="35" y="387"/>
      <point x="35" y="194" type="curve" smooth="yes"/>
      <point x="35" y="66"/>
      <point x="102" y="-12"/>
      <point x="201" y="-12" type="curve" smooth="yes"/>
      <point x="267" y="-12"/>
      <point x="324" y="4"/>
      <point x="368" y="91" type="curve"/>
      <point x="352" y="84" type="line"/>
      <point x="385" y="25"/>
      <point x="441" y="-12"/>
    </contour>
    <contour>
      <point x="73" y="246" type="line"/>
      <point x="772" y="246" type="line"/>
      <point x="772" y="318" type="line"/>
      <point x="88" y="318" type="line"/>
    </contour>
    <contour>
      <point x="423" y="624" type="line"/>
      <point x="333" y="624" type="line"/>
      <point x="340" y="478" type="line"/>
      <point x="415" y="478" type="line"/>
    </contour>
  </outline>
</glyph>
<glyph name="uutelu" format="2">
  <advance width="1095"/>
  <unicode hex="0C0A"/>
  <outline>
    <contour>
      <point x="552" y="-12" type="curve" smooth="yes"/>
      <point x="645" y="-12"/>
      <point x="717" y="37"/>
      <point x="717" y="126" type="curve" smooth="yes"/>
      <point x="717" y="205"/>
      <point x="661" y="253"/>
      <point x="575" y="253" type="curve" smooth="yes"/>
      <point x="489" y="253"/>
      <point x="435" y="214"/>
      <point x="435" y="135" type="curve" smooth="yes"/>
      <point x="435" y="98"/>
      <point x="454" y="64"/>
      <point x="473" y="35" type="curve"/>
      <point x="539" y="46" type="line"/>
      <point x="520" y="63"/>
      <point x="505" y="91"/>
      <point x="505" y="124" type="curve" smooth="yes"/>
      <point x="505" y="171"/>
      <point x="535" y="188"/>
      <point x="571" y="188" type="curve" smooth="yes"/>
      <point x="610" y="188"/>
      <point x="637" y="170"/>
      <point x="637" y="129" type="curve" smooth="yes"/>
      <point x="637" y="87"/>
      <point x="611" y="63"/>
      <point x="556" y="63" type="curve" smooth="yes"/>
      <point x="520" y="63"/>
      <point x="491" y="66"/>
      <point x="469" y="76" type="curve"/>
      <point x="421" y="89"/>
      <point x="401" y="133"/>
      <point x="398" y="185" type="curve"/>
      <point x="320" y="185" type="line"/>
      <point x="314" y="114"/>
      <point x="278" y="67"/>
      <point x="213" y="67" type="curve" smooth="yes"/>
      <point x="152" y="67"/>
      <point x="116" y="104"/>
      <point x="116" y="197" type="curve" smooth="yes"/>
      <point x="116" y="229"/>
      <point x="120" y="260"/>
      <point x="130" y="287" type="curve" smooth="yes"/>
      <point x="165" y="377"/>
      <point x="254" y="425"/>
      <point x="383" y="425" type="curve" smooth="yes"/>
      <point x="471" y="425"/>
      <point x="531" y="402"/>
      <point x="599" y="358" type="curve"/>
      <point x="648" y="424" type="line"/>
      <point x="574" y="470"/>
      <point x="494" y="500"/>
      <point x="389" y="500" type="curve" smooth="yes"/>
      <point x="172" y="500"/>
      <point x="35" y="387"/>
      <point x="35" y="194" type="curve" smooth="yes"/>
      <point x="35" y="66"/>
      <point x="102" y="-12"/>
      <point x="201" y="-12" type="curve" smooth="yes"/>
      <point x="267" y="-12"/>
      <point x="324" y="4"/>
      <point x="368" y="91" type="curve"/>
      <point x="352" y="84" type="line"/>
      <point x="385" y="25"/>
      <point x="441" y="-12"/>
    </contour>
    <contour>
      <point x="927" y="40" type="curve" smooth="yes"/>
      <point x="1013" y="40"/>
      <point x="1065" y="89"/>
      <point x="1065" y="170" type="curve" smooth="yes"/>
      <point x="1065" y="221"/>
      <point x="1047" y="256"/>
      <point x="1019" y="279" type="curve" smooth="yes"/>
      <point x="985" y="307"/>
      <point x="935" y="318"/>
      <point x="853" y="318" type="curve" smooth="yes"/>
      <point x="98" y="318" type="line"/>
      <point x="98" y="246" type="line"/>
      <point x="899" y="246" type="line" smooth="yes"/>
      <point x="956" y="246"/>
      <point x="992" y="223"/>
      <point x="992" y="170" type="curve" smooth="yes"/>
      <point x="992" y="132"/>
      <point x="971" y="106"/>
      <point x="927" y="106" type="curve" smooth="yes"/>
      <point x="887" y="106"/>
      <point x="860" y="126"/>
      <point x="860" y="167" type="curve" smooth="yes"/>
      <point x="860" y="206"/>
      <point x="885" y="236"/>
      <point x="952" y="262" type="curve"/>
      <point x="838" y="260" type="line"/>
      <point x="807" y="239"/>
      <point x="787" y="204"/>
      <point x="787" y="161" type="curve" smooth="yes"/>
      <point x="787" y="107"/>
      <point x="828" y="40"/>
    </contour>
    <contour>
      <point x="929" y="496" type="curve" smooth="yes"/>
      <point x="857" y="496"/>
      <point x="813" y="456"/>
      <point x="782" y="403" type="curve"/>
      <point x="854" y="375" type="line"/>
      <point x="875" y="407"/>
      <point x="895" y="430"/>
      <point x="931" y="430" type="curve" smooth="yes"/>
      <point x="963" y="430"/>
      <point x="980" y="410"/>
      <point x="980" y="382" type="curve" smooth="yes"/>
      <point x="980" y="349"/>
      <point x="947" y="316"/>
      <point x="869" y="292" type="curve"/>
      <point x="965" y="268" type="line"/>
      <point x="1018" y="295"/>
      <point x="1055" y="332"/>
      <point x="1055" y="388" type="curve" smooth="yes"/>
      <point x="1055" y="455"/>
      <point x="1004" y="496"/>
    </contour>
    <contour>
      <point x="335" y="624" type="line"/>
      <point x="245" y="624" type="line"/>
      <point x="252" y="478" type="line"/>
      <point x="327" y="478" type="line"/>
    </contour>
    <contour>
      <point x="511" y="624" type="line"/>
      <point x="421" y="624" type="line"/>
      <point x="428" y="478" type="line"/>
      <point x="503" y="478" type="line"/>
    </contour>
  </outline>
</glyph>
<glyph name="lvocalictelu" format="2">
  <advance width="882"/>
  <unicode hex="0C0C"/>
  <outline>
    <contour>
      <point x="559" y="-75" type="curve" smooth="yes"/>
      <point x="718" y="-75"/>
      <point x="846" y="42"/>
      <point x="846" y="227" type="curve" smooth="yes"/>
      <point x="846" y="345"/>
      <point x="798" y="438"/>
      <point x="695" y="500" type="curve"/>
      <point x="642" y="433" type="line"/>
      <point x="724" y="387"/>
      <point x="763" y="313"/>
      <point x="763" y="228" type="curve" smooth="yes"/>
      <point x="763" y="113"/>
      <point x="699" y="4"/>
      <point x="562" y="4" type="curve" smooth="yes"/>
      <point x="488" y="4"/>
      <point x="457" y="37"/>
      <point x="457" y="87" type="curve" smooth="yes"/>
      <point x="457" y="132"/>
      <point x="481" y="165"/>
      <point x="526" y="215" type="curve" smooth="yes"/>
      <point x="563" y="257"/>
      <point x="601" y="303"/>
      <point x="601" y="370" type="curve" smooth="yes"/>
      <point x="601" y="429"/>
      <point x="564" y="500"/>
      <point x="457" y="500" type="curve" smooth="yes"/>
      <point x="383" y="500"/>
      <point x="336" y="468"/>
      <point x="298" y="399" type="curve"/>
      <point x="315" y="398" type="line"/>
      <point x="282" y="470"/>
      <point x="240" y="500"/>
      <point x="170" y="500" type="curve" smooth="yes"/>
      <point x="92" y="500"/>
      <point x="29" y="450"/>
      <point x="29" y="372" type="curve" smooth="yes"/>
      <point x="29" y="330"/>
      <point x="43" y="294"/>
      <point x="59" y="263" type="curve"/>
      <point x="135" y="287" type="line"/>
      <point x="122" y="309"/>
      <point x="112" y="331"/>
      <point x="112" y="364" type="curve" smooth="yes"/>
      <point x="112" y="399"/>
      <point x="132" y="425"/>
      <point x="176" y="425" type="curve" smooth="yes"/>
      <point x="226" y="425"/>
      <point x="264" y="385"/>
      <point x="268" y="303" type="curve"/>
      <point x="346" y="303" type="line"/>
      <point x="351" y="378"/>
      <point x="391" y="424"/>
      <point x="453" y="424" type="curve" smooth="yes"/>
      <point x="498" y="424"/>
      <point x="521" y="397"/>
      <point x="521" y="364" type="curve" smooth="yes"/>
      <point x="521" y="326"/>
      <point x="497" y="296"/>
      <point x="460" y="255" type="curve" smooth="yes"/>
      <point x="407" y="197"/>
      <point x="374" y="148"/>
      <point x="374" y="84" type="curve" smooth="yes"/>
      <point x="374" y="-10"/>
      <point x="436" y="-75"/>
    </contour>
  </outline>
</glyph>
<glyph name="eetelu" format="2">
  <advance width="711"/>
  <unicode hex="0C0F"/>
  <outline>
    <contour>
      <point x="485" y="-12" type="curve" smooth="yes"/>
      <point x="606" y="-12"/>
      <point x="676" y="66"/>
      <point x="676" y="198" type="curve" smooth="yes"/>
      <point x="676" y="450"/>
      <point x="464" y="635"/>
      <point x="280" y="712" type="curve"/>
      <point x="242" y="632" type="line"/>
      <point x="429" y="551"/>
      <point x="593" y="387"/>
      <point x="593" y="200" type="curve" smooth="yes"/>
      <point x="593" y="108"/>
      <point x="557" y="67"/>
      <point x="490" y="67" type="curve" smooth="yes"/>
      <point x="431" y="67"/>
      <point x="402" y="90"/>
      <point x="348" y="161" type="curve" smooth="yes"/>
      <point x="283" y="247"/>
      <point x="242" y="282"/>
      <point x="170" y="282" type="curve" smooth="yes"/>
      <point x="91" y="282"/>
      <point x="29" y="225"/>
      <point x="29" y="138" type="curve" smooth="yes"/>
      <point x="29" y="64"/>
      <point x="69" y="-12"/>
      <point x="175" y="-12" type="curve" smooth="yes"/>
      <point x="252" y="-12"/>
      <point x="289" y="26"/>
      <point x="328" y="81" type="curve"/>
      <point x="275" y="141" type="line"/>
      <point x="254" y="90"/>
      <point x="225" y="63"/>
      <point x="180" y="63" type="curve" smooth="yes"/>
      <point x="134" y="63"/>
      <point x="107" y="95"/>
      <point x="107" y="136" type="curve" smooth="yes"/>
      <point x="107" y="182"/>
      <point x="135" y="207"/>
      <point x="172" y="207" type="curve" smooth="yes"/>
      <point x="212" y="207"/>
      <point x="234" y="184"/>
      <point x="273" y="131" type="curve" smooth="yes"/>
      <point x="338" y="45"/>
      <point x="388" y="-12"/>
    </contour>
    <contour>
      <point x="114" y="687" type="curve" smooth="yes"/>
      <point x="114" y="620"/>
      <point x="143" y="563"/>
      <point x="174" y="512" type="curve"/>
      <point x="251" y="546" type="line"/>
      <point x="218" y="592"/>
      <point x="196" y="634"/>
      <point x="196" y="688" type="curve" smooth="yes"/>
      <point x="196" y="726"/>
      <point x="217" y="754"/>
      <point x="254" y="754" type="curve" smooth="yes"/>
      <point x="267" y="754"/>
      <point x="279" y="751"/>
      <point x="289" y="748" type="curve"/>
      <point x="318" y="819" type="line"/>
      <point x="302" y="825"/>
      <point x="278" y="831"/>
      <point x="249" y="831" type="curve" smooth="yes"/>
      <point x="170" y="831"/>
      <point x="114" y="775"/>
    </contour>
  </outline>
</glyph>
<glyph name="aitelu" format="2">
  <advance width="727"/>
  <unicode hex="0C10"/>
  <outline>
    <contour>
      <point x="496" y="-12" type="curve" smooth="yes"/>
      <point x="623" y="-12"/>
      <point x="691" y="71"/>
      <point x="691" y="231" type="curve" smooth="yes"/>
      <point x="691" y="375"/>
      <point x="625" y="500"/>
      <point x="488" y="500" type="curve" smooth="yes"/>
      <point x="423" y="500"/>
      <point x="365" y="477"/>
      <point x="323" y="396" type="curve"/>
      <point x="342" y="397" type="line"/>
      <point x="305" y="470"/>
      <point x="261" y="500"/>
      <point x="185" y="500" type="curve" smooth="yes"/>
      <point x="102" y="500"/>
      <point x="36" y="452"/>
      <point x="36" y="375" type="curve" smooth="yes"/>
      <point x="36" y="347"/>
      <point x="42" y="323"/>
      <point x="52" y="302" type="curve"/>
      <point x="128" y="323" type="line"/>
      <point x="123" y="334"/>
      <point x="119" y="352"/>
      <point x="119" y="365" type="curve" smooth="yes"/>
      <point x="119" y="401"/>
      <point x="141" y="425"/>
      <point x="190" y="425" type="curve" smooth="yes"/>
      <point x="247" y="425"/>
      <point x="282" y="389"/>
      <point x="294" y="318" type="curve"/>
      <point x="372" y="318" type="line"/>
      <point x="382" y="375"/>
      <point x="417" y="421"/>
      <point x="481" y="421" type="curve" smooth="yes"/>
      <point x="573" y="421"/>
      <point x="609" y="326"/>
      <point x="609" y="228" type="curve" smooth="yes"/>
      <point x="609" y="115"/>
      <point x="572" y="67"/>
      <point x="501" y="67" type="curve" smooth="yes"/>
      <point x="442" y="67"/>
      <point x="414" y="89"/>
      <point x="359" y="161" type="curve" smooth="yes"/>
      <point x="294" y="247"/>
      <point x="252" y="282"/>
      <point x="181" y="282" type="curve" smooth="yes"/>
      <point x="102" y="282"/>
      <point x="40" y="225"/>
      <point x="40" y="138" type="curve" smooth="yes"/>
      <point x="40" y="64"/>
      <point x="80" y="-12"/>
      <point x="186" y="-12" type="curve" smooth="yes"/>
      <point x="263" y="-12"/>
      <point x="300" y="26"/>
      <point x="339" y="81" type="curve"/>
      <point x="286" y="141" type="line"/>
      <point x="265" y="90"/>
      <point x="236" y="63"/>
      <point x="190" y="63" type="curve" smooth="yes"/>
      <point x="145" y="63"/>
      <point x="118" y="95"/>
      <point x="118" y="136" type="curve" smooth="yes"/>
      <point x="118" y="182"/>
      <point x="146" y="207"/>
      <point x="183" y="207" type="curve" smooth="yes"/>
      <point x="223" y="207"/>
      <point x="245" y="184"/>
      <point x="284" y="131" type="curve" smooth="yes"/>
      <point x="349" y="45"/>
      <point x="399" y="-12"/>
    </contour>
  </outline>
</glyph>
<glyph name="otelu" format="2">
  <advance width="731"/>
  <unicode hex="0C12"/>
  <outline>
    <contour>
      <point x="530" y="-12" type="curve" smooth="yes"/>
      <point x="633" y="-12"/>
      <point x="701" y="38"/>
      <point x="701" y="150" type="curve" smooth="yes"/>
      <point x="701" y="203"/>
      <point x="671" y="273"/>
      <point x="591" y="326" type="curve"/>
      <point x="538" y="259" type="line"/>
      <point x="585" y="229"/>
      <point x="618" y="194"/>
      <point x="618" y="142" type="curve" smooth="yes"/>
      <point x="618" y="96"/>
      <point x="593" y="67"/>
      <point x="527" y="67" type="curve" smooth="yes"/>
      <point x="467" y="67"/>
      <point x="419" y="103"/>
      <point x="414" y="185" type="curve"/>
      <point x="336" y="185" type="line"/>
      <point x="330" y="114"/>
      <point x="290" y="67"/>
      <point x="207" y="67" type="curve" smooth="yes"/>
      <point x="150" y="67"/>
      <point x="123" y="92"/>
      <point x="123" y="131" type="curve" smooth="yes"/>
      <point x="123" y="175"/>
      <point x="156" y="198"/>
      <point x="227" y="225" type="curve" smooth="yes"/>
      <point x="315" y="257"/>
      <point x="360" y="294"/>
      <point x="360" y="370" type="curve" smooth="yes"/>
      <point x="360" y="429"/>
      <point x="322" y="500"/>
      <point x="203" y="500" type="curve" smooth="yes"/>
      <point x="85" y="500"/>
      <point x="36" y="438"/>
      <point x="36" y="375" type="curve" smooth="yes"/>
      <point x="36" y="347"/>
      <point x="42" y="322"/>
      <point x="53" y="302" type="curve"/>
      <point x="128" y="323" type="line"/>
      <point x="124" y="332"/>
      <point x="118" y="347"/>
      <point x="118" y="365" type="curve" smooth="yes"/>
      <point x="118" y="404"/>
      <point x="146" y="427"/>
      <point x="203" y="427" type="curve" smooth="yes"/>
      <point x="259" y="427"/>
      <point x="278" y="402"/>
      <point x="278" y="371" type="curve" smooth="yes"/>
      <point x="278" y="327"/>
      <point x="244" y="309"/>
      <point x="189" y="289" type="curve" smooth="yes"/>
      <point x="91" y="254"/>
      <point x="41" y="211"/>
      <point x="41" y="130" type="curve" smooth="yes"/>
      <point x="41" y="54"/>
      <point x="94" y="-12"/>
      <point x="205" y="-12" type="curve" smooth="yes"/>
      <point x="283" y="-12"/>
      <point x="333" y="8"/>
      <point x="386" y="90" type="curve"/>
      <point x="366" y="89" type="line"/>
      <point x="405" y="17"/>
      <point x="454" y="-12"/>
    </contour>
  </outline>
</glyph>
<glyph name="autelu" format="2">
  <advance width="731"/>
  <unicode hex="0C14"/>
  <outline>
    <contour>
      <point x="590" y="403" type="curve" smooth="yes"/>
      <point x="676" y="403"/>
      <point x="731" y="452"/>
      <point x="731" y="536" type="curve" smooth="yes"/>
      <point x="731" y="586"/>
      <point x="712" y="623"/>
      <point x="684" y="645" type="curve" smooth="yes"/>
      <point x="648" y="674"/>
      <point x="605" y="683"/>
      <point x="515" y="683" type="curve" smooth="yes"/>
      <point x="26" y="683" type="line"/>
      <point x="26" y="608" type="line"/>
      <point x="173" y="608" type="line" smooth="yes"/>
      <point x="220" y="608"/>
      <point x="235" y="603"/>
      <point x="248" y="592" type="curve" smooth="yes"/>
      <point x="259" y="583"/>
      <point x="264" y="569"/>
      <point x="264" y="552" type="curve" smooth="yes"/>
      <point x="264" y="536"/>
      <point x="259" y="524"/>
      <point x="249" y="515" type="curve" smooth="yes"/>
      <point x="235" y="504"/>
      <point x="216" y="500"/>
      <point x="174" y="500" type="curve" smooth="yes"/>
      <point x="87" y="500" type="line"/>
      <point x="87" y="429" type="line"/>
      <point x="162" y="429" type="line" smooth="yes"/>
      <point x="237" y="429"/>
      <point x="276" y="439"/>
      <point x="307" y="464" type="curve" smooth="yes"/>
      <point x="328" y="481"/>
      <point x="346" y="513"/>
      <point x="346" y="553" type="curve" smooth="yes"/>
      <point x="346" y="574"/>
      <point x="342" y="593"/>
      <point x="336" y="608" type="curve"/>
      <point x="561" y="608" type="line" smooth="yes"/>
      <point x="622" y="608"/>
      <point x="658" y="589"/>
      <point x="658" y="533" type="curve" smooth="yes"/>
      <point x="658" y="497"/>
      <point x="640" y="469"/>
      <point x="594" y="469" type="curve" smooth="yes"/>
      <point x="550" y="469"/>
      <point x="526" y="496"/>
      <point x="526" y="536" type="curve" smooth="yes"/>
      <point x="526" y="569"/>
      <point x="540" y="600"/>
      <point x="574" y="633" type="curve"/>
      <point x="486" y="626" type="line"/>
      <point x="467" y="598"/>
      <point x="453" y="569"/>
      <point x="453" y="527" type="curve" smooth="yes"/>
      <point x="453" y="469"/>
      <point x="490" y="403"/>
    </contour>
    <component base="otelu"/>
  </outline>
</glyph>
<glyph name="chatelu" format="2">
  <advance width="760"/>
  <unicode hex="0C1B"/>
  <outline>
    <contour>
      <point x="543" y="-12" type="curve" smooth="yes"/>
      <point x="646" y="-12"/>
      <point x="725" y="55"/>
      <point x="725" y="194" type="curve" smooth="yes"/>
      <point x="725" y="344"/>
      <point x="625" y="469"/>
      <point x="434" y="500" type="curve"/>
      <point x="397" y="426" type="line"/>
      <point x="514" y="419"/>
      <point x="642" y="340"/>
      <point x="642" y="192" type="curve" smooth="yes"/>
      <point x="642" y="89"/>
      <point x="591" y="67"/>
      <point x="535" y="67" type="curve" smooth="yes"/>
      <point x="482" y="67"/>
      <point x="429" y="103"/>
      <point x="423" y="185" type="curve"/>
      <point x="346" y="185" type="line"/>
      <point x="340" y="114"/>
      <point x="299" y="67"/>
      <point x="233" y="67" type="curve" smooth="yes"/>
      <point x="179" y="67"/>
      <point x="147" y="99"/>
      <point x="147" y="149" type="curve" smooth="yes"/>
      <point x="147" y="201"/>
      <point x="179" y="243"/>
      <point x="259" y="261" type="curve"/>
      <point x="259" y="332" type="line"/>
      <point x="25" y="332" type="line"/>
      <point x="25" y="258" type="line"/>
      <point x="139" y="258" type="line"/>
      <point x="151" y="274" type="line"/>
      <point x="92" y="245"/>
      <point x="66" y="189"/>
      <point x="66" y="144" type="curve" smooth="yes"/>
      <point x="66" y="51"/>
      <point x="131" y="-12"/>
      <point x="228" y="-12" type="curve" smooth="yes"/>
      <point x="297" y="-12"/>
      <point x="350" y="9"/>
      <point x="395" y="91" type="curve"/>
      <point x="375" y="89" type="line"/>
      <point x="421" y="16"/>
      <point x="460" y="-12"/>
    </contour>
    <contour>
      <point x="340" y="-125" type="line"/>
      <point x="430" y="-125" type="line"/>
      <point x="422" y="16" type="line"/>
      <point x="347" y="16" type="line"/>
    </contour>
    <component base="hattelu" xOffset="266"/>
  </outline>
</glyph>
<glyph name="nyatelu" format="2">
  <advance width="979"/>
  <unicode hex="0C1E"/>
  <outline>
    <contour>
      <point x="300" y="-12" type="curve" smooth="yes"/>
      <point x="416" y="-12"/>
      <point x="490" y="19"/>
      <point x="552" y="70" type="curve"/>
      <point x="559" y="76"/>
      <point x="565" y="77"/>
      <point x="571" y="83" type="curve"/>
      <point x="624" y="134"/>
      <point x="653" y="198"/>
      <point x="653" y="287" type="curve" smooth="yes"/>
      <point x="653" y="421"/>
      <point x="578" y="500"/>
      <point x="476" y="500" type="curve" smooth="yes"/>
      <point x="417" y="500"/>
      <point x="358" y="479"/>
      <point x="317" y="396" type="curve"/>
      <point x="335" y="398" type="line"/>
      <point x="299" y="470"/>
      <point x="254" y="500"/>
      <point x="181" y="500" type="curve" smooth="yes"/>
      <point x="97" y="500"/>
      <point x="29" y="450"/>
      <point x="29" y="372" type="curve" smooth="yes"/>
      <point x="29" y="333"/>
      <point x="39" y="305"/>
      <point x="50" y="283" type="curve"/>
      <point x="126" y="305" type="line"/>
      <point x="119" y="318"/>
      <point x="112" y="342"/>
      <point x="112" y="364" type="curve" smooth="yes"/>
      <point x="112" y="399"/>
      <point x="134" y="425"/>
      <point x="184" y="425" type="curve" smooth="yes"/>
      <point x="241" y="425"/>
      <point x="276" y="389"/>
      <point x="288" y="318" type="curve"/>
      <point x="366" y="318" type="line"/>
      <point x="376" y="375"/>
      <point x="410" y="421"/>
      <point x="469" y="421" type="curve" smooth="yes"/>
      <point x="527" y="421"/>
      <point x="571" y="383"/>
      <point x="571" y="286" type="curve" smooth="yes"/>
      <point x="571" y="228"/>
      <point x="555" y="181"/>
      <point x="523" y="146" type="curve"/>
      <point x="479" y="90"/>
      <point x="397" y="63"/>
      <point x="302" y="63" type="curve" smooth="yes"/>
      <point x="214" y="63"/>
      <point x="176" y="88"/>
      <point x="176" y="132" type="curve" smooth="yes"/>
      <point x="176" y="170"/>
      <point x="216" y="194"/>
      <point x="292" y="194" type="curve" smooth="yes"/>
      <point x="439" y="194"/>
      <point x="532" y="111"/>
      <point x="532" y="4" type="curve" smooth="yes"/>
      <point x="532" y="-32"/>
      <point x="527" y="-59"/>
      <point x="518" y="-82" type="curve"/>
      <point x="591" y="-97" type="line"/>
      <point x="604" y="-66"/>
      <point x="609" y="-33"/>
      <point x="609" y="0" type="curve" smooth="yes"/>
      <point x="609" y="49"/>
      <point x="594" y="91"/>
      <point x="567" y="132" type="curve"/>
      <point x="517" y="208"/>
      <point x="423" y="269"/>
      <point x="292" y="269" type="curve" smooth="yes"/>
      <point x="162" y="269"/>
      <point x="93" y="216"/>
      <point x="93" y="132" type="curve" smooth="yes"/>
      <point x="93" y="44"/>
      <point x="156" y="-12"/>
    </contour>
    <contour>
      <point x="586" y="285" type="line"/>
      <point x="948" y="285" type="line"/>
      <point x="948" y="357" type="line"/>
      <point x="593" y="357" type="line"/>
    </contour>
    <contour>
      <point x="828" y="500" type="line"/>
      <point x="735" y="500" type="line"/>
      <point x="742" y="349" type="line"/>
      <point x="821" y="349" type="line"/>
    </contour>
  </outline>
</glyph>
<glyph name="ttatelu" format="2">
  <advance width="772"/>
  <unicode hex="0C1F"/>
  <outline>
    <contour>
      <point x="555" y="-12" type="curve" smooth="yes"/>
      <point x="666" y="-12"/>
      <point x="737" y="64"/>
      <point x="737" y="199" type="curve" smooth="yes"/>
      <point x="737" y="340"/>
      <point x="638" y="447"/>
      <point x="515" y="500" type="curve"/>
      <point x="478" y="423" type="line"/>
      <point x="577" y="378"/>
      <point x="654" y="309"/>
      <point x="654" y="193" type="curve" smooth="yes"/>
      <point x="654" y="111"/>
      <point x="620" y="67"/>
      <point x="547" y="67" type="curve" smooth="yes"/>
      <point x="491" y="67"/>
      <point x="442" y="103"/>
      <point x="436" y="185" type="curve"/>
      <point x="358" y="185" type="line"/>
      <point x="352" y="114"/>
      <point x="315" y="67"/>
      <point x="238" y="67" type="curve" smooth="yes"/>
      <point x="145" y="67"/>
      <point x="118" y="152"/>
      <point x="118" y="234" type="curve" smooth="yes"/>
      <point x="118" y="242" type="line" smooth="yes"/>
      <point x="118" y="362"/>
      <point x="174" y="429"/>
      <point x="244" y="429" type="curve" smooth="yes"/>
      <point x="280" y="429"/>
      <point x="303" y="407"/>
      <point x="303" y="369" type="curve" smooth="yes"/>
      <point x="303" y="329"/>
      <point x="275" y="305"/>
      <point x="222" y="305" type="curve" smooth="yes"/>
      <point x="157" y="305"/>
      <point x="116" y="344"/>
      <point x="100" y="366" type="curve"/>
      <point x="76" y="304" type="line"/>
      <point x="102" y="273"/>
      <point x="160" y="235"/>
      <point x="227" y="235" type="curve" smooth="yes"/>
      <point x="334" y="235"/>
      <point x="382" y="292"/>
      <point x="382" y="373" type="curve" smooth="yes"/>
      <point x="382" y="451"/>
      <point x="331" y="500"/>
      <point x="245" y="500" type="curve" smooth="yes"/>
      <point x="144" y="500"/>
      <point x="39" y="417"/>
      <point x="39" y="232" type="curve" smooth="yes"/>
      <point x="39" y="87"/>
      <point x="109" y="-12"/>
      <point x="236" y="-12" type="curve" smooth="yes"/>
      <point x="304" y="-12"/>
      <point x="361" y="6"/>
      <point x="408" y="91" type="curve"/>
      <point x="387" y="90" type="line"/>
      <point x="431" y="13"/>
      <point x="480" y="-12"/>
    </contour>
    <contour>
      <point x="282" y="624" type="line"/>
      <point x="192" y="624" type="line"/>
      <point x="199" y="478" type="line"/>
      <point x="275" y="478" type="line"/>
    </contour>
  </outline>
</glyph>
<glyph name="nnatelu" format="2">
  <advance width="826"/>
  <unicode hex="0C23"/>
  <outline>
    <contour>
      <point x="587" y="-12" type="curve" smooth="yes"/>
      <point x="720" y="-12"/>
      <point x="791" y="79"/>
      <point x="791" y="236" type="curve" smooth="yes"/>
      <point x="791" y="386"/>
      <point x="712" y="500"/>
      <point x="577" y="500" type="curve" smooth="yes"/>
      <point x="499" y="500"/>
      <point x="446" y="461"/>
      <point x="411" y="396" type="curve"/>
      <point x="428" y="398" type="line"/>
      <point x="380" y="464"/>
      <point x="326" y="500"/>
      <point x="226" y="500" type="curve" smooth="yes"/>
      <point x="113" y="500"/>
      <point x="41" y="446"/>
      <point x="41" y="363" type="curve" smooth="yes"/>
      <point x="41" y="308"/>
      <point x="68" y="259"/>
      <point x="137" y="237" type="curve"/>
      <point x="138" y="249" type="line"/>
      <point x="64" y="230"/>
      <point x="33" y="181"/>
      <point x="33" y="122" type="curve" smooth="yes"/>
      <point x="33" y="47"/>
      <point x="85" y="-12"/>
      <point x="196" y="-12" type="curve" smooth="yes"/>
      <point x="281" y="-12"/>
      <point x="335" y="20"/>
      <point x="390" y="86" type="curve"/>
      <point x="323" y="136" type="line"/>
      <point x="284" y="83"/>
      <point x="248" y="63"/>
      <point x="202" y="63" type="curve" smooth="yes"/>
      <point x="141" y="63"/>
      <point x="118" y="93"/>
      <point x="118" y="131" type="curve" smooth="yes"/>
      <point x="118" y="155"/>
      <point x="125" y="172"/>
      <point x="139" y="184" type="curve" smooth="yes"/>
      <point x="158" y="200"/>
      <point x="190" y="206"/>
      <point x="245" y="206" type="curve" smooth="yes"/>
      <point x="302" y="206" type="line"/>
      <point x="302" y="281" type="line"/>
      <point x="259" y="281" type="line" smooth="yes"/>
      <point x="204" y="281"/>
      <point x="173" y="289"/>
      <point x="154" y="302" type="curve" smooth="yes"/>
      <point x="134" y="315"/>
      <point x="126" y="333"/>
      <point x="126" y="354" type="curve" smooth="yes"/>
      <point x="126" y="401"/>
      <point x="167" y="425"/>
      <point x="227" y="425" type="curve" smooth="yes"/>
      <point x="328" y="425"/>
      <point x="369" y="369"/>
      <point x="382" y="318" type="curve"/>
      <point x="459" y="318" type="line"/>
      <point x="468" y="373"/>
      <point x="505" y="421"/>
      <point x="574" y="421" type="curve" smooth="yes"/>
      <point x="657" y="421"/>
      <point x="708" y="345"/>
      <point x="708" y="239" type="curve" smooth="yes"/>
      <point x="708" y="226" type="line" smooth="yes"/>
      <point x="708" y="95"/>
      <point x="654" y="60"/>
      <point x="591" y="60" type="curve" smooth="yes"/>
      <point x="543" y="60"/>
      <point x="520" y="86"/>
      <point x="520" y="127" type="curve" smooth="yes"/>
      <point x="520" y="166"/>
      <point x="548" y="192"/>
      <point x="592" y="192" type="curve" smooth="yes"/>
      <point x="654" y="192"/>
      <point x="693" y="147"/>
      <point x="716" y="105" type="curve"/>
      <point x="753" y="170" type="line"/>
      <point x="717" y="220"/>
      <point x="674" y="262"/>
      <point x="588" y="262" type="curve" smooth="yes"/>
      <point x="485" y="262"/>
      <point x="438" y="200"/>
      <point x="438" y="124" type="curve" smooth="yes"/>
      <point x="438" y="43"/>
      <point x="490" y="-12"/>
    </contour>
  </outline>
</glyph>
<glyph name="tatelu" format="2">
  <advance width="778"/>
  <unicode hex="0C24"/>
  <outline>
    <contour>
      <point x="394" y="-12" type="curve" smooth="yes"/>
      <point x="637" y="-12"/>
      <point x="743" y="98"/>
      <point x="743" y="245" type="curve" smooth="yes"/>
      <point x="743" y="379"/>
      <point x="655" y="476"/>
      <point x="449" y="496" type="curve"/>
      <point x="429" y="428" type="line"/>
      <point x="472" y="428"/>
      <point x="556" y="418"/>
      <point x="596" y="399" type="curve"/>
      <point x="608" y="400" type="line"/>
      <point x="591" y="405"/>
      <point x="573" y="409"/>
      <point x="561" y="409" type="curve" smooth="yes"/>
      <point x="482" y="409"/>
      <point x="431" y="364"/>
      <point x="431" y="290" type="curve" smooth="yes"/>
      <point x="431" y="214"/>
      <point x="486" y="167"/>
      <point x="563" y="167" type="curve" smooth="yes"/>
      <point x="619" y="167"/>
      <point x="654" y="187"/>
      <point x="684" y="224" type="curve"/>
      <point x="668" y="314" type="line"/>
      <point x="658" y="268"/>
      <point x="628" y="237"/>
      <point x="576" y="237" type="curve" smooth="yes"/>
      <point x="530" y="237"/>
      <point x="510" y="263"/>
      <point x="510" y="293" type="curve" smooth="yes"/>
      <point x="510" y="336"/>
      <point x="542" y="354"/>
      <point x="576" y="354" type="curve" smooth="yes"/>
      <point x="623" y="354"/>
      <point x="656" y="326"/>
      <point x="668" y="290" type="curve"/>
      <point x="668" y="246" type="line" smooth="yes"/>
      <point x="668" y="169"/>
      <point x="611" y="67"/>
      <point x="389" y="67" type="curve" smooth="yes"/>
      <point x="222" y="67"/>
      <point x="108" y="126"/>
      <point x="108" y="241" type="curve" smooth="yes"/>
      <point x="108" y="246" type="line" smooth="yes"/>
      <point x="108" y="309"/>
      <point x="153" y="354"/>
      <point x="213" y="354" type="curve" smooth="yes"/>
      <point x="250" y="354"/>
      <point x="272" y="336"/>
      <point x="272" y="301" type="curve" smooth="yes"/>
      <point x="272" y="263"/>
      <point x="247" y="237"/>
      <point x="182" y="237" type="curve" smooth="yes"/>
      <point x="146" y="237"/>
      <point x="117" y="250"/>
      <point x="90" y="270" type="curve"/>
      <point x="83" y="199" type="line"/>
      <point x="113" y="181"/>
      <point x="149" y="167"/>
      <point x="194" y="167" type="curve" smooth="yes"/>
      <point x="294" y="167"/>
      <point x="352" y="220"/>
      <point x="352" y="301" type="curve" smooth="yes"/>
      <point x="352" y="375"/>
      <point x="302" y="425"/>
      <point x="218" y="425" type="curve" smooth="yes"/>
      <point x="112" y="425"/>
      <point x="36" y="349"/>
      <point x="36" y="237" type="curve" smooth="yes"/>
      <point x="36" y="94"/>
      <point x="152" y="-12"/>
    </contour>
    <component base="hattelu" xOffset="288"/>
  </outline>
</glyph>
<glyph name="natelu" format="2">
  <advance width="702"/>
  <unicode hex="0C28"/>
  <outline>
    <contour>
      <point x="472" y="-12" type="curve" smooth="yes"/>
      <point x="601" y="-12"/>
      <point x="667" y="70"/>
      <point x="667" y="194" type="curve" smooth="yes"/>
      <point x="667" y="363"/>
      <point x="539" y="486"/>
      <point x="316" y="500" type="curve"/>
      <point x="238" y="425" type="line"/>
      <point x="282" y="425" type="line" smooth="yes"/>
      <point x="452" y="425"/>
      <point x="584" y="344"/>
      <point x="584" y="194" type="curve" smooth="yes"/>
      <point x="584" y="112"/>
      <point x="547" y="67"/>
      <point x="478" y="67" type="curve" smooth="yes"/>
      <point x="418" y="67"/>
      <point x="387" y="96"/>
      <point x="328" y="175" type="curve" smooth="yes"/>
      <point x="275" y="244"/>
      <point x="242" y="286"/>
      <point x="165" y="286" type="curve" smooth="yes"/>
      <point x="85" y="286"/>
      <point x="29" y="224"/>
      <point x="29" y="143" type="curve" smooth="yes"/>
      <point x="29" y="82"/>
      <point x="48" y="34"/>
      <point x="78" y="-13" type="curve"/>
      <point x="159" y="14" type="line"/>
      <point x="127" y="57"/>
      <point x="111" y="96"/>
      <point x="111" y="143" type="curve" smooth="yes"/>
      <point x="111" y="181"/>
      <point x="133" y="209"/>
      <point x="164" y="209" type="curve" smooth="yes"/>
      <point x="197" y="209"/>
      <point x="213" y="190"/>
      <point x="256" y="133" type="curve" smooth="yes"/>
      <point x="330" y="34"/>
      <point x="377" y="-12"/>
    </contour>
    <component base="hattelu" xOffset="115"/>
  </outline>
</glyph>
<glyph name="batelu" format="2">
  <advance width="750"/>
  <unicode hex="0C2C"/>
  <outline>
    <contour>
      <point x="533" y="-12" type="curve" smooth="yes"/>
      <point x="644" y="-12"/>
      <point x="715" y="64"/>
      <point x="715" y="199" type="curve" smooth="yes"/>
      <point x="715" y="340"/>
      <point x="616" y="447"/>
      <point x="493" y="500" type="curve"/>
      <point x="456" y="423" type="line"/>
      <point x="555" y="378"/>
      <point x="632" y="309"/>
      <point x="632" y="193" type="curve" smooth="yes"/>
      <point x="632" y="111"/>
      <point x="598" y="67"/>
      <point x="525" y="67" type="curve" smooth="yes"/>
      <point x="469" y="67"/>
      <point x="420" y="103"/>
      <point x="414" y="185" type="curve"/>
      <point x="336" y="185" type="line"/>
      <point x="330" y="114"/>
      <point x="290" y="67"/>
      <point x="207" y="67" type="curve" smooth="yes"/>
      <point x="150" y="67"/>
      <point x="123" y="92"/>
      <point x="123" y="131" type="curve" smooth="yes"/>
      <point x="123" y="175"/>
      <point x="156" y="198"/>
      <point x="227" y="225" type="curve" smooth="yes"/>
      <point x="315" y="257"/>
      <point x="360" y="294"/>
      <point x="360" y="370" type="curve" smooth="yes"/>
      <point x="360" y="429"/>
      <point x="322" y="500"/>
      <point x="203" y="500" type="curve" smooth="yes"/>
      <point x="85" y="500"/>
      <point x="36" y="438"/>
      <point x="36" y="375" type="curve" smooth="yes"/>
      <point x="36" y="347"/>
      <point x="42" y="322"/>
      <point x="53" y="302" type="curve"/>
      <point x="128" y="323" type="line"/>
      <point x="124" y="332"/>
      <point x="118" y="347"/>
      <point x="118" y="365" type="curve" smooth="yes"/>
      <point x="118" y="404"/>
      <point x="146" y="427"/>
      <point x="203" y="427" type="curve" smooth="yes"/>
      <point x="259" y="427"/>
      <point x="278" y="402"/>
      <point x="278" y="371" type="curve" smooth="yes"/>
      <point x="278" y="327"/>
      <point x="244" y="309"/>
      <point x="189" y="289" type="curve" smooth="yes"/>
      <point x="91" y="254"/>
      <point x="41" y="211"/>
      <point x="41" y="130" type="curve" smooth="yes"/>
      <point x="41" y="54"/>
      <point x="94" y="-12"/>
      <point x="205" y="-12" type="curve" smooth="yes"/>
      <point x="283" y="-12"/>
      <point x="333" y="8"/>
      <point x="386" y="90" type="curve"/>
      <point x="365" y="90" type="line"/>
      <point x="409" y="13"/>
      <point x="458" y="-12"/>
    </contour>
  </outline>
</glyph>
<glyph name="yatelu" format="2">
  <advance width="1286"/>
  <unicode hex="0C2F"/>
  <outline>
    <contour>
      <point x="35" y="236" type="curve" smooth="yes"/>
      <point x="35" y="86"/>
      <point x="138" y="-12"/>
      <point x="296" y="-12" type="curve" smooth="yes"/>
      <point x="456" y="-12"/>
      <point x="558" y="88"/>
      <point x="558" y="237" type="curve" smooth="yes"/>
      <point x="558" y="396"/>
      <point x="453" y="500"/>
      <point x="296" y="500" type="curve" smooth="yes"/>
      <point x="140" y="500"/>
      <point x="35" y="392"/>
    </contour>
    <contour>
      <point x="118" y="245" type="curve" smooth="yes"/>
      <point x="118" y="339"/>
      <point x="174" y="421"/>
      <point x="296" y="421" type="curve" smooth="yes"/>
      <point x="417" y="421"/>
      <point x="475" y="340"/>
      <point x="475" y="240" type="curve" smooth="yes"/>
      <point x="475" y="139"/>
      <point x="415" y="67"/>
      <point x="296" y="67" type="curve" smooth="yes"/>
      <point x="178" y="67"/>
      <point x="118" y="141"/>
    </contour>
    <contour>
      <point x="709" y="-12" type="curve" smooth="yes"/>
      <point x="836" y="-12"/>
      <point x="904" y="67"/>
      <point x="904" y="199" type="curve" smooth="yes"/>
      <point x="904" y="333"/>
      <point x="802" y="439"/>
      <point x="679" y="492" type="curve"/>
      <point x="642" y="426" type="line"/>
      <point x="744" y="380"/>
      <point x="821" y="309"/>
      <point x="821" y="193" type="curve" smooth="yes"/>
      <point x="821" y="112"/>
      <point x="784" y="67"/>
      <point x="716" y="67" type="curve" smooth="yes"/>
      <point x="651" y="67"/>
      <point x="598" y="102"/>
      <point x="542" y="176" type="curve"/>
      <point x="502" y="111" type="line"/>
      <point x="554" y="38"/>
      <point x="620" y="-12"/>
    </contour>
    <contour>
      <point x="1056" y="-12" type="curve" smooth="yes"/>
      <point x="1183" y="-12"/>
      <point x="1251" y="67"/>
      <point x="1251" y="199" type="curve" smooth="yes"/>
      <point x="1251" y="340"/>
      <point x="1152" y="447"/>
      <point x="1029" y="500" type="curve"/>
      <point x="992" y="423" type="line"/>
      <point x="1091" y="378"/>
      <point x="1168" y="309"/>
      <point x="1168" y="193" type="curve" smooth="yes"/>
      <point x="1168" y="112"/>
      <point x="1131" y="67"/>
      <point x="1063" y="67" type="curve" smooth="yes"/>
      <point x="998" y="67"/>
      <point x="945" y="102"/>
      <point x="889" y="176" type="curve"/>
      <point x="849" y="111" type="line"/>
      <point x="901" y="38"/>
      <point x="967" y="-12"/>
    </contour>
    <component base="hattelu" xOffset="514"/>
  </outline>
</glyph>
<glyph name="rratelu" format="2">
  <advance width="822"/>
  <unicode hex="0C31"/>
  <outline>
    <contour>
      <point x="570" y="-12" type="curve" smooth="yes"/>
      <point x="695" y="-12"/>
      <point x="785" y="86"/>
      <point x="785" y="255" type="curve" smooth="yes"/>
      <point x="785" y="401"/>
      <point x="712" y="500"/>
      <point x="601" y="500" type="curve" smooth="yes"/>
      <point x="501" y="500"/>
      <point x="460" y="438"/>
      <point x="460" y="381" type="curve" smooth="yes"/>
      <point x="460" y="328"/>
      <point x="483" y="298"/>
      <point x="525" y="272" type="curve"/>
      <point x="534" y="281" type="line"/>
      <point x="291" y="281" type="line"/>
      <point x="291" y="207" type="line"/>
      <point x="632" y="207" type="line"/>
      <point x="632" y="279" type="line"/>
      <point x="574" y="290"/>
      <point x="539" y="317"/>
      <point x="539" y="365" type="curve" smooth="yes"/>
      <point x="539" y="407"/>
      <point x="570" y="425"/>
      <point x="600" y="425" type="curve" smooth="yes"/>
      <point x="671" y="425"/>
      <point x="703" y="348"/>
      <point x="703" y="253" type="curve" smooth="yes"/>
      <point x="703" y="140"/>
      <point x="653" y="67"/>
      <point x="569" y="67" type="curve" smooth="yes"/>
      <point x="503" y="67"/>
      <point x="465" y="103"/>
      <point x="451" y="169" type="curve"/>
      <point x="374" y="169" type="line"/>
      <point x="360" y="109"/>
      <point x="329" y="67"/>
      <point x="251" y="67" type="curve" smooth="yes"/>
      <point x="147" y="67"/>
      <point x="115" y="162"/>
      <point x="115" y="249" type="curve" smooth="yes"/>
      <point x="115" y="261" type="line" smooth="yes"/>
      <point x="115" y="368"/>
      <point x="158" y="429"/>
      <point x="221" y="429" type="curve" smooth="yes"/>
      <point x="255" y="429"/>
      <point x="279" y="407"/>
      <point x="279" y="369" type="curve" smooth="yes"/>
      <point x="279" y="329"/>
      <point x="251" y="305"/>
      <point x="198" y="305" type="curve" smooth="yes"/>
      <point x="133" y="305"/>
      <point x="99" y="344"/>
      <point x="83" y="366" type="curve"/>
      <point x="59" y="304" type="line"/>
      <point x="85" y="273"/>
      <point x="136" y="235"/>
      <point x="203" y="235" type="curve" smooth="yes"/>
      <point x="311" y="235"/>
      <point x="358" y="292"/>
      <point x="358" y="373" type="curve" smooth="yes"/>
      <point x="358" y="451"/>
      <point x="306" y="500"/>
      <point x="226" y="500" type="curve" smooth="yes"/>
      <point x="121" y="500"/>
      <point x="37" y="414"/>
      <point x="37" y="250" type="curve" smooth="yes"/>
      <point x="37" y="101"/>
      <point x="106" y="-12"/>
      <point x="254" y="-12" type="curve" smooth="yes"/>
      <point x="323" y="-12"/>
      <point x="378" y="4"/>
      <point x="421" y="91" type="curve"/>
      <point x="403" y="88" type="line"/>
      <point x="444" y="15"/>
      <point x="488" y="-12"/>
    </contour>
  </outline>
</glyph>
<glyph name="latelu" format="2">
  <advance width="709"/>
  <unicode hex="0C32"/>
  <outline>
    <contour>
      <point x="356" y="-12" type="curve" smooth="yes"/>
      <point x="578" y="-12"/>
      <point x="674" y="101"/>
      <point x="674" y="250" type="curve" smooth="yes"/>
      <point x="674" y="365"/>
      <point x="607" y="452"/>
      <point x="497" y="500" type="curve"/>
      <point x="457" y="423" type="line"/>
      <point x="549" y="386"/>
      <point x="591" y="322"/>
      <point x="591" y="245" type="curve" smooth="yes"/>
      <point x="591" y="130"/>
      <point x="500" y="67"/>
      <point x="353" y="67" type="curve" smooth="yes"/>
      <point x="189" y="67"/>
      <point x="114" y="160"/>
      <point x="114" y="266" type="curve" smooth="yes"/>
      <point x="114" y="284" type="line" smooth="yes"/>
      <point x="114" y="373"/>
      <point x="156" y="429"/>
      <point x="220" y="429" type="curve" smooth="yes"/>
      <point x="254" y="429"/>
      <point x="278" y="407"/>
      <point x="278" y="369" type="curve" smooth="yes"/>
      <point x="278" y="329"/>
      <point x="250" y="305"/>
      <point x="196" y="305" type="curve" smooth="yes"/>
      <point x="132" y="305"/>
      <point x="97" y="344"/>
      <point x="81" y="366" type="curve"/>
      <point x="58" y="304" type="line"/>
      <point x="83" y="273"/>
      <point x="135" y="235"/>
      <point x="201" y="235" type="curve" smooth="yes"/>
      <point x="307" y="235"/>
      <point x="357" y="292"/>
      <point x="357" y="373" type="curve" smooth="yes"/>
      <point x="357" y="451"/>
      <point x="304" y="500"/>
      <point x="225" y="500" type="curve" smooth="yes"/>
      <point x="119" y="500"/>
      <point x="35" y="417"/>
      <point x="35" y="269" type="curve" smooth="yes"/>
      <point x="35" y="105"/>
      <point x="146" y="-12"/>
    </contour>
  </outline>
</glyph>
<glyph name="lllatelu" format="2">
  <advance width="812"/>
  <unicode hex="0C34"/>
  <outline>
    <contour>
      <point x="572" y="-12" type="curve" smooth="yes"/>
      <point x="707" y="-12"/>
      <point x="773" y="92"/>
      <point x="773" y="232" type="curve" smooth="yes"/>
      <point x="773" y="417"/>
      <point x="668" y="500"/>
      <point x="567" y="500" type="curve" smooth="yes"/>
      <point x="481" y="500"/>
      <point x="430" y="451"/>
      <point x="430" y="373" type="curve" smooth="yes"/>
      <point x="430" y="292"/>
      <point x="478" y="235"/>
      <point x="585" y="235" type="curve" smooth="yes"/>
      <point x="652" y="235"/>
      <point x="710" y="273"/>
      <point x="736" y="304" type="curve"/>
      <point x="712" y="366" type="line"/>
      <point x="696" y="344"/>
      <point x="655" y="305"/>
      <point x="590" y="305" type="curve" smooth="yes"/>
      <point x="537" y="305"/>
      <point x="509" y="329"/>
      <point x="509" y="369" type="curve" smooth="yes"/>
      <point x="509" y="407"/>
      <point x="532" y="429"/>
      <point x="568" y="429" type="curve" smooth="yes"/>
      <point x="638" y="429"/>
      <point x="694" y="362"/>
      <point x="694" y="242" type="curve" smooth="yes"/>
      <point x="694" y="234" type="line" smooth="yes"/>
      <point x="694" y="152"/>
      <point x="672" y="67"/>
      <point x="569" y="67" type="curve" smooth="yes"/>
      <point x="486" y="67"/>
      <point x="451" y="116"/>
      <point x="445" y="185" type="curve"/>
      <point x="367" y="185" type="line"/>
      <point x="359" y="112"/>
      <point x="325" y="67"/>
      <point x="243" y="67" type="curve" smooth="yes"/>
      <point x="142" y="67"/>
      <point x="118" y="152"/>
      <point x="118" y="234" type="curve" smooth="yes"/>
      <point x="118" y="242" type="line" smooth="yes"/>
      <point x="118" y="362"/>
      <point x="174" y="429"/>
      <point x="244" y="429" type="curve" smooth="yes"/>
      <point x="280" y="429"/>
      <point x="303" y="407"/>
      <point x="303" y="369" type="curve" smooth="yes"/>
      <point x="303" y="329"/>
      <point x="275" y="305"/>
      <point x="222" y="305" type="curve" smooth="yes"/>
      <point x="157" y="305"/>
      <point x="116" y="344"/>
      <point x="100" y="366" type="curve"/>
      <point x="76" y="304" type="line"/>
      <point x="102" y="273"/>
      <point x="160" y="235"/>
      <point x="227" y="235" type="curve" smooth="yes"/>
      <point x="334" y="235"/>
      <point x="382" y="292"/>
      <point x="382" y="373" type="curve" smooth="yes"/>
      <point x="382" y="451"/>
      <point x="331" y="500"/>
      <point x="245" y="500" type="curve" smooth="yes"/>
      <point x="144" y="500"/>
      <point x="39" y="417"/>
      <point x="39" y="232" type="curve" smooth="yes"/>
      <point x="39" y="91"/>
      <point x="105" y="-12"/>
      <point x="243" y="-12" type="curve" smooth="yes"/>
      <point x="314" y="-12"/>
      <point x="370" y="6"/>
      <point x="416" y="91" type="curve"/>
      <point x="396" y="91" type="line"/>
      <point x="442" y="6"/>
      <point x="499" y="-12"/>
    </contour>
  </outline>
</glyph>
<glyph name="avagrahatelu" format="2">
  <advance width="590"/>
  <unicode hex="0C3D"/>
  <outline>
    <contour>
      <point x="203" y="500" type="curve" smooth="yes"/>
      <point x="85" y="500"/>
      <point x="36" y="438"/>
      <point x="36" y="375" type="curve" smooth="yes"/>
      <point x="36" y="347"/>
      <point x="42" y="322"/>
      <point x="53" y="302" type="curve"/>
      <point x="128" y="323" type="line"/>
      <point x="124" y="332"/>
      <point x="118" y="347"/>
      <point x="118" y="365" type="curve" smooth="yes"/>
      <point x="118" y="404"/>
      <point x="146" y="427"/>
      <point x="203" y="427" type="curve" smooth="yes"/>
      <point x="259" y="427"/>
      <point x="278" y="402"/>
      <point x="278" y="371" type="curve" smooth="yes"/>
      <point x="278" y="327"/>
      <point x="244" y="310"/>
      <point x="189" y="289" type="curve" smooth="yes"/>
      <point x="86" y="250"/>
      <point x="41" y="211"/>
      <point x="41" y="130" type="curve" smooth="yes"/>
      <point x="41" y="98"/>
      <point x="49" y="72"/>
      <point x="65" y="51" type="curve" smooth="yes"/>
      <point x="90" y="18"/>
      <point x="131" y="0"/>
      <point x="231" y="0" type="curve" smooth="yes"/>
      <point x="575" y="0" type="line"/>
      <point x="575" y="79" type="line"/>
      <point x="227" y="79" type="line" smooth="yes"/>
      <point x="178" y="79"/>
      <point x="159" y="82"/>
      <point x="145" y="91" type="curve" smooth="yes"/>
      <point x="132" y="100"/>
      <point x="123" y="113"/>
      <point x="123" y="137" type="curve" smooth="yes"/>
      <point x="123" y="176"/>
      <point x="148" y="195"/>
      <point x="227" y="225" type="curve" smooth="yes"/>
      <point x="315" y="258"/>
      <point x="360" y="294"/>
      <point x="360" y="370" type="curve" smooth="yes"/>
      <point x="360" y="429"/>
      <point x="322" y="500"/>
    </contour>
  </outline>
</glyph>
<glyph name="aavowelsigntelu" format="2">
  <advance width="260"/>
  <unicode hex="0C3E"/>
  <outline>
    <contour>
      <point x="104" y="220" type="curve" smooth="yes"/>
      <point x="190" y="220"/>
      <point x="245" y="269"/>
      <point x="245" y="353" type="curve" smooth="yes"/>
      <point x="245" y="403"/>
      <point x="226" y="440"/>
      <point x="198" y="462" type="curve" smooth="yes"/>
      <point x="162" y="491"/>
      <point x="119" y="500"/>
      <point x="33" y="500" type="curve" smooth="yes"/>
      <point x="-546" y="500" type="line"/>
      <point x="-546" y="425" type="line"/>
      <point x="75" y="425" type="line" smooth="yes"/>
      <point x="136" y="425"/>
      <point x="172" y="406"/>
      <point x="172" y="350" type="curve" smooth="yes"/>
      <point x="172" y="314"/>
      <point x="154" y="286"/>
      <point x="108" y="286" type="curve" smooth="yes"/>
      <point x="64" y="286"/>
      <point x="40" y="313"/>
      <point x="40" y="353" type="curve" smooth="yes"/>
      <point x="40" y="386"/>
      <point x="54" y="417"/>
      <point x="88" y="450" type="curve"/>
      <point x="0" y="443" type="line"/>
      <point x="-19" y="415"/>
      <point x="-33" y="386"/>
      <point x="-33" y="344" type="curve" smooth="yes"/>
      <point x="-33" y="287"/>
      <point x="4" y="220"/>
    </contour>
  </outline>
</glyph>
<glyph name="ivowelsigntelu" format="2">
  <unicode hex="0C3F"/>
  <outline>
    <contour>
      <point x="-278" y="432" type="curve" smooth="yes"/>
      <point x="-178" y="432"/>
      <point x="-108" y="477"/>
      <point x="-108" y="595" type="curve" smooth="yes"/>
      <point x="-108" y="693"/>
      <point x="-173" y="773"/>
      <point x="-280" y="773" type="curve" smooth="yes"/>
      <point x="-364" y="773"/>
      <point x="-416" y="727"/>
      <point x="-416" y="659" type="curve" smooth="yes"/>
      <point x="-416" y="584"/>
      <point x="-354" y="555"/>
      <point x="-286" y="555" type="curve" smooth="yes"/>
      <point x="-202" y="555"/>
      <point x="-163" y="606"/>
      <point x="-138" y="646" type="curve"/>
      <point x="-173" y="690" type="line"/>
      <point x="-203" y="647"/>
      <point x="-230" y="618"/>
      <point x="-289" y="618" type="curve" smooth="yes"/>
      <point x="-310" y="618"/>
      <point x="-345" y="624"/>
      <point x="-345" y="662" type="curve" smooth="yes"/>
      <point x="-345" y="690"/>
      <point x="-322" y="708"/>
      <point x="-280" y="708" type="curve" smooth="yes"/>
      <point x="-223" y="708"/>
      <point x="-178" y="660"/>
      <point x="-178" y="600" type="curve" smooth="yes"/>
      <point x="-178" y="595" type="line" smooth="yes"/>
      <point x="-178" y="517"/>
      <point x="-225" y="501"/>
      <point x="-282" y="501" type="curve" smooth="yes"/>
      <point x="-322" y="501"/>
      <point x="-353" y="511"/>
      <point x="-380" y="522" type="curve"/>
      <point x="-407" y="458" type="line"/>
      <point x="-367" y="444"/>
      <point x="-326" y="432"/>
    </contour>
  </outline>
</glyph>
<glyph name="iivowelsigntelu" format="2">
  <unicode hex="0C40"/>
  <outline>
    <contour>
      <point x="-278" y="432" type="curve" smooth="yes"/>
      <point x="-168" y="432"/>
      <point x="-108" y="487"/>
      <point x="-108" y="583" type="curve" smooth="yes"/>
      <point x="-108" y="678"/>
      <point x="-163" y="747"/>
      <point x="-278" y="747" type="curve" smooth="yes"/>
      <point x="-362" y="747"/>
      <point x="-416" y="704"/>
      <point x="-416" y="643" type="curve" smooth="yes"/>
      <point x="-416" y="579"/>
      <point x="-369" y="550"/>
      <point x="-289" y="550" type="curve" smooth="yes"/>
      <point x="-212" y="550"/>
      <point x="-175" y="589"/>
      <point x="-149" y="618" type="curve"/>
      <point x="-173" y="675" type="line"/>
      <point x="-205" y="640"/>
      <point x="-235" y="608"/>
      <point x="-285" y="608" type="curve" smooth="yes"/>
      <point x="-317" y="608"/>
      <point x="-345" y="618"/>
      <point x="-345" y="648" type="curve" smooth="yes"/>
      <point x="-345" y="674"/>
      <point x="-318" y="686"/>
      <point x="-284" y="686" type="curve" smooth="yes"/>
      <point x="-222" y="686"/>
      <point x="-179" y="646"/>
      <point x="-179" y="594" type="curve" smooth="yes"/>
      <point x="-179" y="587" type="line" smooth="yes"/>
      <point x="-179" y="517"/>
      <point x="-225" y="501"/>
      <point x="-282" y="501" type="curve" smooth="yes"/>
      <point x="-322" y="501"/>
      <point x="-354" y="511"/>
      <point x="-380" y="522" type="curve"/>
      <point x="-407" y="458" type="line"/>
      <point x="-368" y="443"/>
      <point x="-326" y="432"/>
    </contour>
    <contour>
      <point x="-247" y="869" type="curve" smooth="yes"/>
      <point x="-331" y="869"/>
      <point x="-388" y="827"/>
      <point x="-388" y="757" type="curve" smooth="yes"/>
      <point x="-388" y="727"/>
      <point x="-378" y="699"/>
      <point x="-360" y="676" type="curve"/>
      <point x="-297" y="704" type="line"/>
      <point x="-312" y="719"/>
      <point x="-317" y="734"/>
      <point x="-317" y="750" type="curve" smooth="yes"/>
      <point x="-317" y="786"/>
      <point x="-289" y="804"/>
      <point x="-247" y="804" type="curve" smooth="yes"/>
      <point x="-210" y="804"/>
      <point x="-186" y="787"/>
      <point x="-175" y="757" type="curve"/>
      <point x="-99" y="777" type="line"/>
      <point x="-123" y="835"/>
      <point x="-166" y="869"/>
    </contour>
  </outline>
</glyph>
<glyph name="uvowelsigntelu" format="2">
  <advance width="346"/>
  <unicode hex="0C41"/>
  <outline>
    <contour>
      <point x="116" y="-12" type="curve" smooth="yes"/>
      <point x="243" y="-12"/>
      <point x="311" y="67"/>
      <point x="311" y="199" type="curve" smooth="yes"/>
      <point x="311" y="340"/>
      <point x="212" y="447"/>
      <point x="89" y="500" type="curve"/>
      <point x="52" y="423" type="line"/>
      <point x="151" y="378"/>
      <point x="228" y="309"/>
      <point x="228" y="193" type="curve" smooth="yes"/>
      <point x="228" y="112"/>
      <point x="191" y="67"/>
      <point x="123" y="67" type="curve" smooth="yes"/>
      <point x="58" y="67"/>
      <point x="5" y="102"/>
      <point x="-51" y="176" type="curve"/>
      <point x="-91" y="111" type="line"/>
      <point x="-39" y="38"/>
      <point x="27" y="-12"/>
    </contour>
  </outline>
</glyph>
<glyph name="uuvowelsigntelu" format="2">
  <advance width="668"/>
  <unicode hex="0C42"/>
  <outline>
    <contour>
      <point x="116" y="-12" type="curve" smooth="yes"/>
      <point x="243" y="-12"/>
      <point x="311" y="67"/>
      <point x="311" y="194" type="curve" smooth="yes"/>
      <point x="311" y="306"/>
      <point x="243" y="395"/>
      <point x="158" y="446" type="curve"/>
      <point x="138" y="471" type="line"/>
      <point x="125" y="481"/>
      <point x="102" y="495"/>
      <point x="89" y="500" type="curve"/>
      <point x="53" y="425" type="line"/>
      <point x="149" y="376"/>
      <point x="228" y="299"/>
      <point x="228" y="189" type="curve" smooth="yes"/>
      <point x="228" y="112"/>
      <point x="191" y="67"/>
      <point x="121" y="67" type="curve" smooth="yes"/>
      <point x="55" y="67"/>
      <point x="5" y="102"/>
      <point x="-51" y="176" type="curve"/>
      <point x="-91" y="111" type="line"/>
      <point x="-39" y="38"/>
      <point x="27" y="-12"/>
    </contour>
    <contour>
      <point x="512" y="220" type="curve" smooth="yes"/>
      <point x="598" y="220"/>
      <point x="653" y="269"/>
      <point x="653" y="353" type="curve" smooth="yes"/>
      <point x="653" y="403"/>
      <point x="634" y="440"/>
      <point x="606" y="462" type="curve" smooth="yes"/>
      <point x="570" y="491"/>
      <point x="527" y="500"/>
      <point x="441" y="500" type="curve" smooth="yes"/>
      <point x="89" y="500" type="line"/>
      <point x="79" y="425" type="line"/>
      <point x="483" y="425" type="line" smooth="yes"/>
      <point x="544" y="425"/>
      <point x="580" y="406"/>
      <point x="580" y="350" type="curve" smooth="yes"/>
      <point x="580" y="314"/>
      <point x="562" y="286"/>
      <point x="516" y="286" type="curve" smooth="yes"/>
      <point x="472" y="286"/>
      <point x="448" y="313"/>
      <point x="448" y="353" type="curve" smooth="yes"/>
      <point x="448" y="386"/>
      <point x="462" y="417"/>
      <point x="496" y="450" type="curve"/>
      <point x="408" y="443" type="line"/>
      <point x="389" y="415"/>
      <point x="375" y="386"/>
      <point x="375" y="344" type="curve" smooth="yes"/>
      <point x="375" y="287"/>
      <point x="412" y="220"/>
    </contour>
  </outline>
</glyph>
<glyph name="rvocalicvowelsigntelu" format="2">
  <advance width="400"/>
  <unicode hex="0C43"/>
  <outline>
    <contour>
      <point x="97" y="-386" type="curve" smooth="yes"/>
      <point x="267" y="-386"/>
      <point x="398" y="-296"/>
      <point x="398" y="-84" type="curve" smooth="yes"/>
      <point x="398" y="178"/>
      <point x="194" y="398"/>
      <point x="18" y="500" type="curve"/>
      <point x="-23" y="430" type="line"/>
      <point x="163" y="322"/>
      <point x="319" y="123"/>
      <point x="319" y="-83" type="curve" smooth="yes"/>
      <point x="319" y="-274"/>
      <point x="203" y="-315"/>
      <point x="102" y="-315" type="curve" smooth="yes"/>
      <point x="-5" y="-315"/>
      <point x="-59" y="-268"/>
      <point x="-59" y="-188" type="curve" smooth="yes"/>
      <point x="-59" y="-183" type="line"/>
      <point x="-59" y="-122"/>
      <point x="-24" y="-79"/>
      <point x="31" y="-79" type="curve" smooth="yes"/>
      <point x="66" y="-79"/>
      <point x="88" y="-101"/>
      <point x="88" y="-135" type="curve" smooth="yes"/>
      <point x="88" y="-171"/>
      <point x="60" y="-192"/>
      <point x="8" y="-192" type="curve" smooth="yes"/>
      <point x="-28" y="-192"/>
      <point x="-54" y="-182"/>
      <point x="-84" y="-157" type="curve"/>
      <point x="-75" y="-230" type="line"/>
      <point x="-46" y="-247"/>
      <point x="-15" y="-256"/>
      <point x="13" y="-256" type="curve" smooth="yes"/>
      <point x="114" y="-256"/>
      <point x="161" y="-208"/>
      <point x="161" y="-131" type="curve" smooth="yes"/>
      <point x="161" y="-71"/>
      <point x="121" y="-15"/>
      <point x="32" y="-15" type="curve" smooth="yes"/>
      <point x="-59" y="-15"/>
      <point x="-130" y="-81"/>
      <point x="-130" y="-186" type="curve" smooth="yes"/>
      <point x="-130" y="-301"/>
      <point x="-45" y="-386"/>
    </contour>
  </outline>
</glyph>
<glyph name="rrvocalicvowelsigntelu" format="2">
  <advance width="656"/>
  <unicode hex="0C44"/>
  <outline>
    <contour>
      <point x="95" y="-386" type="curve" smooth="yes"/>
      <point x="265" y="-386"/>
      <point x="398" y="-296"/>
      <point x="398" y="-84" type="curve" smooth="yes"/>
      <point x="398" y="148"/>
      <point x="236" y="349"/>
      <point x="73" y="447" type="curve"/>
      <point x="66" y="468" type="line"/>
      <point x="55" y="475"/>
      <point x="35" y="493"/>
      <point x="24" y="500" type="curve"/>
      <point x="-5" y="419" type="line"/>
      <point x="164" y="312"/>
      <point x="319" y="124"/>
      <point x="319" y="-83" type="curve" smooth="yes"/>
      <point x="319" y="-274"/>
      <point x="201" y="-315"/>
      <point x="100" y="-315" type="curve" smooth="yes"/>
      <point x="-7" y="-315"/>
      <point x="-59" y="-268"/>
      <point x="-59" y="-188" type="curve" smooth="yes"/>
      <point x="-59" y="-183" type="line" smooth="yes"/>
      <point x="-59" y="-122"/>
      <point x="-24" y="-79"/>
      <point x="31" y="-79" type="curve" smooth="yes"/>
      <point x="66" y="-79"/>
      <point x="88" y="-100"/>
      <point x="88" y="-135" type="curve" smooth="yes"/>
      <point x="88" y="-171"/>
      <point x="60" y="-192"/>
      <point x="8" y="-192" type="curve" smooth="yes"/>
      <point x="-28" y="-192"/>
      <point x="-54" y="-182"/>
      <point x="-84" y="-157" type="curve"/>
      <point x="-75" y="-230" type="line"/>
      <point x="-48" y="-247"/>
      <point x="-15" y="-256"/>
      <point x="13" y="-256" type="curve" smooth="yes"/>
      <point x="114" y="-256"/>
      <point x="161" y="-208"/>
      <point x="161" y="-131" type="curve" smooth="yes"/>
      <point x="161" y="-71"/>
      <point x="121" y="-15"/>
      <point x="32" y="-15" type="curve" smooth="yes"/>
      <point x="-59" y="-15"/>
      <point x="-130" y="-81"/>
      <point x="-130" y="-186" type="curve" smooth="yes"/>
      <point x="-130" y="-301"/>
      <point x="-47" y="-386"/>
    </contour>
    <contour>
      <point x="501" y="220" type="curve" smooth="yes"/>
      <point x="587" y="220"/>
      <point x="642" y="269"/>
      <point x="642" y="353" type="curve" smooth="yes"/>
      <point x="642" y="403"/>
      <point x="623" y="440"/>
      <point x="595" y="462" type="curve" smooth="yes"/>
      <point x="559" y="491"/>
      <point x="516" y="500"/>
      <point x="430" y="500" type="curve" smooth="yes"/>
      <point x="24" y="500" type="line"/>
      <point x="8" y="433" type="line"/>
      <point x="67" y="428"/>
      <point x="145" y="425"/>
      <point x="193" y="425" type="curve" smooth="yes"/>
      <point x="472" y="425" type="line" smooth="yes"/>
      <point x="533" y="425"/>
      <point x="569" y="407"/>
      <point x="569" y="350" type="curve" smooth="yes"/>
      <point x="569" y="314"/>
      <point x="551" y="286"/>
      <point x="505" y="286" type="curve" smooth="yes"/>
      <point x="461" y="286"/>
      <point x="437" y="313"/>
      <point x="437" y="353" type="curve" smooth="yes"/>
      <point x="437" y="385"/>
      <point x="451" y="417"/>
      <point x="485" y="450" type="curve"/>
      <point x="397" y="443" type="line"/>
      <point x="378" y="415"/>
      <point x="364" y="385"/>
      <point x="364" y="344" type="curve" smooth="yes"/>
      <point x="364" y="287"/>
      <point x="401" y="220"/>
    </contour>
  </outline>
</glyph>
<glyph name="evowelsigntelu" format="2">
  <unicode hex="0C46"/>
  <outline>
    <contour>
      <point x="-32" y="553" type="curve" smooth="yes"/>
      <point x="-32" y="598"/>
      <point x="-47" y="627"/>
      <point x="-70" y="647" type="curve" smooth="yes"/>
      <point x="-101" y="673"/>
      <point x="-138" y="683"/>
      <point x="-211" y="683" type="curve" smooth="yes"/>
      <point x="-549" y="683" type="line"/>
      <point x="-549" y="608" type="line"/>
      <point x="-205" y="608" type="line" smooth="yes"/>
      <point x="-158" y="608"/>
      <point x="-143" y="603"/>
      <point x="-130" y="592" type="curve" smooth="yes"/>
      <point x="-119" y="583"/>
      <point x="-114" y="569"/>
      <point x="-114" y="552" type="curve" smooth="yes"/>
      <point x="-114" y="536"/>
      <point x="-119" y="524"/>
      <point x="-129" y="515" type="curve" smooth="yes"/>
      <point x="-143" y="504"/>
      <point x="-162" y="500"/>
      <point x="-204" y="500" type="curve" smooth="yes"/>
      <point x="-271" y="500" type="line"/>
      <point x="-271" y="425" type="line"/>
      <point x="-216" y="425" type="line" smooth="yes"/>
      <point x="-140" y="425"/>
      <point x="-102" y="435"/>
      <point x="-71" y="460" type="curve" smooth="yes"/>
      <point x="-50" y="477"/>
      <point x="-32" y="509"/>
    </contour>
  </outline>
</glyph>
<glyph name="eevowelsigntelu" format="2">
  <unicode hex="0C47"/>
  <outline>
    <contour>
      <point x="-32" y="553" type="curve" smooth="yes"/>
      <point x="-32" y="598"/>
      <point x="-47" y="627"/>
      <point x="-70" y="647" type="curve" smooth="yes"/>
      <point x="-101" y="673"/>
      <point x="-138" y="683"/>
      <point x="-211" y="683" type="curve" smooth="yes"/>
      <point x="-549" y="683" type="line"/>
      <point x="-549" y="608" type="line"/>
      <point x="-205" y="608" type="line" smooth="yes"/>
      <point x="-158" y="608"/>
      <point x="-143" y="603"/>
      <point x="-130" y="592" type="curve" smooth="yes"/>
      <point x="-119" y="583"/>
      <point x="-114" y="569"/>
      <point x="-114" y="552" type="curve" smooth="yes"/>
      <point x="-114" y="536"/>
      <point x="-119" y="524"/>
      <point x="-129" y="515" type="curve" smooth="yes"/>
      <point x="-143" y="504"/>
      <point x="-162" y="500"/>
      <point x="-204" y="500" type="curve" smooth="yes"/>
      <point x="-271" y="500" type="line"/>
      <point x="-271" y="425" type="line"/>
      <point x="-216" y="425" type="line" smooth="yes"/>
      <point x="-140" y="425"/>
      <point x="-102" y="435"/>
      <point x="-71" y="460" type="curve" smooth="yes"/>
      <point x="-50" y="477"/>
      <point x="-32" y="509"/>
    </contour>
    <contour>
      <point x="-138" y="832" type="curve" smooth="yes"/>
      <point x="-219" y="832"/>
      <point x="-279" y="790"/>
      <point x="-279" y="719" type="curve" smooth="yes"/>
      <point x="-279" y="679"/>
      <point x="-265" y="647"/>
      <point x="-229" y="614" type="curve"/>
      <point x="-155" y="642" type="line"/>
      <point x="-195" y="669"/>
      <point x="-204" y="692"/>
      <point x="-204" y="711" type="curve" smooth="yes"/>
      <point x="-204" y="747"/>
      <point x="-173" y="766"/>
      <point x="-137" y="766" type="curve" smooth="yes"/>
      <point x="-98" y="766"/>
      <point x="-78" y="746"/>
      <point x="-67" y="716" type="curve"/>
      <point x="9" y="736" type="line"/>
      <point x="-14" y="796"/>
      <point x="-57" y="832"/>
    </contour>
  </outline>
</glyph>
<glyph name="ovowelsigntelu" format="2">
  <advance width="300"/>
  <unicode hex="0C4A"/>
  <outline>
    <contour>
      <point x="144" y="420" type="curve" smooth="yes"/>
      <point x="230" y="420"/>
      <point x="285" y="469"/>
      <point x="285" y="553" type="curve" smooth="yes"/>
      <point x="285" y="604"/>
      <point x="266" y="640"/>
      <point x="238" y="662" type="curve" smooth="yes"/>
      <point x="202" y="691"/>
      <point x="159" y="700"/>
      <point x="64" y="700" type="curve" smooth="yes"/>
      <point x="-1" y="700" type="line" smooth="yes"/>
      <point x="-89" y="700"/>
      <point x="-130" y="669"/>
      <point x="-157" y="611" type="curve"/>
      <point x="-142" y="606" type="line"/>
      <point x="-177" y="682"/>
      <point x="-226" y="700"/>
      <point x="-293" y="700" type="curve" smooth="yes"/>
      <point x="-301" y="700" type="line" smooth="yes"/>
      <point x="-394" y="700"/>
      <point x="-456" y="646"/>
      <point x="-456" y="567" type="curve" smooth="yes"/>
      <point x="-456" y="476"/>
      <point x="-391" y="425"/>
      <point x="-294" y="425" type="curve" smooth="yes"/>
      <point x="-263" y="425" type="line"/>
      <point x="-263" y="500" type="line"/>
      <point x="-292" y="500" type="line" smooth="yes"/>
      <point x="-354" y="500"/>
      <point x="-374" y="525"/>
      <point x="-374" y="564" type="curve" smooth="yes"/>
      <point x="-374" y="599"/>
      <point x="-349" y="625"/>
      <point x="-298" y="625" type="curve" smooth="yes"/>
      <point x="-282" y="625" type="line" smooth="yes"/>
      <point x="-239" y="625"/>
      <point x="-199" y="593"/>
      <point x="-189" y="532" type="curve"/>
      <point x="-111" y="532" type="line"/>
      <point x="-103" y="587"/>
      <point x="-75" y="625"/>
      <point x="-10" y="625" type="curve" smooth="yes"/>
      <point x="115" y="625" type="line" smooth="yes"/>
      <point x="176" y="625"/>
      <point x="212" y="606"/>
      <point x="212" y="550" type="curve" smooth="yes"/>
      <point x="212" y="514"/>
      <point x="194" y="486"/>
      <point x="148" y="486" type="curve" smooth="yes"/>
      <point x="104" y="486"/>
      <point x="80" y="513"/>
      <point x="80" y="553" type="curve" smooth="yes"/>
      <point x="80" y="586"/>
      <point x="94" y="617"/>
      <point x="128" y="650" type="curve"/>
      <point x="40" y="643" type="line"/>
      <point x="21" y="615"/>
      <point x="7" y="586"/>
      <point x="7" y="544" type="curve" smooth="yes"/>
      <point x="7" y="486"/>
      <point x="44" y="420"/>
    </contour>
  </outline>
</glyph>
<glyph name="oovowelsigntelu" format="2">
  <advance width="300"/>
  <unicode hex="0C4B"/>
  <outline>
    <contour>
      <point x="144" y="420" type="curve" smooth="yes"/>
      <point x="230" y="420"/>
      <point x="285" y="469"/>
      <point x="285" y="553" type="curve" smooth="yes"/>
      <point x="285" y="604"/>
      <point x="266" y="640"/>
      <point x="238" y="662" type="curve" smooth="yes"/>
      <point x="202" y="691"/>
      <point x="159" y="700"/>
      <point x="64" y="700" type="curve" smooth="yes"/>
      <point x="-1" y="700" type="line" smooth="yes"/>
      <point x="-89" y="700"/>
      <point x="-130" y="669"/>
      <point x="-157" y="611" type="curve"/>
      <point x="-142" y="606" type="line"/>
      <point x="-177" y="682"/>
      <point x="-226" y="700"/>
      <point x="-293" y="700" type="curve" smooth="yes"/>
      <point x="-301" y="700" type="line" smooth="yes"/>
      <point x="-394" y="700"/>
      <point x="-456" y="646"/>
      <point x="-456" y="567" type="curve" smooth="yes"/>
      <point x="-456" y="476"/>
      <point x="-391" y="425"/>
      <point x="-294" y="425" type="curve" smooth="yes"/>
      <point x="-263" y="425" type="line"/>
      <point x="-263" y="500" type="line"/>
      <point x="-292" y="500" type="line" smooth="yes"/>
      <point x="-354" y="500"/>
      <point x="-374" y="525"/>
      <point x="-374" y="564" type="curve" smooth="yes"/>
      <point x="-374" y="599"/>
      <point x="-349" y="625"/>
      <point x="-298" y="625" type="curve" smooth="yes"/>
      <point x="-282" y="625" type="line" smooth="yes"/>
      <point x="-239" y="625"/>
      <point x="-199" y="593"/>
      <point x="-189" y="532" type="curve"/>
      <point x="-111" y="532" type="line"/>
      <point x="-103" y="587"/>
      <point x="-75" y="625"/>
      <point x="-10" y="625" type="curve" smooth="yes"/>
      <point x="115" y="625" type="line" smooth="yes"/>
      <point x="176" y="625"/>
      <point x="212" y="606"/>
      <point x="212" y="550" type="curve" smooth="yes"/>
      <point x="212" y="514"/>
      <point x="194" y="486"/>
      <point x="148" y="486" type="curve" smooth="yes"/>
      <point x="104" y="486"/>
      <point x="80" y="513"/>
      <point x="80" y="553" type="curve" smooth="yes"/>
      <point x="80" y="586"/>
      <point x="94" y="617"/>
      <point x="128" y="650" type="curve"/>
      <point x="40" y="643" type="line"/>
      <point x="21" y="615"/>
      <point x="7" y="586"/>
      <point x="7" y="544" type="curve" smooth="yes"/>
      <point x="7" y="486"/>
      <point x="44" y="420"/>
    </contour>
    <contour>
      <point x="171" y="850" type="curve" smooth="yes"/>
      <point x="90" y="850"/>
      <point x="30" y="808"/>
      <point x="30" y="737" type="curve" smooth="yes"/>
      <point x="30" y="697"/>
      <point x="44" y="665"/>
      <point x="80" y="632" type="curve"/>
      <point x="154" y="660" type="line"/>
      <point x="114" y="687"/>
      <point x="105" y="710"/>
      <point x="105" y="729" type="curve" smooth="yes"/>
      <point x="105" y="765"/>
      <point x="136" y="784"/>
      <point x="172" y="784" type="curve" smooth="yes"/>
      <point x="210" y="784"/>
      <point x="231" y="764"/>
      <point x="242" y="734" type="curve"/>
      <point x="318" y="754" type="line"/>
      <point x="295" y="814"/>
      <point x="252" y="850"/>
    </contour>
  </outline>
</glyph>
<glyph name="auvowelsigntelu" format="2">
  <advance width="290"/>
  <unicode hex="0C4C"/>
  <outline>
    <contour>
      <point x="134" y="403" type="curve" smooth="yes"/>
      <point x="220" y="403"/>
      <point x="275" y="452"/>
      <point x="275" y="536" type="curve" smooth="yes"/>
      <point x="275" y="586"/>
      <point x="256" y="623"/>
      <point x="228" y="645" type="curve" smooth="yes"/>
      <point x="192" y="674"/>
      <point x="149" y="683"/>
      <point x="59" y="683" type="curve" smooth="yes"/>
      <point x="-481" y="683" type="line"/>
      <point x="-481" y="608" type="line"/>
      <point x="-270" y="608" type="line" smooth="yes"/>
      <point x="-223" y="608"/>
      <point x="-208" y="603"/>
      <point x="-195" y="592" type="curve" smooth="yes"/>
      <point x="-184" y="583"/>
      <point x="-179" y="569"/>
      <point x="-179" y="552" type="curve" smooth="yes"/>
      <point x="-179" y="536"/>
      <point x="-184" y="524"/>
      <point x="-194" y="515" type="curve" smooth="yes"/>
      <point x="-208" y="504"/>
      <point x="-227" y="500"/>
      <point x="-269" y="500" type="curve" smooth="yes"/>
      <point x="-375" y="500" type="line"/>
      <point x="-375" y="425" type="line"/>
      <point x="-281" y="425" type="line" smooth="yes"/>
      <point x="-206" y="425"/>
      <point x="-167" y="435"/>
      <point x="-136" y="460" type="curve" smooth="yes"/>
      <point x="-115" y="477"/>
      <point x="-97" y="509"/>
      <point x="-97" y="553" type="curve" smooth="yes"/>
      <point x="-97" y="574"/>
      <point x="-101" y="593"/>
      <point x="-110" y="608" type="curve"/>
      <point x="105" y="608" type="line" smooth="yes"/>
      <point x="166" y="608"/>
      <point x="202" y="589"/>
      <point x="202" y="533" type="curve" smooth="yes"/>
      <point x="202" y="497"/>
      <point x="184" y="469"/>
      <point x="138" y="469" type="curve" smooth="yes"/>
      <point x="94" y="469"/>
      <point x="70" y="496"/>
      <point x="70" y="536" type="curve" smooth="yes"/>
      <point x="70" y="569"/>
      <point x="84" y="600"/>
      <point x="118" y="633" type="curve"/>
      <point x="30" y="626" type="line"/>
      <point x="11" y="598"/>
      <point x="-3" y="569"/>
      <point x="-3" y="527" type="curve" smooth="yes"/>
      <point x="-3" y="469"/>
      <point x="34" y="403"/>
    </contour>
  </outline>
</glyph>
<glyph name="viramatelu" format="2">
  <unicode hex="0C4D"/>
  <outline>
    <contour>
      <point x="-355" y="540" type="curve" smooth="yes"/>
      <point x="-355" y="460"/>
      <point x="-293" y="425"/>
      <point x="-198" y="425" type="curve" smooth="yes"/>
      <point x="-160" y="425" type="line"/>
      <point x="-160" y="500" type="line"/>
      <point x="-197" y="500" type="line" smooth="yes"/>
      <point x="-226" y="500"/>
      <point x="-244" y="502"/>
      <point x="-256" y="511" type="curve" smooth="yes"/>
      <point x="-266" y="518"/>
      <point x="-272" y="530"/>
      <point x="-272" y="546" type="curve" smooth="yes"/>
      <point x="-272" y="560"/>
      <point x="-267" y="572"/>
      <point x="-256" y="580" type="curve" smooth="yes"/>
      <point x="-245" y="588"/>
      <point x="-227" y="593"/>
      <point x="-189" y="593" type="curve" smooth="yes"/>
      <point x="-48" y="593" type="line"/>
      <point x="-48" y="668" type="line"/>
      <point x="-185" y="668" type="line" smooth="yes"/>
      <point x="-227" y="668"/>
      <point x="-246" y="671"/>
      <point x="-259" y="678" type="curve" smooth="yes"/>
      <point x="-274" y="686"/>
      <point x="-280" y="699"/>
      <point x="-280" y="717" type="curve" smooth="yes"/>
      <point x="-280" y="734"/>
      <point x="-272" y="747"/>
      <point x="-257" y="754" type="curve" smooth="yes"/>
      <point x="-245" y="760"/>
      <point x="-230" y="763"/>
      <point x="-184" y="763" type="curve" smooth="yes"/>
      <point x="119" y="763" type="line"/>
      <point x="119" y="838" type="line"/>
      <point x="-168" y="838" type="line" smooth="yes"/>
      <point x="-260" y="838"/>
      <point x="-297" y="827"/>
      <point x="-325" y="805" type="curve" smooth="yes"/>
      <point x="-349" y="786"/>
      <point x="-363" y="760"/>
      <point x="-363" y="724" type="curve" smooth="yes"/>
      <point x="-363" y="679"/>
      <point x="-338" y="643"/>
      <point x="-293" y="619" type="curve"/>
      <point x="-292" y="637" type="line"/>
      <point x="-334" y="611"/>
      <point x="-355" y="582"/>
    </contour>
  </outline>
</glyph>
<glyph name="lengthmarktelu" format="2">
  <unicode hex="0C55"/>
  <outline>
    <contour>
      <point x="-159" y="682" type="curve" smooth="yes"/>
      <point x="-240" y="682"/>
      <point x="-300" y="640"/>
      <point x="-300" y="569" type="curve" smooth="yes"/>
      <point x="-300" y="529"/>
      <point x="-286" y="497"/>
      <point x="-250" y="464" type="curve"/>
      <point x="-176" y="492" type="line"/>
      <point x="-216" y="519"/>
      <point x="-225" y="542"/>
      <point x="-225" y="561" type="curve" smooth="yes"/>
      <point x="-225" y="597"/>
      <point x="-194" y="616"/>
      <point x="-158" y="616" type="curve" smooth="yes"/>
      <point x="-119" y="616"/>
      <point x="-99" y="596"/>
      <point x="-88" y="566" type="curve"/>
      <point x="-12" y="586" type="line"/>
      <point x="-35" y="646"/>
      <point x="-78" y="682"/>
    </contour>
  </outline>
</glyph>
<glyph name="ailengthmarktelu" format="2">
  <unicode hex="0C56"/>
  <outline>
    <contour>
      <point x="-440" y="-61" type="curve" smooth="yes"/>
      <point x="-520" y="-61"/>
      <point x="-574" y="-109"/>
      <point x="-574" y="-181" type="curve" smooth="yes"/>
      <point x="-574" y="-230"/>
      <point x="-556" y="-261"/>
      <point x="-528" y="-282" type="curve" smooth="yes"/>
      <point x="-493" y="-309"/>
      <point x="-444" y="-318"/>
      <point x="-359" y="-318" type="curve" smooth="yes"/>
      <point x="-2" y="-318" type="line"/>
      <point x="-2" y="-243" type="line"/>
      <point x="-408" y="-243" type="line" smooth="yes"/>
      <point x="-470" y="-243"/>
      <point x="-505" y="-227"/>
      <point x="-505" y="-180" type="curve" smooth="yes"/>
      <point x="-505" y="-151"/>
      <point x="-485" y="-127"/>
      <point x="-444" y="-127" type="curve" smooth="yes"/>
      <point x="-403" y="-127"/>
      <point x="-380" y="-150"/>
      <point x="-380" y="-184" type="curve" smooth="yes"/>
      <point x="-380" y="-212"/>
      <point x="-393" y="-239"/>
      <point x="-427" y="-267" type="curve"/>
      <point x="-343" y="-261" type="line"/>
      <point x="-324" y="-235"/>
      <point x="-311" y="-210"/>
      <point x="-311" y="-173" type="curve" smooth="yes"/>
      <point x="-311" y="-121"/>
      <point x="-348" y="-61"/>
    </contour>
  </outline>
</glyph>
<glyph name="tsatelu" format="2">
  <advance width="760"/>
  <unicode hex="0C58"/>
  <outline>
    <contour>
      <point x="543" y="-12" type="curve" smooth="yes"/>
      <point x="646" y="-12"/>
      <point x="725" y="50"/>
      <point x="725" y="178" type="curve" smooth="yes"/>
      <point x="725" y="316"/>
      <point x="625" y="432"/>
      <point x="434" y="460" type="curve"/>
      <point x="404" y="385" type="line"/>
      <point x="517" y="379"/>
      <point x="642" y="308"/>
      <point x="642" y="179" type="curve" smooth="yes"/>
      <point x="642" y="86"/>
      <point x="588" y="67"/>
      <point x="539" y="67" type="curve" smooth="yes"/>
      <point x="482" y="67"/>
      <point x="429" y="103"/>
      <point x="423" y="185" type="curve"/>
      <point x="346" y="185" type="line"/>
      <point x="340" y="114"/>
      <point x="299" y="67"/>
      <point x="233" y="67" type="curve" smooth="yes"/>
      <point x="179" y="67"/>
      <point x="147" y="99"/>
      <point x="147" y="149" type="curve" smooth="yes"/>
      <point x="147" y="201"/>
      <point x="179" y="243"/>
      <point x="259" y="261" type="curve"/>
      <point x="259" y="332" type="line"/>
      <point x="25" y="332" type="line"/>
      <point x="25" y="258" type="line"/>
      <point x="139" y="258" type="line"/>
      <point x="151" y="274" type="line"/>
      <point x="92" y="245"/>
      <point x="66" y="189"/>
      <point x="66" y="144" type="curve" smooth="yes"/>
      <point x="66" y="51"/>
      <point x="131" y="-12"/>
      <point x="228" y="-12" type="curve" smooth="yes"/>
      <point x="297" y="-12"/>
      <point x="350" y="9"/>
      <point x="395" y="91" type="curve"/>
      <point x="375" y="89" type="line"/>
      <point x="421" y="16"/>
      <point x="460" y="-12"/>
    </contour>
    <contour>
      <point x="403" y="383" type="curve" smooth="yes"/>
      <point x="462" y="383"/>
      <point x="505" y="412"/>
      <point x="562" y="484" type="curve" smooth="yes"/>
      <point x="585" y="514" type="line" smooth="yes"/>
      <point x="636" y="580"/>
      <point x="662" y="602"/>
      <point x="732" y="606" type="curve"/>
      <point x="726" y="683" type="line"/>
      <point x="638" y="682"/>
      <point x="595" y="650"/>
      <point x="527" y="563" type="curve" smooth="yes"/>
      <point x="496" y="523" type="line" smooth="yes"/>
      <point x="454" y="468"/>
      <point x="435" y="458"/>
      <point x="409" y="458" type="curve" smooth="yes"/>
      <point x="380" y="458"/>
      <point x="364" y="475"/>
      <point x="344" y="549" type="curve"/>
      <point x="261" y="522" type="line"/>
      <point x="293" y="409"/>
      <point x="345" y="383"/>
    </contour>
    <contour>
      <point x="496" y="869" type="curve" smooth="yes"/>
      <point x="400" y="869"/>
      <point x="364" y="810"/>
      <point x="364" y="757" type="curve" smooth="yes"/>
      <point x="364" y="720"/>
      <point x="376" y="695"/>
      <point x="396" y="669" type="curve"/>
      <point x="479" y="663" type="line"/>
      <point x="446" y="691"/>
      <point x="433" y="718"/>
      <point x="433" y="746" type="curve" smooth="yes"/>
      <point x="433" y="780"/>
      <point x="456" y="803"/>
      <point x="497" y="803" type="curve" smooth="yes"/>
      <point x="538" y="803"/>
      <point x="558" y="779"/>
      <point x="558" y="750" type="curve" smooth="yes"/>
      <point x="558" y="704"/>
      <point x="523" y="687"/>
      <point x="460" y="687" type="curve" smooth="yes"/>
      <point x="79" y="687" type="line"/>
      <point x="79" y="612" type="line"/>
      <point x="412" y="612" type="line" smooth="yes"/>
      <point x="497" y="612"/>
      <point x="541" y="619"/>
      <point x="581" y="648" type="curve" smooth="yes"/>
      <point x="608" y="669"/>
      <point x="627" y="700"/>
      <point x="627" y="749" type="curve" smooth="yes"/>
      <point x="627" y="818"/>
      <point x="575" y="869"/>
    </contour>
  </outline>
</glyph>
<glyph name="rrratelu" format="2">
  <advance width="716"/>
  <unicode hex="0C5A"/>
  <outline>
    <contour>
      <point x="512" y="-12" type="curve" smooth="yes"/>
      <point x="616" y="-12"/>
      <point x="681" y="63"/>
      <point x="681" y="200" type="curve" smooth="yes"/>
      <point x="681" y="375"/>
      <point x="566" y="500"/>
      <point x="362" y="500" type="curve" smooth="yes"/>
      <point x="157" y="500"/>
      <point x="35" y="378"/>
      <point x="35" y="200" type="curve" smooth="yes"/>
      <point x="35" y="66"/>
      <point x="101" y="-13"/>
      <point x="201" y="-13" type="curve" smooth="yes"/>
      <point x="268" y="-13"/>
      <point x="324" y="5"/>
      <point x="367" y="92" type="curve"/>
      <point x="349" y="89" type="line"/>
      <point x="390" y="16"/>
      <point x="433" y="-12"/>
    </contour>
    <contour>
      <point x="503" y="67" type="curve" smooth="yes"/>
      <point x="452" y="67"/>
      <point x="403" y="103"/>
      <point x="397" y="185" type="curve"/>
      <point x="319" y="185" type="line"/>
      <point x="313" y="114"/>
      <point x="274" y="67"/>
      <point x="212" y="67" type="curve" smooth="yes"/>
      <point x="152" y="67"/>
      <point x="118" y="105"/>
      <point x="118" y="205" type="curve" smooth="yes"/>
      <point x="118" y="338"/>
      <point x="199" y="425"/>
      <point x="354" y="425" type="curve" smooth="yes"/>
      <point x="369" y="425" type="line" smooth="yes"/>
      <point x="524" y="425"/>
      <point x="598" y="333"/>
      <point x="598" y="202" type="curve" smooth="yes"/>
      <point x="598" y="104"/>
      <point x="562" y="67"/>
    </contour>
    <contour>
      <point x="67" y="246" type="line"/>
      <point x="620" y="246" type="line"/>
      <point x="620" y="318" type="line"/>
      <point x="82" y="318" type="line"/>
    </contour>
  </outline>
</glyph>
<glyph name="llvocalictelu" format="2">
  <advance width="1227"/>
  <unicode hex="0C61"/>
  <outline>
    <contour>
      <point x="559" y="-75" type="curve" smooth="yes"/>
      <point x="718" y="-75"/>
      <point x="846" y="42"/>
      <point x="846" y="227" type="curve" smooth="yes"/>
      <point x="846" y="341"/>
      <point x="800" y="424"/>
      <point x="693" y="488" type="curve"/>
      <point x="642" y="433" type="line"/>
      <point x="724" y="387"/>
      <point x="763" y="313"/>
      <point x="763" y="228" type="curve" smooth="yes"/>
      <point x="763" y="113"/>
      <point x="699" y="4"/>
      <point x="562" y="4" type="curve" smooth="yes"/>
      <point x="488" y="4"/>
      <point x="457" y="37"/>
      <point x="457" y="87" type="curve" smooth="yes"/>
      <point x="457" y="132"/>
      <point x="481" y="165"/>
      <point x="526" y="215" type="curve" smooth="yes"/>
      <point x="563" y="257"/>
      <point x="601" y="303"/>
      <point x="601" y="370" type="curve" smooth="yes"/>
      <point x="601" y="429"/>
      <point x="564" y="500"/>
      <point x="457" y="500" type="curve" smooth="yes"/>
      <point x="383" y="500"/>
      <point x="336" y="468"/>
      <point x="298" y="399" type="curve"/>
      <point x="315" y="398" type="line"/>
      <point x="282" y="470"/>
      <point x="240" y="500"/>
      <point x="170" y="500" type="curve" smooth="yes"/>
      <point x="92" y="500"/>
      <point x="29" y="450"/>
      <point x="29" y="372" type="curve" smooth="yes"/>
      <point x="29" y="330"/>
      <point x="43" y="294"/>
      <point x="59" y="263" type="curve"/>
      <point x="135" y="287" type="line"/>
      <point x="122" y="309"/>
      <point x="112" y="331"/>
      <point x="112" y="364" type="curve" smooth="yes"/>
      <point x="112" y="399"/>
      <point x="132" y="425"/>
      <point x="176" y="425" type="curve" smooth="yes"/>
      <point x="226" y="425"/>
      <point x="264" y="385"/>
      <point x="268" y="303" type="curve"/>
      <point x="346" y="303" type="line"/>
      <point x="351" y="378"/>
      <point x="391" y="424"/>
      <point x="453" y="424" type="curve" smooth="yes"/>
      <point x="498" y="424"/>
      <point x="521" y="397"/>
      <point x="521" y="364" type="curve" smooth="yes"/>
      <point x="521" y="326"/>
      <point x="497" y="296"/>
      <point x="460" y="255" type="curve" smooth="yes"/>
      <point x="407" y="197"/>
      <point x="374" y="148"/>
      <point x="374" y="84" type="curve" smooth="yes"/>
      <point x="374" y="-10"/>
      <point x="436" y="-75"/>
    </contour>
    <contour>
      <point x="1071" y="220" type="curve" smooth="yes"/>
      <point x="1156" y="220"/>
      <point x="1212" y="269"/>
      <point x="1212" y="353" type="curve" smooth="yes"/>
      <point x="1212" y="403"/>
      <point x="1193" y="440"/>
      <point x="1165" y="462" type="curve" smooth="yes"/>
      <point x="1129" y="491"/>
      <point x="1086" y="500"/>
      <point x="1000" y="500" type="curve" smooth="yes"/>
      <point x="679" y="500" type="line"/>
      <point x="642" y="433" type="line"/>
      <point x="674" y="425" type="line"/>
      <point x="1042" y="425" type="line" smooth="yes"/>
      <point x="1104" y="425"/>
      <point x="1139" y="405"/>
      <point x="1139" y="350" type="curve" smooth="yes"/>
      <point x="1139" y="314"/>
      <point x="1121" y="286"/>
      <point x="1075" y="286" type="curve" smooth="yes"/>
      <point x="1031" y="286"/>
      <point x="1007" y="313"/>
      <point x="1007" y="353" type="curve" smooth="yes"/>
      <point x="1007" y="385"/>
      <point x="1021" y="417"/>
      <point x="1055" y="450" type="curve"/>
      <point x="967" y="443" type="line"/>
      <point x="948" y="415"/>
      <point x="934" y="386"/>
      <point x="934" y="344" type="curve" smooth="yes"/>
      <point x="934" y="287"/>
      <point x="971" y="220"/>
    </contour>
  </outline>
</glyph>
<glyph name="lvocalicvowelsigntelu" format="2">
  <unicode hex="0C62"/>
  <outline>
    <contour>
      <point x="-196" y="-467" type="curve" smooth="yes"/>
      <point x="-80" y="-467"/>
      <point x="13" y="-392"/>
      <point x="13" y="-250" type="curve" smooth="yes"/>
      <point x="13" y="-177"/>
      <point x="-11" y="-112"/>
      <point x="-83" y="-61" type="curve"/>
      <point x="-135" y="-117" type="line"/>
      <point x="-83" y="-151"/>
      <point x="-59" y="-197"/>
      <point x="-59" y="-249" type="curve" smooth="yes"/>
      <point x="-59" y="-328"/>
      <point x="-100" y="-402"/>
      <point x="-191" y="-402" type="curve" smooth="yes"/>
      <point x="-237" y="-402"/>
      <point x="-260" y="-380"/>
      <point x="-260" y="-347" type="curve" smooth="yes"/>
      <point x="-260" y="-320"/>
      <point x="-246" y="-295"/>
      <point x="-212" y="-258" type="curve" smooth="yes"/>
      <point x="-182" y="-224"/>
      <point x="-160" y="-197"/>
      <point x="-160" y="-153" type="curve" smooth="yes"/>
      <point x="-160" y="-110"/>
      <point x="-189" y="-61"/>
      <point x="-265" y="-61" type="curve" smooth="yes"/>
      <point x="-319" y="-61"/>
      <point x="-353" y="-82"/>
      <point x="-383" y="-135" type="curve"/>
      <point x="-366" y="-136" type="line"/>
      <point x="-391" y="-83"/>
      <point x="-418" y="-61"/>
      <point x="-476" y="-61" type="curve" smooth="yes"/>
      <point x="-529" y="-61"/>
      <point x="-577" y="-96"/>
      <point x="-577" y="-154" type="curve" smooth="yes"/>
      <point x="-577" y="-179"/>
      <point x="-571" y="-209"/>
      <point x="-555" y="-235" type="curve"/>
      <point x="-490" y="-215" type="line"/>
      <point x="-498" y="-200"/>
      <point x="-506" y="-182"/>
      <point x="-506" y="-164" type="curve" smooth="yes"/>
      <point x="-506" y="-142"/>
      <point x="-494" y="-125"/>
      <point x="-467" y="-125" type="curve" smooth="yes"/>
      <point x="-430" y="-125"/>
      <point x="-412" y="-148"/>
      <point x="-408" y="-204" type="curve"/>
      <point x="-340" y="-204" type="line"/>
      <point x="-337" y="-152"/>
      <point x="-309" y="-125"/>
      <point x="-275" y="-125" type="curve" smooth="yes"/>
      <point x="-243" y="-125"/>
      <point x="-231" y="-142"/>
      <point x="-231" y="-160" type="curve" smooth="yes"/>
      <point x="-231" y="-181"/>
      <point x="-245" y="-199"/>
      <point x="-274" y="-230" type="curve" smooth="yes"/>
      <point x="-311" y="-268"/>
      <point x="-330" y="-304"/>
      <point x="-330" y="-348" type="curve" smooth="yes"/>
      <point x="-330" y="-419"/>
      <point x="-284" y="-467"/>
    </contour>
  </outline>
</glyph>
<glyph name="zerotelu" format="2">
  <advance width="675"/>
  <unicode hex="0C66"/>
  <outline>
    <contour>
      <point x="49" y="312" type="curve" smooth="yes"/>
      <point x="49" y="126"/>
      <point x="147" y="-12"/>
      <point x="336" y="-12" type="curve" smooth="yes"/>
      <point x="525" y="-12"/>
      <point x="626" y="115"/>
      <point x="626" y="312" type="curve" smooth="yes"/>
      <point x="626" y="500"/>
      <point x="520" y="633"/>
      <point x="336" y="633" type="curve" smooth="yes"/>
      <point x="150" y="633"/>
      <point x="49" y="500"/>
    </contour>
    <contour>
      <point x="136" y="310" type="curve" smooth="yes"/>
      <point x="136" y="459"/>
      <point x="202" y="554"/>
      <point x="336" y="554" type="curve" smooth="yes"/>
      <point x="470" y="554"/>
      <point x="539" y="459"/>
      <point x="539" y="310" type="curve" smooth="yes"/>
      <point x="539" y="159"/>
      <point x="471" y="67"/>
      <point x="336" y="67" type="curve" smooth="yes"/>
      <point x="200" y="67"/>
      <point x="136" y="160"/>
    </contour>
  </outline>
</glyph>
<glyph name="onetelu" format="2">
  <advance width="665"/>
  <unicode hex="0C67"/>
  <outline>
    <contour>
      <point x="331" y="633" type="curve" smooth="yes"/>
      <point x="141" y="633"/>
      <point x="49" y="490"/>
      <point x="49" y="315" type="curve" smooth="yes"/>
      <point x="49" y="188"/>
      <point x="88" y="86"/>
      <point x="136" y="-8" type="curve"/>
      <point x="223" y="29" type="line"/>
      <point x="177" y="110"/>
      <point x="135" y="195"/>
      <point x="135" y="314" type="curve" smooth="yes"/>
      <point x="135" y="466"/>
      <point x="206" y="554"/>
      <point x="331" y="554" type="curve" smooth="yes"/>
      <point x="471" y="554"/>
      <point x="530" y="448"/>
      <point x="530" y="314" type="curve" smooth="yes"/>
      <point x="530" y="191"/>
      <point x="485" y="102"/>
      <point x="442" y="29" type="curve"/>
      <point x="528" y="-8" type="line"/>
      <point x="571" y="75"/>
      <point x="616" y="173"/>
      <point x="616" y="317" type="curve" smooth="yes"/>
      <point x="616" y="518"/>
      <point x="497" y="633"/>
    </contour>
  </outline>
</glyph>
<glyph name="twotelu" format="2">
  <advance width="773"/>
  <unicode hex="0C68"/>
  <outline>
    <contour>
      <point x="442" y="633" type="curve" smooth="yes"/>
      <point x="323" y="633"/>
      <point x="262" y="565"/>
      <point x="262" y="479" type="curve" smooth="yes"/>
      <point x="262" y="398"/>
      <point x="315" y="339"/>
      <point x="415" y="339" type="curve" smooth="yes"/>
      <point x="502" y="339"/>
      <point x="558" y="391"/>
      <point x="558" y="475" type="curve" smooth="yes"/>
      <point x="558" y="494"/>
      <point x="554" y="509"/>
      <point x="545" y="530" type="curve"/>
      <point x="518" y="551" type="line"/>
      <point x="451" y="561" type="line"/>
      <point x="470" y="541"/>
      <point x="481" y="509"/>
      <point x="481" y="483" type="curve" smooth="yes"/>
      <point x="481" y="440"/>
      <point x="454" y="414"/>
      <point x="412" y="414" type="curve" smooth="yes"/>
      <point x="368" y="414"/>
      <point x="343" y="438"/>
      <point x="343" y="480" type="curve" smooth="yes"/>
      <point x="343" y="525"/>
      <point x="368" y="560"/>
      <point x="437" y="560" type="curve" smooth="yes"/>
      <point x="465" y="560"/>
      <point x="494" y="553"/>
      <point x="518" y="540" type="curve"/>
      <point x="588" y="516"/>
      <point x="637" y="424"/>
      <point x="637" y="308" type="curve" smooth="yes"/>
      <point x="637" y="235"/>
      <point x="618" y="183"/>
      <point x="585" y="148" type="curve" smooth="yes"/>
      <point x="538" y="97"/>
      <point x="473" y="80"/>
      <point x="331" y="80" type="curve" smooth="yes"/>
      <point x="15" y="80" type="line"/>
      <point x="15" y="0" type="line"/>
      <point x="355" y="0" type="line" smooth="yes"/>
      <point x="508" y="0"/>
      <point x="596" y="31"/>
      <point x="654" y="98" type="curve" smooth="yes"/>
      <point x="697" y="148"/>
      <point x="724" y="217"/>
      <point x="724" y="309" type="curve" smooth="yes"/>
      <point x="724" y="489"/>
      <point x="616" y="633"/>
    </contour>
  </outline>
</glyph>
<glyph name="threetelu" format="2">
  <advance width="546"/>
  <unicode hex="0C69"/>
  <outline>
    <contour>
      <point x="272" y="-12" type="curve" smooth="yes"/>
      <point x="422" y="-12"/>
      <point x="500" y="67"/>
      <point x="500" y="166" type="curve" smooth="yes"/>
      <point x="500" y="241"/>
      <point x="457" y="291"/>
      <point x="378" y="318" type="curve"/>
      <point x="376" y="305" type="line"/>
      <point x="469" y="337"/>
      <point x="500" y="393"/>
      <point x="500" y="462" type="curve" smooth="yes"/>
      <point x="500" y="567"/>
      <point x="407" y="633"/>
      <point x="272" y="633" type="curve" smooth="yes"/>
      <point x="146" y="633"/>
      <point x="56" y="577"/>
      <point x="14" y="548" type="curve"/>
      <point x="54" y="472" type="line"/>
      <point x="105" y="512"/>
      <point x="170" y="554"/>
      <point x="276" y="554" type="curve" smooth="yes"/>
      <point x="366" y="554"/>
      <point x="414" y="515"/>
      <point x="414" y="457" type="curve" smooth="yes"/>
      <point x="414" y="422"/>
      <point x="399" y="395"/>
      <point x="368" y="376" type="curve" smooth="yes"/>
      <point x="340" y="360"/>
      <point x="305" y="351"/>
      <point x="218" y="351" type="curve" smooth="yes"/>
      <point x="189" y="351" type="line"/>
      <point x="189" y="272" type="line"/>
      <point x="209" y="272" type="line" smooth="yes"/>
      <point x="308" y="272"/>
      <point x="349" y="263"/>
      <point x="377" y="243" type="curve" smooth="yes"/>
      <point x="401" y="226"/>
      <point x="414" y="201"/>
      <point x="414" y="168" type="curve" smooth="yes"/>
      <point x="414" y="110"/>
      <point x="367" y="67"/>
      <point x="273" y="67" type="curve" smooth="yes"/>
      <point x="174" y="67"/>
      <point x="107" y="108"/>
      <point x="54" y="149" type="curve"/>
      <point x="14" y="73" type="line"/>
      <point x="84" y="28"/>
      <point x="160" y="-12"/>
    </contour>
  </outline>
</glyph>
<glyph name="fourtelu" format="2">
  <advance width="686"/>
  <unicode hex="0C6A"/>
  <outline>
    <contour>
      <point x="342" y="-12" type="curve" smooth="yes"/>
      <point x="423" y="-12"/>
      <point x="505" y="16"/>
      <point x="505" y="108" type="curve" smooth="yes"/>
      <point x="505" y="151"/>
      <point x="478" y="185"/>
      <point x="433" y="204" type="curve"/>
      <point x="373" y="247" type="line"/>
      <point x="209" y="251"/>
      <point x="128" y="301"/>
      <point x="128" y="412" type="curve" smooth="yes"/>
      <point x="128" y="470"/>
      <point x="159" y="526"/>
      <point x="233" y="562" type="curve"/>
      <point x="196" y="633" type="line"/>
      <point x="90" y="583"/>
      <point x="42" y="500"/>
      <point x="42" y="412" type="curve" smooth="yes"/>
      <point x="42" y="285"/>
      <point x="134" y="196"/>
      <point x="292" y="178" type="curve"/>
      <point x="317" y="179" type="line"/>
      <point x="388" y="174"/>
      <point x="422" y="146"/>
      <point x="422" y="114" type="curve" smooth="yes"/>
      <point x="422" y="79"/>
      <point x="391" y="64"/>
      <point x="342" y="64" type="curve" smooth="yes"/>
      <point x="293" y="64"/>
      <point x="264" y="79"/>
      <point x="264" y="114" type="curve" smooth="yes"/>
      <point x="264" y="139"/>
      <point x="284" y="170"/>
      <point x="361" y="180" type="curve"/>
      <point x="395" y="178" type="line"/>
      <point x="560" y="199"/>
      <point x="645" y="288"/>
      <point x="645" y="412" type="curve" smooth="yes"/>
      <point x="645" y="500"/>
      <point x="595" y="583"/>
      <point x="490" y="633" type="curve"/>
      <point x="453" y="562" type="line"/>
      <point x="526" y="528"/>
      <point x="559" y="470"/>
      <point x="559" y="412" type="curve" smooth="yes"/>
      <point x="559" y="301"/>
      <point x="477" y="251"/>
      <point x="313" y="247" type="curve"/>
      <point x="308" y="245"/>
      <point x="258" y="206"/>
      <point x="253" y="204" type="curve"/>
      <point x="208" y="185"/>
      <point x="181" y="151"/>
      <point x="181" y="108" type="curve" smooth="yes"/>
      <point x="181" y="16"/>
      <point x="263" y="-12"/>
    </contour>
  </outline>
</glyph>
<glyph name="fivetelu" format="2">
  <advance width="711"/>
  <unicode hex="0C6B"/>
  <outline>
    <contour>
      <point x="255" y="-12" type="curve" smooth="yes"/>
      <point x="407" y="-12"/>
      <point x="511" y="104"/>
      <point x="511" y="310" type="curve" smooth="yes"/>
      <point x="511" y="532"/>
      <point x="390" y="633"/>
      <point x="249" y="633" type="curve" smooth="yes"/>
      <point x="158" y="633"/>
      <point x="89" y="607"/>
      <point x="20" y="563" type="curve"/>
      <point x="60" y="487" type="line"/>
      <point x="112" y="527"/>
      <point x="177" y="554"/>
      <point x="240" y="554" type="curve" smooth="yes"/>
      <point x="357" y="554"/>
      <point x="427" y="472"/>
      <point x="427" y="314" type="curve" smooth="yes"/>
      <point x="427" y="129"/>
      <point x="344" y="67"/>
      <point x="240" y="67" type="curve" smooth="yes"/>
      <point x="174" y="67"/>
      <point x="110" y="95"/>
      <point x="60" y="134" type="curve"/>
      <point x="20" y="59" type="line"/>
      <point x="82" y="19"/>
      <point x="155" y="-12"/>
    </contour>
    <contour>
      <point x="672" y="163" type="curve" smooth="yes"/>
      <point x="672" y="240"/>
      <point x="632" y="289"/>
      <point x="560" y="316" type="curve"/>
      <point x="561" y="304" type="line"/>
      <point x="627" y="331"/>
      <point x="672" y="375"/>
      <point x="672" y="458" type="curve" smooth="yes"/>
      <point x="672" y="523"/>
      <point x="641" y="582"/>
      <point x="582" y="632" type="curve"/>
      <point x="514" y="582" type="line"/>
      <point x="566" y="542"/>
      <point x="587" y="494"/>
      <point x="587" y="448" type="curve" smooth="yes"/>
      <point x="587" y="396"/>
      <point x="557" y="357"/>
      <point x="500" y="357" type="curve"/>
      <point x="500" y="262" type="line"/>
      <point x="560" y="260"/>
      <point x="587" y="222"/>
      <point x="587" y="170" type="curve" smooth="yes"/>
      <point x="587" y="123"/>
      <point x="565" y="79"/>
      <point x="514" y="39" type="curve"/>
      <point x="581" y="-12" type="line"/>
      <point x="635" y="34"/>
      <point x="672" y="93"/>
    </contour>
  </outline>
</glyph>
<glyph name="sixtelu" format="2">
  <advance width="698"/>
  <unicode hex="0C6C"/>
  <outline>
    <contour>
      <point x="46" y="167" type="curve" smooth="yes"/>
      <point x="46" y="119"/>
      <point x="69" y="78"/>
      <point x="100" y="52" type="curve" smooth="yes"/>
      <point x="149" y="12"/>
      <point x="206" y="0"/>
      <point x="340" y="0" type="curve" smooth="yes"/>
      <point x="683" y="0" type="line"/>
      <point x="683" y="80" type="line"/>
      <point x="330" y="80" type="line" smooth="yes"/>
      <point x="242" y="80"/>
      <point x="211" y="85"/>
      <point x="187" y="95" type="curve" smooth="yes"/>
      <point x="153" y="109"/>
      <point x="133" y="134"/>
      <point x="133" y="174" type="curve" smooth="yes"/>
      <point x="133" y="212"/>
      <point x="149" y="233"/>
      <point x="176" y="249" type="curve" smooth="yes"/>
      <point x="201" y="264"/>
      <point x="232" y="270"/>
      <point x="308" y="270" type="curve" smooth="yes"/>
      <point x="463" y="270" type="line"/>
      <point x="463" y="350" type="line"/>
      <point x="338" y="350" type="line" smooth="yes"/>
      <point x="242" y="350"/>
      <point x="212" y="354"/>
      <point x="179" y="374" type="curve" smooth="yes"/>
      <point x="156" y="388"/>
      <point x="142" y="411"/>
      <point x="142" y="444" type="curve" smooth="yes"/>
      <point x="142" y="481"/>
      <point x="158" y="503"/>
      <point x="185" y="519" type="curve" smooth="yes"/>
      <point x="209" y="534"/>
      <point x="246" y="540"/>
      <point x="300" y="540" type="curve" smooth="yes"/>
      <point x="305" y="540" type="line"/>
      <point x="305" y="620" type="line"/>
      <point x="299" y="620" type="line" smooth="yes"/>
      <point x="198" y="620"/>
      <point x="157" y="606"/>
      <point x="117" y="578" type="curve" smooth="yes"/>
      <point x="82" y="553"/>
      <point x="56" y="508"/>
      <point x="56" y="448" type="curve" smooth="yes"/>
      <point x="56" y="381"/>
      <point x="88" y="337"/>
      <point x="148" y="305" type="curve"/>
      <point x="146" y="319" type="line"/>
      <point x="90" y="292"/>
      <point x="46" y="245"/>
    </contour>
  </outline>
</glyph>
<glyph name="seventelu" format="2">
  <advance width="573"/>
  <unicode hex="0C6D"/>
  <outline>
    <contour>
      <point x="278" y="-12" type="curve" smooth="yes"/>
      <point x="479" y="-12"/>
      <point x="533" y="68"/>
      <point x="533" y="143" type="curve" smooth="yes"/>
      <point x="533" y="182"/>
      <point x="524" y="207"/>
      <point x="508" y="234" type="curve"/>
      <point x="432" y="212" type="line"/>
      <point x="437" y="201"/>
      <point x="447" y="179"/>
      <point x="447" y="155" type="curve" smooth="yes"/>
      <point x="447" y="102"/>
      <point x="402" y="67"/>
      <point x="278" y="67" type="curve" smooth="yes"/>
      <point x="172" y="67"/>
      <point x="129" y="104"/>
      <point x="129" y="158" type="curve" smooth="yes"/>
      <point x="129" y="223"/>
      <point x="184" y="248"/>
      <point x="318" y="292" type="curve" smooth="yes"/>
      <point x="450" y="335"/>
      <point x="520" y="377"/>
      <point x="520" y="474" type="curve" smooth="yes"/>
      <point x="520" y="546"/>
      <point x="468" y="633"/>
      <point x="290" y="633" type="curve" smooth="yes"/>
      <point x="124" y="633"/>
      <point x="53" y="559"/>
      <point x="53" y="482" type="curve" smooth="yes"/>
      <point x="53" y="449"/>
      <point x="62" y="419"/>
      <point x="78" y="394" type="curve"/>
      <point x="154" y="420" type="line"/>
      <point x="148" y="431"/>
      <point x="139" y="452"/>
      <point x="139" y="475" type="curve" smooth="yes"/>
      <point x="139" y="524"/>
      <point x="187" y="554"/>
      <point x="298" y="554" type="curve" smooth="yes"/>
      <point x="390" y="554"/>
      <point x="433" y="521"/>
      <point x="433" y="477" type="curve" smooth="yes"/>
      <point x="433" y="417"/>
      <point x="378" y="396"/>
      <point x="267" y="361" type="curve" smooth="yes"/>
      <point x="120" y="315"/>
      <point x="43" y="262"/>
      <point x="43" y="163" type="curve" smooth="yes"/>
      <point x="43" y="70"/>
      <point x="103" y="-12"/>
    </contour>
  </outline>
</glyph>
<glyph name="eighttelu" format="2">
  <advance width="803"/>
  <unicode hex="0C6E"/>
  <outline>
    <contour>
      <point x="323" y="-12" type="curve" smooth="yes"/>
      <point x="519" y="-12"/>
      <point x="609" y="123"/>
      <point x="609" y="293" type="curve" smooth="yes"/>
      <point x="609" y="393"/>
      <point x="571" y="486"/>
      <point x="501" y="540" type="curve"/>
      <point x="789" y="540" type="line"/>
      <point x="789" y="620" type="line"/>
      <point x="405" y="620" type="line"/>
      <point x="375" y="551" type="line"/>
      <point x="481" y="492"/>
      <point x="522" y="389"/>
      <point x="522" y="296" type="curve" smooth="yes"/>
      <point x="522" y="159"/>
      <point x="458" y="67"/>
      <point x="325" y="67" type="curve" smooth="yes"/>
      <point x="185" y="67"/>
      <point x="135" y="175"/>
      <point x="135" y="287" type="curve" smooth="yes"/>
      <point x="135" y="393"/>
      <point x="175" y="458"/>
      <point x="229" y="516" type="curve"/>
      <point x="163" y="570" type="line"/>
      <point x="91" y="494"/>
      <point x="49" y="393"/>
      <point x="49" y="281" type="curve" smooth="yes"/>
      <point x="49" y="106"/>
      <point x="161" y="-12"/>
    </contour>
  </outline>
</glyph>
<glyph name="ninetelu" format="2">
  <advance width="698"/>
  <unicode hex="0C6F"/>
  <outline>
    <contour>
      <point x="56" y="172" type="curve" smooth="yes"/>
      <point x="56" y="112"/>
      <point x="82" y="67"/>
      <point x="117" y="42" type="curve" smooth="yes"/>
      <point x="157" y="14"/>
      <point x="198" y="0"/>
      <point x="299" y="0" type="curve" smooth="yes"/>
      <point x="305" y="0" type="line"/>
      <point x="305" y="80" type="line"/>
      <point x="300" y="80" type="line" smooth="yes"/>
      <point x="246" y="80"/>
      <point x="209" y="86"/>
      <point x="185" y="101" type="curve" smooth="yes"/>
      <point x="158" y="117"/>
      <point x="142" y="139"/>
      <point x="142" y="176" type="curve" smooth="yes"/>
      <point x="142" y="209"/>
      <point x="156" y="232"/>
      <point x="179" y="246" type="curve" smooth="yes"/>
      <point x="212" y="266"/>
      <point x="242" y="270"/>
      <point x="338" y="270" type="curve" smooth="yes"/>
      <point x="463" y="270" type="line"/>
      <point x="463" y="350" type="line"/>
      <point x="308" y="350" type="line" smooth="yes"/>
      <point x="232" y="350"/>
      <point x="201" y="356"/>
      <point x="176" y="371" type="curve" smooth="yes"/>
      <point x="149" y="387"/>
      <point x="133" y="408"/>
      <point x="133" y="446" type="curve" smooth="yes"/>
      <point x="133" y="486"/>
      <point x="153" y="511"/>
      <point x="187" y="525" type="curve" smooth="yes"/>
      <point x="211" y="535"/>
      <point x="242" y="540"/>
      <point x="330" y="540" type="curve" smooth="yes"/>
      <point x="683" y="540" type="line"/>
      <point x="683" y="620" type="line"/>
      <point x="340" y="620" type="line" smooth="yes"/>
      <point x="206" y="620"/>
      <point x="149" y="608"/>
      <point x="100" y="568" type="curve" smooth="yes"/>
      <point x="69" y="542"/>
      <point x="46" y="501"/>
      <point x="46" y="453" type="curve" smooth="yes"/>
      <point x="46" y="375"/>
      <point x="90" y="328"/>
      <point x="146" y="301" type="curve"/>
      <point x="148" y="315" type="line"/>
      <point x="88" y="283"/>
      <point x="56" y="239"/>
    </contour>
  </outline>
</glyph>
<glyph name="uni0C77" format="2">
  <advance width="1044"/>
  <unicode hex="0C77"/>
  <outline>
    <contour>
      <point x="140" y="489" type="curve"/>
      <point x="61" y="493" type="line"/>
      <point x="50" y="433"/>
      <point x="44" y="375"/>
      <point x="44" y="319" type="curve" smooth="yes"/>
      <point x="44" y="-15"/>
      <point x="229" y="-214"/>
      <point x="530" y="-214" type="curve" smooth="yes"/>
      <point x="801" y="-214"/>
      <point x="1000" y="-65"/>
      <point x="1000" y="248" type="curve" smooth="yes"/>
      <point x="1000" y="539"/>
      <point x="821" y="682"/>
      <point x="609" y="682" type="curve" smooth="yes"/>
      <point x="396" y="682"/>
      <point x="251" y="542"/>
      <point x="251" y="334" type="curve" smooth="yes"/>
      <point x="251" y="151"/>
      <point x="360" y="38"/>
      <point x="532" y="38" type="curve" smooth="yes"/>
      <point x="694" y="38"/>
      <point x="798" y="121"/>
      <point x="798" y="268" type="curve" smooth="yes"/>
      <point x="798" y="387"/>
      <point x="718" y="474"/>
      <point x="604" y="474" type="curve" smooth="yes"/>
      <point x="493" y="474"/>
      <point x="434" y="406"/>
      <point x="434" y="334" type="curve" smooth="yes"/>
      <point x="434" y="256"/>
      <point x="486" y="204"/>
      <point x="562" y="204" type="curve" smooth="yes"/>
      <point x="607" y="204"/>
      <point x="644" y="219"/>
      <point x="661" y="235" type="curve"/>
      <point x="624" y="294" type="line"/>
      <point x="607" y="281"/>
      <point x="593" y="275"/>
      <point x="565" y="275" type="curve" smooth="yes"/>
      <point x="532" y="275"/>
      <point x="512" y="297"/>
      <point x="512" y="334" type="curve" smooth="yes"/>
      <point x="512" y="380"/>
      <point x="545" y="406"/>
      <point x="601" y="406" type="curve" smooth="yes"/>
      <point x="677" y="406"/>
      <point x="718" y="354"/>
      <point x="718" y="268" type="curve" smooth="yes"/>
      <point x="718" y="164"/>
      <point x="653" y="107"/>
      <point x="532" y="107" type="curve" smooth="yes"/>
      <point x="408" y="107"/>
      <point x="331" y="189"/>
      <point x="331" y="333" type="curve" smooth="yes"/>
      <point x="331" y="527"/>
      <point x="457" y="611"/>
      <point x="609" y="611" type="curve" smooth="yes"/>
      <point x="801" y="611"/>
      <point x="917" y="472"/>
      <point x="917" y="248" type="curve" smooth="yes"/>
      <point x="917" y="2"/>
      <point x="777" y="-140"/>
      <point x="532" y="-140" type="curve" smooth="yes"/>
      <point x="272" y="-140"/>
      <point x="124" y="29"/>
      <point x="124" y="324" type="curve" smooth="yes"/>
      <point x="124" y="382"/>
      <point x="128" y="433"/>
    </contour>
  </outline>
</glyph>
<glyph name="uni0C78" format="2">
  <advance width="622"/>
  <unicode hex="0C78"/>
  <outline>
    <contour>
      <point x="44" y="369" type="curve" smooth="yes"/>
      <point x="44" y="218"/>
      <point x="147" y="121"/>
      <point x="307" y="121" type="curve" smooth="yes"/>
      <point x="468" y="121"/>
      <point x="571" y="220"/>
      <point x="571" y="371" type="curve" smooth="yes"/>
      <point x="571" y="531"/>
      <point x="465" y="633"/>
      <point x="307" y="633" type="curve" smooth="yes"/>
      <point x="150" y="633"/>
      <point x="44" y="527"/>
    </contour>
    <contour>
      <point x="131" y="378" type="curve" smooth="yes"/>
      <point x="131" y="473"/>
      <point x="187" y="554"/>
      <point x="307" y="554" type="curve" smooth="yes"/>
      <point x="426" y="554"/>
      <point x="484" y="473"/>
      <point x="484" y="373" type="curve" smooth="yes"/>
      <point x="484" y="272"/>
      <point x="424" y="200"/>
      <point x="307" y="200" type="curve" smooth="yes"/>
      <point x="190" y="200"/>
      <point x="131" y="274"/>
    </contour>
    <contour>
      <point x="578" y="102" type="curve" smooth="yes"/>
      <point x="578" y="161"/>
      <point x="546" y="213"/>
      <point x="482" y="261" type="curve"/>
      <point x="426" y="208" type="line"/>
      <point x="468" y="172"/>
      <point x="492" y="136"/>
      <point x="492" y="95" type="curve" smooth="yes"/>
      <point x="492" y="45"/>
      <point x="451" y="16"/>
      <point x="359" y="-22" type="curve"/>
      <point x="398" y="-101" type="line" smooth="yes"/>
      <point x="509" y="-51"/>
      <point x="578" y="-1"/>
    </contour>
  </outline>
</glyph>
<glyph name="uni0C79" format="2">
  <advance width="273"/>
  <unicode hex="0C79"/>
  <outline>
    <contour>
      <point x="180" y="0" type="line"/>
      <point x="180" y="620" type="line"/>
      <point x="93" y="620" type="line"/>
      <point x="93" y="0" type="line"/>
    </contour>
  </outline>
</glyph>
<glyph name="uni0C7A" format="2">
  <advance width="489"/>
  <unicode hex="0C7A"/>
  <outline>
    <contour>
      <point x="214" y="216" type="curve" smooth="yes"/>
      <point x="272" y="216"/>
      <point x="308" y="246"/>
      <point x="336" y="287" type="curve"/>
      <point x="379" y="388" type="line"/>
      <point x="379" y="620" type="line"/>
      <point x="309" y="620" type="line"/>
      <point x="309" y="407" type="line" smooth="yes"/>
      <point x="309" y="354"/>
      <point x="304" y="335"/>
      <point x="293" y="320" type="curve" smooth="yes"/>
      <point x="280" y="302"/>
      <point x="259" y="294"/>
      <point x="228" y="294" type="curve" smooth="yes"/>
      <point x="200" y="294"/>
      <point x="179" y="303"/>
      <point x="167" y="323" type="curve" smooth="yes"/>
      <point x="157" y="339"/>
      <point x="152" y="357"/>
      <point x="152" y="417" type="curve" smooth="yes"/>
      <point x="152" y="620" type="line"/>
      <point x="66" y="620" type="line"/>
      <point x="66" y="415" type="line" smooth="yes"/>
      <point x="66" y="322"/>
      <point x="81" y="283"/>
      <point x="110" y="254" type="curve" smooth="yes"/>
      <point x="134" y="230"/>
      <point x="168" y="216"/>
    </contour>
    <contour>
      <point x="396" y="0" type="line"/>
      <point x="396" y="620" type="line"/>
      <point x="309" y="620" type="line"/>
      <point x="309" y="0" type="line"/>
    </contour>
  </outline>
</glyph>
<glyph name="uni0C7B" format="2">
  <advance width="693"/>
  <unicode hex="0C7B"/>
  <outline>
    <contour>
      <point x="431" y="216" type="curve" smooth="yes"/>
      <point x="486" y="216"/>
      <point x="520" y="246"/>
      <point x="547" y="287" type="curve"/>
      <point x="588" y="388" type="line"/>
      <point x="588" y="620" type="line"/>
      <point x="513" y="620" type="line"/>
      <point x="513" y="407" type="line" smooth="yes"/>
      <point x="513" y="354"/>
      <point x="509" y="335"/>
      <point x="499" y="320" type="curve" smooth="yes"/>
      <point x="488" y="302"/>
      <point x="469" y="294"/>
      <point x="442" y="294" type="curve" smooth="yes"/>
      <point x="417" y="294"/>
      <point x="399" y="303"/>
      <point x="389" y="320" type="curve" smooth="yes"/>
      <point x="380" y="335"/>
      <point x="376" y="352"/>
      <point x="376" y="408" type="curve" smooth="yes"/>
      <point x="376" y="620" type="line"/>
      <point x="290" y="620" type="line"/>
      <point x="290" y="415" type="line" smooth="yes"/>
      <point x="290" y="322"/>
      <point x="304" y="283"/>
      <point x="332" y="254" type="curve" smooth="yes"/>
      <point x="354" y="230"/>
      <point x="387" y="216"/>
    </contour>
    <contour>
      <point x="601" y="0" type="line"/>
      <point x="601" y="620" type="line"/>
      <point x="513" y="620" type="line"/>
      <point x="513" y="0" type="line"/>
    </contour>
    <contour>
      <point x="208" y="216" type="curve" smooth="yes"/>
      <point x="270" y="216"/>
      <point x="307" y="250"/>
      <point x="330" y="286" type="curve"/>
      <point x="365" y="388" type="line"/>
      <point x="365" y="620" type="line"/>
      <point x="290" y="620" type="line"/>
      <point x="290" y="407" type="line" smooth="yes"/>
      <point x="290" y="354"/>
      <point x="285" y="335"/>
      <point x="275" y="320" type="curve" smooth="yes"/>
      <point x="264" y="302"/>
      <point x="246" y="294"/>
      <point x="219" y="294" type="curve" smooth="yes"/>
      <point x="194" y="294"/>
      <point x="176" y="303"/>
      <point x="166" y="320" type="curve" smooth="yes"/>
      <point x="157" y="335"/>
      <point x="152" y="352"/>
      <point x="152" y="408" type="curve" smooth="yes"/>
      <point x="152" y="620" type="line"/>
      <point x="66" y="620" type="line"/>
      <point x="66" y="415" type="line" smooth="yes"/>
      <point x="66" y="322"/>
      <point x="81" y="283"/>
      <point x="108" y="254" type="curve" smooth="yes"/>
      <point x="131" y="230"/>
      <point x="163" y="216"/>
    </contour>
  </outline>
</glyph>
<glyph name="uni0C7C" format="2">
  <advance width="610"/>
  <unicode hex="0C7C"/>
  <outline>
    <contour>
      <point x="32" y="275" type="line"/>
      <point x="578" y="275" type="line"/>
      <point x="578" y="354" type="line"/>
      <point x="32" y="354" type="line"/>
    </contour>
  </outline>
</glyph>
<glyph name="uni0C7D" format="2">
  <advance width="598"/>
  <unicode hex="0C7D"/>
  <outline>
    <contour>
      <point x="46" y="128" type="curve" smooth="yes"/>
      <point x="46" y="92"/>
      <point x="59" y="58"/>
      <point x="90" y="34" type="curve" smooth="yes"/>
      <point x="118" y="13"/>
      <point x="156" y="0"/>
      <point x="248" y="0" type="curve" smooth="yes"/>
      <point x="583" y="0" type="line"/>
      <point x="583" y="79" type="line"/>
      <point x="239" y="79" type="line" smooth="yes"/>
      <point x="171" y="79"/>
      <point x="133" y="84"/>
      <point x="133" y="130" type="curve" smooth="yes"/>
      <point x="133" y="178"/>
      <point x="192" y="196"/>
      <point x="292" y="218" type="curve" smooth="yes"/>
      <point x="405" y="243"/>
      <point x="512" y="273"/>
      <point x="512" y="378" type="curve" smooth="yes"/>
      <point x="512" y="417"/>
      <point x="499" y="448"/>
      <point x="470" y="469" type="curve" smooth="yes"/>
      <point x="444" y="488"/>
      <point x="411" y="500"/>
      <point x="324" y="500" type="curve" smooth="yes"/>
      <point x="47" y="500" type="line"/>
      <point x="47" y="424" type="line"/>
      <point x="332" y="424" type="line" smooth="yes"/>
      <point x="384" y="424"/>
      <point x="425" y="417"/>
      <point x="425" y="376" type="curve" smooth="yes"/>
      <point x="425" y="327"/>
      <point x="384" y="317"/>
      <point x="285" y="294" type="curve" smooth="yes"/>
      <point x="161" y="265"/>
      <point x="46" y="232"/>
    </contour>
  </outline>
</glyph>
<glyph name="uni0C7E" format="2">
  <advance width="598"/>
  <unicode hex="0C7E"/>
  <outline>
    <contour>
      <point x="46" y="90" type="curve"/>
      <point x="46" y="59"/>
      <point x="59" y="38"/>
      <point x="81" y="23" type="curve" smooth="yes"/>
      <point x="105" y="7"/>
      <point x="140" y="0"/>
      <point x="203" y="0" type="curve" smooth="yes"/>
      <point x="583" y="0" type="line"/>
      <point x="583" y="79" type="line"/>
      <point x="169" y="79" type="line" smooth="yes"/>
      <point x="146" y="79"/>
      <point x="133" y="83"/>
      <point x="133" y="96" type="curve" smooth="yes"/>
      <point x="133" y="113"/>
      <point x="150" y="122"/>
      <point x="305" y="148" type="curve" smooth="yes"/>
      <point x="477" y="178"/>
      <point x="512" y="209"/>
      <point x="512" y="268" type="curve" smooth="yes"/>
      <point x="512" y="295"/>
      <point x="501" y="315"/>
      <point x="484" y="329" type="curve" smooth="yes"/>
      <point x="458" y="349"/>
      <point x="420" y="356"/>
      <point x="351" y="356" type="curve" smooth="yes"/>
      <point x="169" y="356" type="line" smooth="yes"/>
      <point x="146" y="356"/>
      <point x="133" y="362"/>
      <point x="133" y="374" type="curve" smooth="yes"/>
      <point x="133" y="391"/>
      <point x="150" y="400"/>
      <point x="305" y="427" type="curve" smooth="yes"/>
      <point x="477" y="457"/>
      <point x="512" y="487"/>
      <point x="512" y="546" type="curve" smooth="yes"/>
      <point x="512" y="574"/>
      <point x="502" y="593"/>
      <point x="486" y="605" type="curve" smooth="yes"/>
      <point x="458" y="627"/>
      <point x="420" y="633"/>
      <point x="351" y="633" type="curve" smooth="yes"/>
      <point x="47" y="633" type="line"/>
      <point x="47" y="558" type="line"/>
      <point x="385" y="558" type="line" smooth="yes"/>
      <point x="404" y="558"/>
      <point x="425" y="557"/>
      <point x="425" y="540" type="curve" smooth="yes"/>
      <point x="425" y="524"/>
      <point x="413" y="516"/>
      <point x="270" y="492" type="curve" smooth="yes"/>
      <point x="91" y="461"/>
      <point x="46" y="434"/>
      <point x="46" y="368" type="curve" smooth="yes"/>
      <point x="46" y="337"/>
      <point x="60" y="316"/>
      <point x="81" y="302" type="curve" smooth="yes"/>
      <point x="105" y="285"/>
      <point x="140" y="280"/>
      <point x="203" y="280" type="curve" smooth="yes"/>
      <point x="385" y="280" type="line" smooth="yes"/>
      <point x="404" y="280"/>
      <point x="425" y="279"/>
      <point x="425" y="262" type="curve" smooth="yes"/>
      <point x="425" y="247"/>
      <point x="413" y="238"/>
      <point x="270" y="214" type="curve" smooth="yes"/>
      <point x="91" y="183"/>
      <point x="46" y="157"/>
    </contour>
  </outline>
</glyph>
<glyph name="uni0C7F" format="2">
  <advance width="742"/>
  <unicode hex="0C7F"/>
  <outline>
    <contour>
      <point x="328" y="-12" type="curve" smooth="yes"/>
      <point x="560" y="-12"/>
      <point x="659" y="125"/>
      <point x="717" y="308" type="curve"/>
      <point x="633" y="338" type="line"/>
      <point x="582" y="172"/>
      <point x="511" y="67"/>
      <point x="333" y="67" type="curve" smooth="yes"/>
      <point x="200" y="67"/>
      <point x="128" y="139"/>
      <point x="128" y="250" type="curve" smooth="yes"/>
      <point x="128" y="256" type="line" smooth="yes"/>
      <point x="128" y="354"/>
      <point x="171" y="427"/>
      <point x="242" y="427" type="curve" smooth="yes"/>
      <point x="275" y="427"/>
      <point x="299" y="407"/>
      <point x="299" y="369" type="curve" smooth="yes"/>
      <point x="299" y="329"/>
      <point x="271" y="305"/>
      <point x="217" y="305" type="curve" smooth="yes"/>
      <point x="153" y="305"/>
      <point x="118" y="344"/>
      <point x="102" y="366" type="curve"/>
      <point x="79" y="303" type="line"/>
      <point x="104" y="271"/>
      <point x="150" y="233"/>
      <point x="222" y="233" type="curve" smooth="yes"/>
      <point x="329" y="233"/>
      <point x="381" y="291"/>
      <point x="381" y="373" type="curve" smooth="yes"/>
      <point x="381" y="451"/>
      <point x="328" y="500"/>
      <point x="248" y="500" type="curve" smooth="yes"/>
      <point x="134" y="500"/>
      <point x="46" y="411"/>
      <point x="46" y="257" type="curve" smooth="yes"/>
      <point x="46" y="94"/>
      <point x="143" y="-12"/>
    </contour>
  </outline>
</glyph>
<glyph name="uni1CDA" format="2">
  <unicode hex="1CDA"/>
  <outline>
    <contour>
      <point x="-317" y="598" type="line"/>
      <point x="-317" y="809" type="line"/>
      <point x="-385" y="809" type="line"/>
      <point x="-385" y="598" type="line"/>
    </contour>
    <contour>
      <point x="-187" y="598" type="line"/>
      <point x="-187" y="809" type="line"/>
      <point x="-255" y="809" type="line"/>
      <point x="-255" y="598" type="line"/>
    </contour>
  </outline>
</glyph>
<glyph name="uni1CF2" format="2">
  <advance width="471"/>
  <unicode hex="1CF2"/>
  <outline>
    <contour>
      <point x="236" y="246" type="curve" smooth="yes"/>
      <point x="336" y="246"/>
      <point x="400" y="295"/>
      <point x="446" y="427" type="curve"/>
      <point x="367" y="454" type="line"/>
      <point x="335" y="362"/>
      <point x="300" y="324"/>
      <point x="235" y="324" type="curve" smooth="yes"/>
      <point x="171" y="324"/>
      <point x="136" y="362"/>
      <point x="104" y="454" type="curve"/>
      <point x="25" y="427" type="line"/>
      <point x="71" y="295"/>
      <point x="136" y="246"/>
    </contour>
    <contour>
      <point x="235" y="204" type="curve" smooth="yes"/>
      <point x="136" y="204"/>
      <point x="71" y="155"/>
      <point x="25" y="23" type="curve"/>
      <point x="104" y="-4" type="line"/>
      <point x="136" y="88"/>
      <point x="171" y="126"/>
      <point x="236" y="126" type="curve" smooth="yes"/>
      <point x="300" y="126"/>
      <point x="335" y="88"/>
      <point x="367" y="-4" type="curve"/>
      <point x="446" y="23" type="line"/>
      <point x="400" y="155"/>
      <point x="335" y="204"/>
    </contour>
  </outline>
</glyph>
<glyph name="endash.telu" format="2">
  <advance width="500"/>
  <unicode hex="2013"/>
  <outline>
    <contour>
      <point x="40" y="214" type="line"/>
      <point x="460" y="214" type="line"/>
      <point x="460" y="292" type="line"/>
      <point x="40" y="292" type="line"/>
    </contour>
  </outline>
</glyph>
<glyph name="emdash.telu" format="2">
  <advance width="1000"/>
  <unicode hex="2014"/>
  <outline>
    <contour>
      <point x="40" y="214" type="line"/>
      <point x="960" y="214" type="line"/>
      <point x="960" y="292" type="line"/>
      <point x="40" y="292" type="line"/>
    </contour>
  </outline>
</glyph>
<glyph name="quoteleft.telu" format="2">
  <advance width="259"/>
  <unicode hex="2018"/>
  <outline>
    <contour>
      <point x="58" y="529" type="line"/>
      <point x="157" y="529" type="line"/>
      <point x="167" y="598"/>
      <point x="188" y="698"/>
      <point x="208" y="773" type="curve"/>
      <point x="138" y="773" type="line"/>
      <point x="105" y="703"/>
      <point x="69" y="609"/>
      <point x="52" y="540" type="curve"/>
    </contour>
  </outline>
</glyph>
<glyph name="quoteright.telu" format="2">
  <advance width="259"/>
  <unicode hex="2019"/>
  <outline>
    <contour>
      <point x="200" y="773" type="line"/>
      <point x="102" y="773" type="line"/>
      <point x="91" y="704"/>
      <point x="70" y="604"/>
      <point x="52" y="529" type="curve"/>
      <point x="122" y="529" type="line"/>
      <point x="153" y="600"/>
      <point x="189" y="692"/>
      <point x="208" y="763" type="curve"/>
    </contour>
  </outline>
</glyph>
<glyph name="quotedblleft.telu" format="2">
  <advance width="438"/>
  <unicode hex="201C"/>
  <outline>
    <contour>
      <point x="242" y="529" type="line"/>
      <point x="336" y="529" type="line"/>
      <point x="347" y="598"/>
      <point x="368" y="697"/>
      <point x="387" y="773" type="curve"/>
      <point x="322" y="773" type="line"/>
      <point x="289" y="702"/>
      <point x="252" y="609"/>
      <point x="234" y="540" type="curve"/>
    </contour>
    <contour>
      <point x="58" y="529" type="line"/>
      <point x="151" y="529" type="line"/>
      <point x="162" y="598"/>
      <point x="183" y="697"/>
      <point x="202" y="773" type="curve"/>
      <point x="138" y="773" type="line"/>
      <point x="104" y="702"/>
      <point x="69" y="609"/>
      <point x="52" y="540" type="curve"/>
    </contour>
  </outline>
</glyph>
<glyph name="quotedblright.telu" format="2">
  <advance width="438"/>
  <unicode hex="201D"/>
  <outline>
    <contour>
      <point x="379" y="773" type="line"/>
      <point x="286" y="773" type="line"/>
      <point x="275" y="704"/>
      <point x="253" y="604"/>
      <point x="234" y="529" type="curve"/>
      <point x="301" y="529" type="line"/>
      <point x="333" y="600"/>
      <point x="369" y="691"/>
      <point x="387" y="763" type="curve"/>
    </contour>
    <contour>
      <point x="194" y="773" type="line"/>
      <point x="101" y="773" type="line"/>
      <point x="90" y="704"/>
      <point x="70" y="604"/>
      <point x="52" y="529" type="curve"/>
      <point x="116" y="529" type="line"/>
      <point x="147" y="600"/>
      <point x="184" y="691"/>
      <point x="202" y="763" type="curve"/>
    </contour>
  </outline>
</glyph>
<glyph name="uni20B9.telu" format="2">
  <advance width="572"/>
  <unicode hex="20B9"/>
  <outline>
    <contour>
      <point x="278" y="0" type="line"/>
      <point x="393" y="0" type="line"/>
      <point x="177" y="250" type="line"/>
      <point x="290" y="266"/>
      <point x="353" y="331"/>
      <point x="357" y="419" type="curve"/>
      <point x="513" y="419" type="line"/>
      <point x="513" y="492" type="line"/>
      <point x="356" y="492" type="line"/>
      <point x="350" y="529"/>
      <point x="335" y="559"/>
      <point x="313" y="579" type="curve"/>
      <point x="513" y="579" type="line"/>
      <point x="513" y="651" type="line"/>
      <point x="72" y="651" type="line"/>
      <point x="72" y="579" type="line"/>
      <point x="138" y="579" type="line" smooth="yes"/>
      <point x="188" y="579"/>
      <point x="214" y="572"/>
      <point x="235" y="554" type="curve" smooth="yes"/>
      <point x="250" y="541"/>
      <point x="262" y="520"/>
      <point x="268" y="492" type="curve"/>
      <point x="72" y="492" type="line"/>
      <point x="72" y="419" type="line"/>
      <point x="269" y="419" type="line"/>
      <point x="257" y="341"/>
      <point x="208" y="323"/>
      <point x="120" y="323" type="curve" smooth="yes"/>
      <point x="82" y="323" type="line"/>
      <point x="72" y="246" type="line"/>
    </contour>
  </outline>
</glyph>
<glyph name="minus.telu" format="2">
  <advance width="572"/>
  <unicode hex="2212"/>
  <outline>
    <contour>
      <point x="50" y="291" type="line"/>
      <point x="521" y="291" type="line"/>
      <point x="521" y="362" type="line"/>
      <point x="50" y="362" type="line"/>
    </contour>
  </outline>
</glyph>
<glyph name="uni25CC" format="2">
  <advance width="578"/>
  <unicode hex="25CC"/>
  <outline>
    <contour>
      <point x="318" y="359" type="curve"/>
      <point x="318" y="378"/>
      <point x="309" y="387"/>
      <point x="289" y="387" type="curve" smooth="yes"/>
      <point x="269" y="387"/>
      <point x="260" y="378"/>
      <point x="260" y="359" type="curve" smooth="yes"/>
      <point x="260" y="340"/>
      <point x="270" y="330"/>
      <point x="289" y="330" type="curve" smooth="yes"/>
      <point x="309" y="330"/>
      <point x="318" y="339"/>
    </contour>
    <contour>
      <point x="193" y="309" type="curve"/>
      <point x="193" y="328"/>
      <point x="184" y="338"/>
      <point x="165" y="338" type="curve" smooth="yes"/>
      <point x="146" y="338"/>
      <point x="136" y="328"/>
      <point x="136" y="309" type="curve" smooth="yes"/>
      <point x="136" y="290"/>
      <point x="146" y="280"/>
      <point x="165" y="280" type="curve" smooth="yes"/>
      <point x="184" y="280"/>
      <point x="193" y="290"/>
    </contour>
    <contour>
      <point x="442" y="309" type="curve"/>
      <point x="442" y="328"/>
      <point x="433" y="338"/>
      <point x="414" y="338" type="curve" smooth="yes"/>
      <point x="395" y="338"/>
      <point x="385" y="328"/>
      <point x="385" y="309" type="curve" smooth="yes"/>
      <point x="385" y="290"/>
      <point x="395" y="280"/>
      <point x="414" y="280" type="curve" smooth="yes"/>
      <point x="433" y="280"/>
      <point x="442" y="290"/>
    </contour>
    <contour>
      <point x="487" y="189" type="curve"/>
      <point x="487" y="208"/>
      <point x="478" y="218"/>
      <point x="458" y="218" type="curve" smooth="yes"/>
      <point x="439" y="218"/>
      <point x="429" y="208"/>
      <point x="429" y="189" type="curve" smooth="yes"/>
      <point x="429" y="170"/>
      <point x="439" y="161"/>
      <point x="458" y="161" type="curve" smooth="yes"/>
      <point x="478" y="161"/>
      <point x="487" y="170"/>
    </contour>
    <contour>
      <point x="148" y="189" type="curve"/>
      <point x="148" y="208"/>
      <point x="139" y="218"/>
      <point x="120" y="218" type="curve" smooth="yes"/>
      <point x="101" y="218"/>
      <point x="91" y="208"/>
      <point x="91" y="189" type="curve" smooth="yes"/>
      <point x="91" y="170"/>
      <point x="101" y="161"/>
      <point x="120" y="161" type="curve" smooth="yes"/>
      <point x="139" y="161"/>
      <point x="148" y="170"/>
    </contour>
    <contour>
      <point x="193" y="70" type="curve"/>
      <point x="193" y="89"/>
      <point x="184" y="99"/>
      <point x="165" y="99" type="curve" smooth="yes"/>
      <point x="146" y="99"/>
      <point x="136" y="89"/>
      <point x="136" y="70" type="curve" smooth="yes"/>
      <point x="136" y="51"/>
      <point x="146" y="41"/>
      <point x="165" y="41" type="curve" smooth="yes"/>
      <point x="184" y="41"/>
      <point x="193" y="51"/>
    </contour>
    <contour>
      <point x="442" y="70" type="curve"/>
      <point x="442" y="89"/>
      <point x="433" y="99"/>
      <point x="414" y="99" type="curve" smooth="yes"/>
      <point x="395" y="99"/>
      <point x="385" y="89"/>
      <point x="385" y="70" type="curve" smooth="yes"/>
      <point x="385" y="51"/>
      <point x="395" y="41"/>
      <point x="414" y="41" type="curve" smooth="yes"/>
      <point x="433" y="41"/>
      <point x="442" y="51"/>
    </contour>
    <contour>
      <point x="318" y="20" type="curve"/>
      <point x="318" y="40"/>
      <point x="309" y="49"/>
      <point x="289" y="49" type="curve" smooth="yes"/>
      <point x="270" y="49"/>
      <point x="260" y="39"/>
      <point x="260" y="20" type="curve" smooth="yes"/>
      <point x="260" y="1"/>
      <point x="270" y="-9"/>
      <point x="289" y="-9" type="curve" smooth="yes"/>
      <point x="309" y="-9"/>
      <point x="318" y="0"/>
    </contour>
  </outline>
</glyph>
<glyph name="aavowelsign1telu" format="2">
  <outline>
    <contour>
      <point x="881" y="256" type="curve" smooth="yes"/>
      <point x="967" y="256"/>
      <point x="1022" y="305"/>
      <point x="1022" y="389" type="curve" smooth="yes"/>
      <point x="1022" y="439"/>
      <point x="1003" y="476"/>
      <point x="975" y="498" type="curve" smooth="yes"/>
      <point x="939" y="527"/>
      <point x="896" y="536"/>
      <point x="810" y="536" type="curve" smooth="yes"/>
      <point x="362" y="536" type="line"/>
      <point x="362" y="461" type="line"/>
      <point x="852" y="461" type="line" smooth="yes"/>
      <point x="913" y="461"/>
      <point x="949" y="442"/>
      <point x="949" y="386" type="curve" smooth="yes"/>
      <point x="949" y="350"/>
      <point x="931" y="322"/>
      <point x="885" y="322" type="curve" smooth="yes"/>
      <point x="841" y="322"/>
      <point x="817" y="349"/>
      <point x="817" y="389" type="curve" smooth="yes"/>
      <point x="817" y="422"/>
      <point x="831" y="453"/>
      <point x="865" y="486" type="curve"/>
      <point x="777" y="479" type="line"/>
      <point x="758" y="451"/>
      <point x="744" y="422"/>
      <point x="744" y="380" type="curve" smooth="yes"/>
      <point x="744" y="323"/>
      <point x="781" y="256"/>
    </contour>
  </outline>
</glyph>
<glyph name="aavowelsign2telu" format="2">
  <advance width="1045"/>
  <outline>
    <contour>
      <point x="875" y="220" type="curve" smooth="yes"/>
      <point x="961" y="220"/>
      <point x="1016" y="269"/>
      <point x="1016" y="353" type="curve" smooth="yes"/>
      <point x="1016" y="403"/>
      <point x="997" y="440"/>
      <point x="969" y="462" type="curve" smooth="yes"/>
      <point x="933" y="491"/>
      <point x="890" y="500"/>
      <point x="804" y="500" type="curve" smooth="yes"/>
      <point x="97" y="500" type="line"/>
      <point x="97" y="425" type="line"/>
      <point x="846" y="425" type="line" smooth="yes"/>
      <point x="907" y="425"/>
      <point x="943" y="406"/>
      <point x="943" y="350" type="curve" smooth="yes"/>
      <point x="943" y="314"/>
      <point x="925" y="286"/>
      <point x="879" y="286" type="curve" smooth="yes"/>
      <point x="835" y="286"/>
      <point x="811" y="313"/>
      <point x="811" y="353" type="curve" smooth="yes"/>
      <point x="811" y="386"/>
      <point x="825" y="417"/>
      <point x="859" y="450" type="curve"/>
      <point x="771" y="443" type="line"/>
      <point x="752" y="415"/>
      <point x="738" y="386"/>
      <point x="738" y="344" type="curve" smooth="yes"/>
      <point x="738" y="287"/>
      <point x="775" y="220"/>
    </contour>
  </outline>
</glyph>
<glyph name="ailengthmarkUItelu" format="2">
  <outline>
    <contour>
      <point x="-440" y="-47" type="curve" smooth="yes"/>
      <point x="-520" y="-47"/>
      <point x="-574" y="-95"/>
      <point x="-574" y="-167" type="curve" smooth="yes"/>
      <point x="-574" y="-216"/>
      <point x="-556" y="-247"/>
      <point x="-528" y="-268" type="curve" smooth="yes"/>
      <point x="-493" y="-295"/>
      <point x="-444" y="-304"/>
      <point x="-359" y="-304" type="curve" smooth="yes"/>
      <point x="-2" y="-304" type="line"/>
      <point x="-2" y="-229" type="line"/>
      <point x="-408" y="-229" type="line" smooth="yes"/>
      <point x="-470" y="-229"/>
      <point x="-505" y="-212"/>
      <point x="-505" y="-166" type="curve" smooth="yes"/>
      <point x="-505" y="-137"/>
      <point x="-485" y="-113"/>
      <point x="-444" y="-113" type="curve" smooth="yes"/>
      <point x="-403" y="-113"/>
      <point x="-380" y="-136"/>
      <point x="-380" y="-170" type="curve" smooth="yes"/>
      <point x="-380" y="-198"/>
      <point x="-393" y="-225"/>
      <point x="-427" y="-253" type="curve"/>
      <point x="-343" y="-247" type="line"/>
      <point x="-324" y="-221"/>
      <point x="-311" y="-196"/>
      <point x="-311" y="-159" type="curve" smooth="yes"/>
      <point x="-311" y="-107"/>
      <point x="-348" y="-47"/>
    </contour>
  </outline>
</glyph>
<glyph name="ailengthmarknarrowUItelu" format="2">
  <outline>
    <contour>
      <point x="-387" y="-46" type="curve" smooth="yes"/>
      <point x="-467" y="-46"/>
      <point x="-521" y="-94"/>
      <point x="-521" y="-166" type="curve" smooth="yes"/>
      <point x="-521" y="-215"/>
      <point x="-503" y="-246"/>
      <point x="-475" y="-267" type="curve" smooth="yes"/>
      <point x="-440" y="-294"/>
      <point x="-391" y="-303"/>
      <point x="-306" y="-303" type="curve" smooth="yes"/>
      <point x="-13" y="-303" type="line"/>
      <point x="-13" y="-228" type="line"/>
      <point x="-355" y="-228" type="line" smooth="yes"/>
      <point x="-417" y="-228"/>
      <point x="-452" y="-212"/>
      <point x="-452" y="-165" type="curve" smooth="yes"/>
      <point x="-452" y="-136"/>
      <point x="-432" y="-112"/>
      <point x="-391" y="-112" type="curve" smooth="yes"/>
      <point x="-350" y="-112"/>
      <point x="-327" y="-135"/>
      <point x="-327" y="-169" type="curve" smooth="yes"/>
      <point x="-327" y="-197"/>
      <point x="-340" y="-224"/>
      <point x="-374" y="-252" type="curve"/>
      <point x="-290" y="-246" type="line"/>
      <point x="-271" y="-220"/>
      <point x="-258" y="-195"/>
      <point x="-258" y="-158" type="curve" smooth="yes"/>
      <point x="-258" y="-106"/>
      <point x="-295" y="-46"/>
    </contour>
  </outline>
</glyph>
